<!-- Generated by IcoMoon.io -->
<svg version="1.1" xmlns="http://www.w3.org/2000/svg" width="37" height="32" viewBox="0 0 37 32">
<title>arrow-small-left</title>
<path d="M34.667 13.333h-26.667l8.773-8.773c0.25-0.248 0.448-0.543 0.584-0.868s0.205-0.673 0.205-1.026c0-0.352-0.070-0.701-0.205-1.026s-0.334-0.62-0.584-0.868c-0.5-0.497-1.175-0.775-1.88-0.775s-1.38 0.279-1.88 0.775l-11.44 11.467c-1.002 0.996-1.567 2.348-1.573 3.76 0.013 1.403 0.578 2.744 1.573 3.733l11.44 11.467c0.249 0.247 0.543 0.442 0.868 0.575s0.671 0.201 1.022 0.2c0.35-0.001 0.697-0.071 1.020-0.207s0.617-0.333 0.864-0.581 0.442-0.543 0.575-0.868c0.133-0.324 0.201-0.671 0.2-1.022s-0.072-0.697-0.207-1.021c-0.135-0.323-0.333-0.617-0.581-0.863l-8.773-8.747h26.667c0.707 0 1.386-0.281 1.886-0.781s0.781-1.178 0.781-1.886c0-0.707-0.281-1.386-0.781-1.886s-1.178-0.781-1.886-0.781z"></path>
</svg>
