<!-- Generated by IcoMoon.io -->
<svg version="1.1" xmlns="http://www.w3.org/2000/svg" width="32" height="32" viewBox="0 0 32 32">
<title>avocado</title>
<path d="M19.254 17.611c-0.742-0.565-1.608-0.946-2.526-1.11s-1.862-0.108-2.755 0.165-1.707 0.754-2.376 1.404c-0.669 0.65-1.175 1.449-1.474 2.333s-0.384 1.826-0.247 2.748c0.137 0.923 0.491 1.8 1.034 2.558s1.258 1.377 2.087 1.805c0.829 0.428 1.748 0.652 2.681 0.654 0.267-0 0.534-0.018 0.799-0.054 1.152-0.156 2.233-0.649 3.104-1.419s1.496-1.78 1.793-2.905c0.297-1.124 0.254-2.311-0.123-3.411s-1.073-2.063-1.997-2.768v-0zM19.516 25.204c-0.48 0.629-1.107 1.131-1.826 1.459s-1.509 0.475-2.299 0.426c-0.79-0.049-1.555-0.292-2.228-0.708s-1.233-0.991-1.631-1.674c-0.398-0.684-0.621-1.455-0.649-2.246s0.138-1.576 0.486-2.287c0.348-0.711 0.865-1.325 1.507-1.788s1.387-0.761 2.171-0.866c0.217-0.029 0.435-0.044 0.654-0.044 0.896 0.002 1.773 0.254 2.533 0.728s1.373 1.15 1.77 1.953c0.397 0.803 0.561 1.701 0.475 2.593s-0.419 1.741-0.962 2.454h-0z"></path>
<path d="M13.162 21.418c0.046-0.134 0.037-0.281-0.025-0.408-0.031-0.063-0.074-0.119-0.126-0.166s-0.114-0.082-0.18-0.105c-0.134-0.046-0.281-0.037-0.408 0.025s-0.225 0.172-0.271 0.306c-0.197 0.572-0.252 1.182-0.162 1.78s0.325 1.164 0.683 1.652c0.084 0.114 0.21 0.191 0.35 0.212s0.283-0.014 0.397-0.097 0.191-0.21 0.212-0.35c0.021-0.14-0.014-0.283-0.097-0.397-0.255-0.348-0.423-0.753-0.488-1.18s-0.025-0.863 0.115-1.271z"></path>
<path d="M15.009 24.873c-0.070-0.018-0.141-0.040-0.21-0.064-0.134-0.047-0.281-0.040-0.409 0.021s-0.226 0.17-0.274 0.304c-0.047 0.134-0.040 0.281 0.021 0.409s0.17 0.226 0.304 0.274c0.096 0.034 0.196 0.065 0.295 0.091 0.137 0.036 0.283 0.016 0.405-0.056s0.211-0.189 0.247-0.326c0.036-0.137 0.016-0.283-0.056-0.405s-0.189-0.211-0.326-0.247z"></path>
<path d="M26.752 6.258l-1.648-2.628c-0.476-0.757-1.174-1.348-1.999-1.692s-1.737-0.424-2.609-0.229l-2.358 0.529c-0.022-0.016-0.046-0.031-0.071-0.043l-1.843-0.921v-0.739c0-0.142-0.056-0.278-0.157-0.378s-0.236-0.157-0.378-0.157c-0.142 0-0.278 0.056-0.378 0.157s-0.157 0.236-0.157 0.378v3.099c-1 0.101-1.948 0.494-2.726 1.129s-1.354 1.485-1.653 2.444l-0.64 2.027c-0.809 2.561-1.975 4.995-3.465 7.229-0.911 1.366-1.469 2.936-1.625 4.571s0.094 3.282 0.73 4.796 1.635 2.847 2.911 3.881c1.276 1.034 2.787 1.735 4.4 2.042 1.72 0.329 3.488 0.329 5.208 0 1.613-0.307 3.125-1.009 4.4-2.042s2.276-2.367 2.911-3.881c0.635-1.514 0.886-3.162 0.73-4.796s-0.715-3.205-1.625-4.571c-1.047-1.571-1.935-3.242-2.652-4.988 0.054-0.069 0.090-0.149 0.105-0.235l0.549-3.053c0.033-0.183 0.053-0.368 0.062-0.553 0.186-0.007 0.371-0.025 0.555-0.056l3.059-0.51c0.087-0.014 0.169-0.050 0.238-0.104s0.125-0.124 0.161-0.204c0.036-0.080 0.052-0.168 0.046-0.256s-0.034-0.173-0.080-0.247h-0zM20.73 2.752c0.657-0.147 1.343-0.086 1.964 0.173s1.147 0.704 1.505 1.274l0.71 1.132-5.214-2.346 1.036-0.232zM17.917 5.53l0.203-0.854c0.001-0.003 0.001-0.005 0.002-0.008l0.041-0.171 2.28 5.243-1.123-0.724c-0.565-0.365-1.003-0.896-1.255-1.521s-0.303-1.311-0.148-1.966zM19.142 4.071l0.923 0.525c0.585 0.333 1.052 0.839 1.337 1.449s0.375 1.292 0.257 1.955l-0.236 1.315-2.28-5.243zM17.405 3.059l-0.185 0.78c-0.324-0.102-0.658-0.17-0.995-0.205v-1.165l1.181 0.59zM25.311 21.982c-0.002 2.066-0.723 4.067-2.040 5.659s-3.148 2.675-5.177 3.063c-1.588 0.304-3.22 0.304-4.808 0-1.44-0.274-2.789-0.901-3.927-1.823s-2.031-2.112-2.598-3.464c-0.567-1.351-0.791-2.822-0.651-4.281s0.638-2.86 1.451-4.080c1.546-2.318 2.756-4.843 3.595-7.501l0.64-2.027c0.163-0.516 0.427-0.994 0.776-1.407s0.777-0.753 1.259-0.999c0.482-0.246 1.007-0.395 1.547-0.436s1.082 0.024 1.595 0.194l-0.096 0.403c-0.206 0.87-0.137 1.782 0.196 2.612s0.916 1.535 1.667 2.020l2.081 1.342c0.783 2.038 1.789 3.983 3 5.8 0.974 1.458 1.493 3.172 1.491 4.925zM23.152 6.525c-0.152 0.025-0.306 0.039-0.46 0.042-0.091-0.448-0.252-0.879-0.478-1.277l2.256 1.015-1.318 0.22z"></path>
</svg>
