<!-- Generated by IcoMoon.io -->
<svg version="1.1" xmlns="http://www.w3.org/2000/svg" width="32" height="32" viewBox="0 0 32 32">
<title>cacao</title>
<path d="M27.868 20.8c0.027-8.399-6.461-15.372-14.807-15.964 0.323-3.123-1.346-4.63-1.4-4.711-0.162-0.162-0.431-0.162-0.619-0.027l-1.911 1.535c-0.269 0.215-0.215 0.592 0.054 0.781 0.888 0.592 1.454 1.535 1.561 2.584-0.996 0.35-2.396 1.292-3.177 3.796-0.296 0.915-0.7 1.777-1.158 2.611-0.942 1.804-1.911 3.661-1.911 7.619 0 4.2 1.723 6.488 3.231 8.507 0.727 0.969 1.4 1.858 1.804 2.881 0.027 0.027 0.565 1.615 2.315 1.588 0.942 0 1.884-0.512 2.342-1.615 0.404-1.023 1.077-1.911 1.804-2.881 1.508-2.019 3.231-4.307 3.231-8.507 2.477 1.481 5.277 2.234 8.157 2.234 0.269 0.054 0.485-0.162 0.485-0.431zM26.872 19.616l-10.634-10.634c-0.323-0.969-0.619-1.885-1.696-2.988 6.73 1.185 11.818 6.811 12.33 13.622zM11.876 30.384c-0.108-0.404-0.188-0.781-0.242-1.185-0.188-1.077-0.458-2.127-0.861-3.15-0.646-1.804-1.346-3.823-1.346-7.053 0-4.038 0.377-5.6 0.808-7.403 0.619-2.558 0.781-4.469 1.615-5.654 0.861 1.158 1.023 3.096 1.615 5.654 0.431 1.804 0.808 3.365 0.808 7.403 0 3.257-0.7 5.25-1.319 7.053-0.404 1.023-0.673 2.073-0.861 3.15-0.027 0.377-0.108 0.781-0.215 1.185zM10.18 2.036l1.104-0.861c0.377 0.511 1.050 1.723 0.835 3.661-0.135 0-0.323 0-0.431 0-0.162-1.104-0.7-2.1-1.508-2.8zM10.396 30.088c-0.458-1.131-1.185-2.073-1.938-3.096-1.508-1.992-3.042-4.065-3.042-7.942 0-3.742 0.861-5.411 1.804-7.188 0.485-0.888 0.888-1.804 1.211-2.746 0.592-1.831 1.508-2.665 2.261-3.042-0.835 1.831-0.673 2.315-1.373 5.304-0.431 1.777-0.835 3.473-0.835 7.619 0 3.392 0.727 5.492 1.373 7.349 0.377 0.969 0.646 1.938 0.808 2.961 0.054 0.538 0.188 1.050 0.35 1.561-0.458-0.323-0.592-0.754-0.619-0.781zM15.242 26.992c-0.754 0.996-1.481 1.965-1.938 3.096-0.027 0.027-0.162 0.485-0.619 0.781 0.162-0.512 0.269-1.023 0.35-1.561 0.162-1.023 0.431-2.019 0.808-2.961 0.646-1.858 1.373-3.957 1.373-7.349 0-4.146-0.404-5.842-0.835-7.619-0.727-2.988-0.565-3.473-1.373-5.304 0.754 0.377 1.669 1.212 2.261 3.042 0.215 0.673 0.646 1.723 1.211 2.746 0.915 1.777 1.804 3.446 1.804 7.188 0 3.877-1.535 5.95-3.042 7.942zM17.341 11.432l8.884 8.857c-2.504-0.188-4.927-0.996-7.026-2.369-0.162-3.204-1.023-4.873-1.858-6.488z"></path>
</svg>
