<!-- Generated by IcoMoon.io -->
<svg version="1.1" xmlns="http://www.w3.org/2000/svg" width="32" height="32" viewBox="0 0 32 32">
<title>call-outgoing</title>
<path d="M31.973 2.697v5.333c0 0.354-0.14 0.693-0.391 0.943s-0.589 0.39-0.943 0.39-0.693-0.14-0.943-0.39c-0.25-0.25-0.391-0.589-0.391-0.943v-3.417l-7.067 7.029c-0.252 0.242-0.589 0.376-0.939 0.372s-0.684-0.145-0.93-0.393c-0.247-0.248-0.386-0.583-0.388-0.932s0.133-0.686 0.377-0.937l7.093-7.055h-3.48c-0.354 0-0.693-0.14-0.943-0.391s-0.391-0.589-0.391-0.943 0.14-0.693 0.391-0.943c0.25-0.25 0.589-0.391 0.943-0.391h5.333c0.707 0 1.386 0.281 1.886 0.781s0.781 1.178 0.781 1.886zM30.766 22.349c0.773 0.775 1.207 1.824 1.207 2.919s-0.434 2.144-1.207 2.919l-1.216 1.4c-10.921 10.451-37.493-16.113-27.2-27.067l1.532-1.333c0.776-0.751 1.816-1.167 2.896-1.157s2.113 0.443 2.876 1.208c0.040 0.041 2.511 3.252 2.511 3.252 0.733 0.77 1.141 1.793 1.139 2.856s-0.412 2.085-1.148 2.852l-1.545 1.943c0.854 2.076 2.111 3.963 3.697 5.552s3.47 2.849 5.545 3.708l1.953-1.553c0.768-0.735 1.789-1.145 2.852-1.147s2.085 0.406 2.855 1.139c0 0 3.212 2.471 3.253 2.511zM28.933 24.288c0 0-3.191-2.456-3.232-2.496-0.275-0.272-0.646-0.425-1.033-0.425s-0.758 0.153-1.033 0.425c-0.036 0.035-2.725 2.179-2.725 2.179-0.181 0.144-0.397 0.239-0.626 0.274s-0.463 0.011-0.68-0.072c-2.689-1-5.131-2.567-7.162-4.594s-3.6-4.468-4.604-7.155c-0.088-0.219-0.116-0.456-0.082-0.689s0.129-0.453 0.276-0.637c0 0 2.143-2.689 2.179-2.725 0.272-0.275 0.425-0.646 0.425-1.033s-0.153-0.758-0.425-1.033c-0.040-0.040-2.496-3.232-2.496-3.232-0.279-0.25-0.642-0.384-1.017-0.375s-0.731 0.162-0.997 0.426l-1.532 1.333c-7.525 9.043 15.505 30.797 23.429 23.309l1.216-1.4c0.287-0.263 0.459-0.628 0.481-1.016s-0.109-0.77-0.364-1.064z"></path>
</svg>
