<!-- Generated by IcoMoon.io -->
<svg version="1.1" xmlns="http://www.w3.org/2000/svg" width="32" height="32" viewBox="0 0 32 32">
<title>cone-ice-cream</title>
<path d="M29.24 16.6c-0.325 0-0.66-0.050-0.995-0.15-0.050-0.010-0.1-0.025-0.145-0.045-0.225-0.075-0.435-0.175-0.625-0.285-0.22-0.13-0.425-0.28-0.61-0.45-0.735 0.37-1.645 0.415-2.505 0.12-0.605-0.21-1.13-0.57-1.515-1.035-0.64 0.19-1.36 0.17-2.035-0.060-0.85-0.29-1.535-0.88-1.895-1.615-0.145 0.005-0.3-0.005-0.455-0.030-0.15-0.020-0.305-0.060-0.46-0.11-1.34-0.46-2.065-1.9-1.615-3.21 0.275-0.805 0.945-1.405 1.77-1.605 0.015-0.045 0.030-0.090 0.045-0.135 1.12-3.29 5.015-4.94 8.67-3.685 1.76 0.605 3.21 1.785 4.080 3.33 0.875 1.56 1.060 3.3 0.51 4.9 0.52 0.71 0.675 1.58 0.41 2.345-0.36 1.065-1.425 1.72-2.63 1.72zM26.95 14.57c0.14 0 0.28 0.060 0.375 0.18 0.17 0.21 0.385 0.39 0.635 0.535 0.135 0.080 0.285 0.15 0.45 0.205 0.020 0.005 0.070 0.020 0.090 0.025 1.080 0.33 2.155-0.085 2.455-0.95 0.17-0.495 0.050-1.050-0.33-1.525-0.025-0.035-0.055-0.065-0.080-0.095-0.12-0.14-0.155-0.335-0.080-0.51 0.030-0.070 0.055-0.135 0.080-0.205 0.46-1.34 0.305-2.8-0.435-4.115-0.75-1.335-2.010-2.36-3.55-2.89-3.155-1.080-6.495 0.3-7.45 3.080-0.040 0.115-0.075 0.24-0.105 0.36-0.050 0.2-0.22 0.35-0.43 0.365-0.015 0.005-0.050 0.010-0.065 0.010-0.565 0.085-1.030 0.47-1.215 1.005-0.275 0.805 0.18 1.695 1.010 1.98 0.095 0.035 0.195 0.055 0.29 0.070 0.15 0.025 0.29 0.025 0.43 0.005 0.24-0.055 0.58 0.075 0.66 0.31 0.2 0.615 0.74 1.13 1.44 1.37 0.58 0.2 1.2 0.18 1.7-0.045 0.22-0.1 0.485-0.020 0.61 0.185 0.27 0.435 0.71 0.775 1.24 0.955 0.705 0.24 1.47 0.16 1.995-0.215 0.085-0.060 0.18-0.090 0.28-0.090z"></path>
<path d="M18.87 28.12c-0.055 0-0.105-0.010-0.155-0.025-0.19-0.065-0.325-0.245-0.33-0.45l-0.34-15.060c-0.005-0.27 0.205-0.49 0.475-0.495h0.010c0.265 0 0.48 0.21 0.485 0.475l0.31 13.745 8.66-10.635c0.17-0.205 0.475-0.24 0.68-0.070s0.24 0.475 0.070 0.68l-9.49 11.655c-0.095 0.115-0.235 0.18-0.375 0.18z"></path>
<path d="M27.175 17.92c-0.025 0-0.050 0-0.080-0.005l-8.565-1.39c-0.265-0.045-0.445-0.29-0.4-0.555s0.295-0.445 0.555-0.4l8.565 1.39c0.265 0.045 0.445 0.29 0.4 0.555-0.035 0.24-0.245 0.405-0.475 0.405z"></path>
<path d="M25.555 19.91c-0.025 0-0.050 0-0.080-0.005l-6.895-1.12c-0.265-0.045-0.445-0.29-0.4-0.555s0.295-0.445 0.555-0.4l6.895 1.12c0.265 0.045 0.445 0.29 0.4 0.555-0.035 0.235-0.245 0.405-0.475 0.405z"></path>
<path d="M23.935 21.895c-0.025 0-0.050 0-0.080-0.005l-5.225-0.85c-0.265-0.045-0.445-0.29-0.4-0.555s0.295-0.445 0.555-0.4l5.225 0.85c0.265 0.045 0.445 0.29 0.4 0.555-0.035 0.24-0.24 0.405-0.475 0.405z"></path>
<path d="M22.32 23.885c-0.025 0-0.050 0-0.080-0.005l-3.56-0.58c-0.265-0.045-0.445-0.29-0.4-0.555s0.295-0.445 0.555-0.4l3.56 0.58c0.265 0.045 0.445 0.29 0.4 0.555-0.040 0.235-0.245 0.405-0.475 0.405z"></path>
<path d="M2.76 16.6c-1.205 0-2.265-0.65-2.635-1.72-0.265-0.765-0.11-1.635 0.41-2.345-0.545-1.6-0.365-3.34 0.51-4.9 0.87-1.545 2.315-2.725 4.080-3.33s3.63-0.56 5.265 0.125c1.655 0.695 2.865 1.955 3.415 3.56 0.015 0.045 0.030 0.090 0.045 0.135 0.825 0.2 1.495 0.8 1.77 1.605 0.45 1.31-0.275 2.75-1.615 3.21-0.155 0.055-0.315 0.090-0.47 0.115-0.145 0.025-0.295 0.030-0.45 0.025-0.36 0.735-1.045 1.325-1.895 1.615-0.675 0.23-1.395 0.25-2.035 0.060-0.385 0.465-0.91 0.825-1.515 1.035-0.86 0.295-1.77 0.245-2.505-0.12-0.185 0.17-0.39 0.325-0.615 0.455-0.18 0.11-0.395 0.205-0.62 0.285-0.050 0.015-0.095 0.030-0.145 0.040-0.335 0.1-0.67 0.15-0.995 0.15zM7.635 4.85c-0.73 0-1.47 0.125-2.19 0.37-1.535 0.525-2.795 1.555-3.55 2.89-0.74 1.315-0.895 2.78-0.435 4.115 0.025 0.070 0.050 0.14 0.080 0.205 0.075 0.175 0.040 0.375-0.085 0.515-0.025 0.030-0.055 0.060-0.080 0.090-0.38 0.475-0.5 1.035-0.33 1.53 0.295 0.865 1.375 1.28 2.455 0.95 0.020-0.005 0.045-0.010 0.065-0.015 0.19-0.065 0.34-0.135 0.47-0.21 0.26-0.15 0.47-0.33 0.64-0.54 0.16-0.2 0.45-0.24 0.66-0.090 0.525 0.375 1.29 0.455 2 0.215 0.53-0.18 0.97-0.52 1.24-0.955 0.13-0.205 0.39-0.285 0.61-0.185 0.5 0.23 1.12 0.245 1.7 0.045 0.7-0.24 1.24-0.75 1.44-1.37 0.080-0.235 0.325-0.375 0.565-0.325 0.015 0 0.075 0.010 0.090 0.010 0.14 0.020 0.28 0.015 0.42-0.005 0.1-0.015 0.2-0.040 0.295-0.070 0.835-0.285 1.29-1.175 1.010-1.98-0.185-0.535-0.65-0.92-1.215-1.005-0.020-0.005-0.035-0.005-0.055-0.010-0.205-0.020-0.39-0.165-0.44-0.37-0.030-0.12-0.065-0.24-0.105-0.355-0.46-1.335-1.48-2.395-2.875-2.98-0.745-0.31-1.555-0.47-2.38-0.47z"></path>
<path d="M13.135 28.12c-0.145 0-0.28-0.065-0.375-0.18l-9.495-11.655c-0.17-0.21-0.14-0.515 0.070-0.68 0.21-0.17 0.515-0.135 0.68 0.070l8.66 10.635 0.31-13.745c0.005-0.265 0.22-0.475 0.485-0.475h0.010c0.27 0.005 0.48 0.23 0.475 0.495l-0.34 15.060c-0.005 0.205-0.135 0.38-0.33 0.45-0.045 0.015-0.1 0.025-0.15 0.025z"></path>
<path d="M4.825 17.92c-0.235 0-0.44-0.17-0.48-0.405-0.040-0.265 0.14-0.515 0.405-0.555l8.57-1.39c0.265-0.045 0.515 0.135 0.555 0.4 0.045 0.265-0.135 0.515-0.4 0.555l-8.57 1.39c-0.025 0.005-0.055 0.005-0.080 0.005z"></path>
<path d="M6.445 19.91c-0.235 0-0.44-0.17-0.48-0.405-0.045-0.265 0.135-0.515 0.4-0.555l6.895-1.12c0.265-0.045 0.515 0.135 0.555 0.4 0.045 0.265-0.135 0.515-0.4 0.555l-6.895 1.12c-0.020 0-0.050 0.005-0.075 0.005z"></path>
<path d="M8.065 21.895c-0.235 0-0.44-0.17-0.48-0.405-0.045-0.265 0.135-0.515 0.4-0.555l5.225-0.85c0.265-0.045 0.515 0.135 0.555 0.4 0.045 0.265-0.135 0.515-0.4 0.555l-5.225 0.85c-0.025 0.005-0.050 0.005-0.075 0.005z"></path>
<path d="M9.68 23.885c-0.235 0-0.44-0.17-0.48-0.405-0.045-0.265 0.135-0.515 0.4-0.555l3.56-0.58c0.265-0.045 0.515 0.135 0.555 0.4 0.045 0.265-0.135 0.515-0.4 0.555l-3.56 0.58c-0.020 0.005-0.050 0.005-0.075 0.005z"></path>
</svg>
