<!-- Generated by IcoMoon.io -->
<svg version="1.1" xmlns="http://www.w3.org/2000/svg" width="32" height="32" viewBox="0 0 32 32">
<title>earth</title>
<path d="M2.699 16.883c0.013 0.194 0.028 0.387 0.050 0.579 0.006 0.057 0.015 0.114 0.021 0.172 0.023 0.187 0.049 0.373 0.079 0.557 0.011 0.063 0.022 0.126 0.034 0.188 0.032 0.174 0.066 0.348 0.104 0.519 0.008 0.037 0.014 0.075 0.023 0.112l0.213 0.924 0.037-0.002c0.241 0.778 0.554 1.523 0.926 2.233l-0.044 0.030 0.573 0.907c1.594 2.525 3.957 4.409 6.697 5.41 0.011 0.004 0.022 0.008 0.033 0.012 0.193 0.070 0.387 0.137 0.584 0.198 0.074 0.023 0.149 0.042 0.224 0.064 0.138 0.040 0.274 0.082 0.413 0.118 0.228 0.059 0.459 0.11 0.692 0.157 0.011 0.002 0.023 0.004 0.034 0.006 0.225 0.045 0.452 0.083 0.681 0.117 0.003 0.001 0.005 0.001 0.008 0.001l1.046 0.149 0.008-0.041c0.284 0.018 0.57 0.031 0.858 0.031 2.324 0 4.509-0.599 6.413-1.648l0.022 0.007 0.425-0.255c3.402-2.047 5.646-5.391 6.279-9.205 0.017-0.099 0.034-0.198 0.048-0.297 0.019-0.128 0.035-0.257 0.049-0.386 0.018-0.153 0.032-0.306 0.045-0.461 0.008-0.098 0.017-0.197 0.023-0.296 0.015-0.26 0.025-0.523 0.025-0.787 0-3.686-1.469-7.115-4.138-9.656l-0.382-0.364-0.030 0.004c-2.347-2.059-5.418-3.311-8.778-3.311-1.399 0-2.749 0.218-4.017 0.62l-0.012-0.005-0.405 0.142c-0.024 0.008-0.047 0.020-0.070 0.028-0.264 0.095-0.523 0.198-0.779 0.309-0.105 0.045-0.208 0.093-0.311 0.14-0.169 0.079-0.336 0.161-0.502 0.246-0.184 0.095-0.366 0.194-0.544 0.298-0.12 0.069-0.239 0.139-0.357 0.212-0.142 0.088-0.283 0.177-0.421 0.27-0.075 0.051-0.148 0.104-0.223 0.156-0.248 0.174-0.488 0.354-0.722 0.544-0.071 0.057-0.14 0.114-0.209 0.172-0.229 0.193-0.45 0.393-0.665 0.6-0.067 0.064-0.135 0.127-0.2 0.192-0.114 0.115-0.226 0.233-0.335 0.352-0.093 0.1-0.183 0.202-0.273 0.305-0.126 0.145-0.249 0.291-0.369 0.441-0.121 0.152-0.239 0.305-0.354 0.463-0.066 0.090-0.131 0.181-0.194 0.272-0.155 0.224-0.305 0.452-0.447 0.685-0.025 0.041-0.048 0.084-0.072 0.125-0.137 0.232-0.267 0.469-0.389 0.709-0.024 0.047-0.048 0.092-0.072 0.139-0.138 0.278-0.267 0.561-0.386 0.849-0.009 0.022-0.017 0.044-0.026 0.066-0.119 0.292-0.228 0.59-0.326 0.892-0.003 0.011-0.007 0.021-0.010 0.032-0.099 0.307-0.186 0.619-0.263 0.936-0.008 0.034-0.015 0.068-0.024 0.103-0.073 0.31-0.137 0.624-0.187 0.943-0.001 0.003-0.001 0.007-0.002 0.010-0.049 0.309-0.084 0.623-0.111 0.939-0.006 0.066-0.011 0.131-0.015 0.197-0.021 0.314-0.036 0.629-0.036 0.947 0 0.245 0.008 0.489 0.021 0.732 0.003 0.052 0.008 0.104 0.012 0.157zM12.872 26.647c-0.098-0.029-0.197-0.057-0.294-0.088-0.281-0.091-0.557-0.191-0.828-0.304-0.032-0.013-0.065-0.025-0.096-0.038-1.319-0.562-2.508-1.371-3.507-2.371-0.001-0.001-0.002-0.002-0.003-0.003-0.295-0.295-0.568-0.611-0.829-0.938 0.466-0.162 0.958-0.246 1.46-0.246 2.325 0 4.239 1.795 4.427 4.073-0.11-0.028-0.222-0.053-0.33-0.085zM24.024 8.342c0.18 0.188 0.358 0.376 0.524 0.577 0.006 0.007 0.012 0.014 0.018 0.021 1.118 1.356 1.919 2.981 2.294 4.761 0.005 0.023 0.012 0.047 0.017 0.070 0.063 0.309 0.108 0.625 0.145 0.943 0.006 0.055 0.018 0.109 0.023 0.164 0.037 0.367 0.056 0.74 0.056 1.117 0 0.351-0.020 0.699-0.053 1.042-0.004 0.051-0.009 0.102-0.014 0.153-0.038 0.351-0.089 0.698-0.159 1.037-0.001 0.003-0.001 0.005-0.002 0.008-0.591 2.873-2.295 5.343-4.64 6.941-0.317-0.309-0.687-0.996-0.687-2.517 0-2.636-2.906-3.332-4.43-3.332-0.512-0.013-1.124-0.216-1.124-1.111s0.611-1.098 1.111-1.111c1.537 0 4.443-1.161 4.443-5.553 0-2.107 1.246-2.92 2.476-3.21zM14.283 5.034c0.559-0.087 1.129-0.146 1.712-0.146 2.249 0 4.341 0.676 6.091 1.83-1.359 0.699-2.759 2.082-2.759 4.834 0 3.109-1.863 3.321-2.221 3.332-1.339 0-3.332 0.888-3.332 3.332s1.993 3.332 3.328 3.332c0.022 0 2.225 0.061 2.225 1.111 0 1.732 0.411 2.856 0.925 3.591-1.312 0.547-2.749 0.851-4.257 0.851-0.188 0-0.371-0.019-0.557-0.028-0.015-3.661-2.997-6.636-6.662-6.636-0.932 0-1.84 0.197-2.68 0.566-0.227-0.447-0.423-0.91-0.589-1.388 1.728-0.528 2.884-1.665 2.944-1.725 0.082-0.081 1.991-2.022 1.991-4.673 0-1.296 1.134-1.639 1.38-1.699 1.059-0.265 3.062-1.527 3.062-4.409 0-0.766-0.215-1.47-0.601-2.075zM4.939 14.981c0.010-0.107 0.024-0.214 0.037-0.32 0.028-0.232 0.063-0.462 0.105-0.689 0.021-0.113 0.041-0.225 0.065-0.337 0.061-0.28 0.132-0.557 0.214-0.83 0.023-0.078 0.048-0.155 0.073-0.232 0.086-0.264 0.181-0.524 0.286-0.78 0.042-0.102 0.088-0.202 0.133-0.303 0.094-0.211 0.194-0.419 0.301-0.624 0.044-0.085 0.088-0.17 0.134-0.254 0.326-0.585 0.7-1.14 1.123-1.655 0.018-0.023 0.038-0.044 0.057-0.067 0.206-0.246 0.422-0.485 0.648-0.713 0.018-0.019 0.037-0.037 0.055-0.056 0.732-0.728 1.566-1.354 2.477-1.856 0.043-0.023 0.086-0.046 0.128-0.069 0.26-0.139 0.526-0.267 0.797-0.385 0.051-0.022 0.101-0.046 0.152-0.068 0.048-0.020 0.098-0.034 0.147-0.054 0.415 0.267 0.791 0.705 0.791 1.421 0 1.769-1.164 2.192-1.349 2.247-1.070 0.236-3.093 1.345-3.093 3.861 0 1.716-1.331 3.092-1.337 3.098-0.010 0.010-0.783 0.757-1.889 1.133-0.009-0.066-0.023-0.13-0.030-0.197-0.010-0.087-0.018-0.175-0.026-0.263-0.029-0.328-0.050-0.659-0.050-0.995 0-0.342 0.021-0.679 0.051-1.014z"></path>
</svg>
