<!-- Generated by IcoMoon.io -->
<svg version="1.1" xmlns="http://www.w3.org/2000/svg" width="32" height="32" viewBox="0 0 32 32">
<title>equalizer-line</title>
<path d="M8.228 24c0.549-1.554 2.031-2.667 3.772-2.667s3.223 1.113 3.772 2.667h13.561v2.667h-13.561c-0.549 1.554-2.031 2.667-3.772 2.667s-3.223-1.113-3.772-2.667h-5.561v-2.667h5.561zM16.228 14.666c0.549-1.554 2.031-2.667 3.772-2.667s3.223 1.113 3.772 2.667h5.561v2.667h-5.561c-0.549 1.554-2.031 2.667-3.772 2.667s-3.223-1.113-3.772-2.667h-13.561v-2.667h13.561zM8.228 5.333c0.549-1.554 2.031-2.667 3.772-2.667s3.223 1.113 3.772 2.667h13.561v2.667h-13.561c-0.549 1.554-2.031 2.667-3.772 2.667s-3.223-1.113-3.772-2.667h-5.561v-2.667h5.561zM12.001 8c0.736 0 1.333-0.597 1.333-1.333s-0.597-1.333-1.333-1.333c-0.736 0-1.333 0.597-1.333 1.333s0.597 1.333 1.333 1.333zM20 17.333c0.736 0 1.333-0.597 1.333-1.333s-0.597-1.333-1.333-1.333c-0.736 0-1.333 0.597-1.333 1.333s0.597 1.333 1.333 1.333zM12.001 26.666c0.736 0 1.333-0.597 1.333-1.333s-0.597-1.333-1.333-1.333-1.333 0.597-1.333 1.333c0 0.736 0.597 1.333 1.333 1.333z"></path>
</svg>
