<!-- Generated by IcoMoon.io -->
<svg version="1.1" xmlns="http://www.w3.org/2000/svg" width="32" height="32" viewBox="0 0 32 32">
<title>eye1</title>
<path d="M31.761 14.908c-1.171-2.56-5.761-10.908-15.761-10.908s-14.591 8.348-15.761 10.908c-0.157 0.343-0.238 0.716-0.238 1.093s0.081 0.75 0.238 1.093c1.171 2.557 5.761 10.905 15.761 10.905s14.591-8.348 15.761-10.908c0.157-0.343 0.238-0.715 0.238-1.092s-0.081-0.749-0.238-1.092zM16 25.333c-8.409 0-12.333-7.155-13.333-9.319 1-2.193 4.924-9.348 13.333-9.348 8.389 0 12.315 7.124 13.333 9.333-1.019 2.209-4.944 9.333-13.333 9.333z"></path>
<path d="M16 9.334c-1.319 0-2.607 0.391-3.704 1.124s-1.951 1.774-2.455 2.992c-0.505 1.218-0.637 2.559-0.379 3.852s0.892 2.481 1.825 3.413c0.932 0.932 2.12 1.567 3.413 1.825s2.634 0.125 3.852-0.379c1.218-0.505 2.259-1.359 2.992-2.456s1.124-2.385 1.124-3.704c-0.002-1.768-0.705-3.462-1.955-4.712s-2.944-1.953-4.712-1.955zM16 20c-0.791 0-1.564-0.235-2.222-0.674s-1.17-1.064-1.473-1.795c-0.303-0.731-0.382-1.535-0.228-2.311s0.535-1.489 1.095-2.048c0.559-0.559 1.272-0.94 2.048-1.095s1.58-0.075 2.311 0.228c0.731 0.303 1.356 0.815 1.795 1.473s0.674 1.431 0.674 2.222c0 1.061-0.421 2.078-1.172 2.828s-1.768 1.172-2.828 1.172z"></path>
</svg>
