<!-- Generated by IcoMoon.io -->
<svg version="1.1" xmlns="http://www.w3.org/2000/svg" width="32" height="32" viewBox="0 0 32 32">
<title>fast-delivery</title>
<path d="M11.992 5.948c-3.615 0-6.545 2.93-6.545 6.545s2.93 6.545 6.545 6.545 6.545-2.93 6.545-6.545c0-3.615-2.93-6.545-6.545-6.545zM4.509 12.493c0-4.133 3.35-7.483 7.483-7.483s7.483 3.35 7.483 7.483c0 4.133-3.35 7.483-7.483 7.483s-7.483-3.35-7.483-7.483zM11.992 7.014c0.259 0 0.469 0.21 0.469 0.469v0.501c0 0.259-0.21 0.469-0.469 0.469s-0.469-0.21-0.469-0.469v-0.501c0-0.259 0.21-0.469 0.469-0.469zM15.83 8.654c0.183 0.183 0.183 0.48 0 0.663l-2.521 2.521c0.098 0.197 0.153 0.419 0.153 0.655 0 0.812-0.659 1.471-1.471 1.471-0.235 0-0.457-0.055-0.655-0.153l-1.018 1.018c-0.183 0.183-0.48 0.183-0.663 0s-0.183-0.48 0-0.663l1.018-1.018c-0.098-0.197-0.153-0.419-0.153-0.654 0-0.812 0.658-1.471 1.471-1.471 0.235 0 0.457 0.055 0.655 0.153l2.521-2.521c0.183-0.183 0.48-0.183 0.663 0zM20.541 11.491c0-0.259 0.21-0.469 0.469-0.469h3.267c0.27 0 0.529 0.114 0.693 0.339 0.144 0.196 0.185 0.435 0.146 0.663h3.638c0.332 0 0.645 0.113 0.878 0.336 0.234 0.225 0.358 0.534 0.36 0.868l0.022 4.533 1.499 1.072c0.445 0.318 0.57 0.863 0.436 1.362l-0.114 0.425c-0.002 0.006-0.003 0.013-0.005 0.019l-0.803 2.996c0 0 0 0 0 0-0.2 0.748-0.947 1.35-1.723 1.35h-0.166c-0.47 1.136-1.667 2.004-2.876 2.004-0.685 0-1.274-0.282-1.638-0.779-0.254-0.347-0.379-0.771-0.368-1.225h-2.958c-0.006 0-0.012 0-0.019 0h-7.672c-0.47 1.136-1.667 2.004-2.876 2.004-0.685 0-1.274-0.282-1.638-0.779-0.254-0.347-0.379-0.771-0.368-1.225h-1.966c-0.27 0-0.529-0.114-0.693-0.339-0.163-0.222-0.194-0.499-0.126-0.752l0.94-3.507c0.067-0.25 0.324-0.398 0.574-0.331s0.398 0.324 0.331 0.574l-0.916 3.418h2.060c0.47-1.136 1.667-2.004 2.876-2.004 0.685 0 1.274 0.282 1.638 0.779 0.254 0.347 0.379 0.772 0.368 1.225h7.117l0.978-3.651c0.002-0.007 0.003-0.013 0.005-0.019l2.142-7.996c0.002-0.007 0.004-0.014 0.006-0.021l0.107-0.401h-3.157c-0.259 0-0.469-0.21-0.469-0.469zM24.869 12.962l-1.897 7.079h5.401c0.259 0 0.469 0.21 0.469 0.469s-0.21 0.469-0.469 0.469h-5.652l-0.823 3.071h2.561c0.469-1.136 1.667-2.004 2.876-2.004 0.685 0 1.274 0.282 1.638 0.779 0.254 0.347 0.378 0.771 0.368 1.224 0.322-0.021 0.687-0.308 0.779-0.653l0.647-2.416h-0.391c-0.259 0-0.469-0.21-0.469-0.469s0.21-0.469 0.469-0.469h0.642l0.023-0.087c0.055-0.205-0.014-0.312-0.076-0.357h-0l-1.572-1.124h-3.357c-0.409 0-0.777-0.17-1.008-0.485-0.229-0.313-0.283-0.714-0.178-1.107 0 0 0 0 0 0l0.403-1.503c0.2-0.748 0.947-1.349 1.723-1.349h2.080l-0.004-0.795c-0-0.101-0.035-0.162-0.072-0.197-0.038-0.036-0.109-0.075-0.228-0.075h-3.885zM29.062 14.966h-2.084c-0.331 0-0.722 0.296-0.818 0.655 0 0 0 0 0 0l-0.403 1.503c-0.043 0.161-0.007 0.261 0.029 0.31 0.035 0.047 0.107 0.102 0.252 0.102h3.036l-0.012-2.57zM9.716 24.638c-0.117 0.438-0.036 0.788 0.133 1.019 0.167 0.229 0.46 0.395 0.882 0.395 0.884 0 1.844-0.745 2.088-1.657 0.117-0.438 0.036-0.788-0.133-1.019-0.167-0.229-0.46-0.395-0.882-0.395-0.884 0-1.844 0.745-2.088 1.657zM25.247 24.638c-0.117 0.438-0.036 0.788 0.133 1.019 0.167 0.229 0.46 0.395 0.882 0.395 0.884 0 1.844-0.745 2.088-1.657 0.117-0.438 0.036-0.788-0.133-1.019-0.167-0.229-0.46-0.395-0.882-0.395-0.884 0-1.844 0.745-2.088 1.657zM11.992 11.96c-0.295 0-0.533 0.239-0.533 0.533s0.239 0.533 0.533 0.533 0.533-0.239 0.533-0.533c0-0.295-0.239-0.533-0.533-0.533zM6.513 12.493c0-0.259 0.21-0.469 0.469-0.469h0.501c0.259 0 0.469 0.21 0.469 0.469s-0.21 0.469-0.469 0.469h-0.501c-0.259 0-0.469-0.21-0.469-0.469zM16.032 12.493c0-0.259 0.21-0.469 0.469-0.469h0.501c0.259 0 0.469 0.21 0.469 0.469s-0.21 0.469-0.469 0.469h-0.501c-0.259 0-0.469-0.21-0.469-0.469zM11.992 16.533c0.259 0 0.469 0.21 0.469 0.469v0.501c0 0.259-0.21 0.469-0.469 0.469s-0.469-0.21-0.469-0.469v-0.501c0-0.259 0.21-0.469 0.469-0.469zM0 19.006c0-0.259 0.21-0.469 0.469-0.469h5.010c0.259 0 0.469 0.21 0.469 0.469s-0.21 0.469-0.469 0.469h-5.010c-0.259 0-0.469-0.21-0.469-0.469zM1.503 21.010c0-0.259 0.21-0.469 0.469-0.469h3.006c0.259 0 0.469 0.21 0.469 0.469s-0.21 0.469-0.469 0.469h-3.006c-0.259 0-0.469-0.21-0.469-0.469zM3.006 23.014c0-0.259 0.21-0.469 0.469-0.469h1.002c0.259 0 0.469 0.21 0.469 0.469s-0.21 0.469-0.469 0.469h-1.002c-0.259 0-0.469-0.21-0.469-0.469zM10.798 24.517c0-0.259 0.21-0.469 0.469-0.469h0.005c0.259 0 0.469 0.21 0.469 0.469s-0.21 0.469-0.469 0.469h-0.005c-0.259 0-0.469-0.21-0.469-0.469zM26.33 24.517c0-0.259 0.21-0.469 0.469-0.469h0.005c0.259 0 0.469 0.21 0.469 0.469s-0.21 0.469-0.469 0.469h-0.005c-0.259 0-0.469-0.21-0.469-0.469z"></path>
</svg>
