<!-- Generated by IcoMoon.io -->
<svg version="1.1" xmlns="http://www.w3.org/2000/svg" width="32" height="32" viewBox="0 0 32 32">
<title>gluten-free</title>
<path d="M30.559 1.938v2.813h-0.938v-2.813h0.938z"></path>
<path d="M21.184 1.938v2.813h-0.938v-2.813h0.938z"></path>
<path d="M30.559 3.775v3.26c0 1.661-0.755 3.232-2.052 4.27 0 0 0 0 0 0l-3.573 2.858v-3.26c0-1.661 0.755-3.232 2.052-4.27 0 0 0 0 0 0l3.573-2.858zM29.622 5.725l-2.050 1.64c-1.075 0.86-1.7 2.161-1.7 3.538v1.309l2.050-1.64c1.075-0.86 1.7-2.161 1.7-3.538v-1.309z"></path>
<path d="M30.559 8.462v3.26c0 1.661-0.755 3.232-2.052 4.27 0 0 0 0 0 0l-3.573 2.858v-3.26c0-1.661 0.755-3.232 2.052-4.27 0 0 0 0 0 0l3.573-2.858zM29.622 10.413l-2.050 1.64c-1.075 0.86-1.7 2.161-1.7 3.538v1.309l2.050-1.64c1.075-0.86 1.7-2.161 1.7-3.538v-1.309z"></path>
<path d="M30.559 13.15v3.26c0 1.661-0.755 3.232-2.052 4.27l-3.573 2.858v-3.26c0-1.661 0.755-3.232 2.052-4.27 0 0 0 0 0 0l3.573-2.858zM29.622 15.1l-2.050 1.64c-1.075 0.86-1.7 2.161-1.7 3.538v1.309l2.050-1.64c1.075-0.86 1.7-2.161 1.7-3.538v-1.309z"></path>
<path d="M20.247 3.775l3.573 2.858c0 0 0 0 0 0 1.297 1.038 2.052 2.609 2.052 4.27v3.26l-3.573-2.858c0 0 0 0 0 0-1.297-1.038-2.052-2.609-2.052-4.27v-3.26zM21.184 5.725v1.309c0 1.376 0.626 2.678 1.7 3.538l2.050 1.64v-1.309c0-1.376-0.626-2.678-1.7-3.538l-2.050-1.64z"></path>
<path d="M20.247 8.462l3.573 2.858c0 0 0 0 0 0 1.297 1.038 2.052 2.609 2.052 4.27v3.26l-3.573-2.858c0 0 0 0 0 0-1.297-1.038-2.052-2.609-2.052-4.27v-3.26zM21.184 10.413v1.309c0 1.376 0.626 2.678 1.7 3.538l2.050 1.64v-1.309c0-1.376-0.626-2.678-1.7-3.538l-2.050-1.64z"></path>
<path d="M20.247 13.15l3.573 2.858c0 0 0 0 0 0 1.297 1.038 2.052 2.609 2.052 4.27v3.26l-3.573-2.858c0 0 0 0 0 0-1.297-1.038-2.052-2.609-2.052-4.27v-3.26zM21.184 15.1v1.31c0 1.376 0.626 2.678 1.7 3.538l2.050 1.64v-1.309c0-1.376-0.626-2.678-1.7-3.538l-2.050-1.64z"></path>
<path d="M30.559 17.837v3.26c0 1.661-0.755 3.232-2.052 4.27l-3.573 2.858v-3.26c0-1.661 0.755-3.232 2.052-4.27 0 0 0 0 0 0l3.573-2.858zM29.622 19.788l-2.050 1.64c-1.075 0.86-1.7 2.161-1.7 3.538v1.309l2.050-1.64c1.075-0.86 1.7-2.161 1.7-3.538v-1.309z"></path>
<path d="M20.247 17.837l3.573 2.858c0 0 0 0 0 0 1.297 1.038 2.052 2.609 2.052 4.27v3.26l-3.573-2.858c0 0 0 0 0 0-1.297-1.038-2.052-2.609-2.052-4.27v-3.26zM21.184 19.788v1.309c0 1.376 0.626 2.678 1.7 3.538l2.050 1.64v-1.309c0-1.376-0.626-2.678-1.7-3.538l-2.050-1.64z"></path>
<path d="M27.748 1.938v5.062h-0.938v-5.062h0.938z"></path>
<path d="M23.997 0v6.999h-0.938v-6.999h0.938z"></path>
<path d="M24.934 32v-9.438h0.938v9.438h-0.938z"></path>
<path d="M19.296 8.5v2.813h-0.938v-2.813h0.938z"></path>
<path d="M9.921 8.5v2.813h-0.938v-2.813h0.938z"></path>
<path d="M19.296 10.337v3.26c0 1.661-0.755 3.232-2.052 4.27 0 0 0 0 0 0l-3.573 2.858v-3.26c0-1.661 0.755-3.232 2.052-4.27 0 0 0 0 0 0l3.573-2.858zM18.358 12.288l-2.050 1.64c-1.075 0.86-1.7 2.161-1.7 3.538v1.309l2.050-1.64c1.075-0.86 1.7-2.161 1.7-3.538v-1.309z"></path>
<path d="M19.296 15.025v3.26c0 1.661-0.755 3.232-2.052 4.27 0 0 0 0 0 0l-3.573 2.858v-3.26c0-1.661 0.755-3.232 2.052-4.27 0 0 0 0 0 0l3.573-2.858zM18.358 16.975l-2.050 1.64c-1.075 0.86-1.7 2.161-1.7 3.538v1.31l2.050-1.64c1.075-0.86 1.7-2.161 1.7-3.538v-1.309z"></path>
<path d="M19.296 19.712v3.26c0 1.661-0.755 3.232-2.052 4.27 0 0 0 0 0 0l-3.573 2.858v-3.26c0-1.661 0.755-3.232 2.052-4.27 0 0 0 0 0 0l3.573-2.858zM18.358 21.663l-2.050 1.64c-1.075 0.86-1.7 2.161-1.7 3.538v1.309l2.050-1.64c1.075-0.86 1.7-2.161 1.7-3.538v-1.309z"></path>
<path d="M8.983 10.337l3.573 2.858c0 0 0 0 0 0 1.297 1.038 2.052 2.609 2.052 4.27v3.26l-3.573-2.858c0 0 0 0 0 0-1.297-1.038-2.052-2.609-2.052-4.27v-3.26zM9.921 12.288v1.309c0 1.376 0.626 2.678 1.7 3.538l2.050 1.64v-1.309c0-1.376-0.626-2.678-1.7-3.538l-2.050-1.64z"></path>
<path d="M8.983 15.025l3.573 2.858c0 0 0 0 0 0 1.297 1.038 2.052 2.609 2.052 4.27h-0.938c0-1.376-0.626-2.678-1.7-3.538l-2.050-1.64v1.309c0 0.344 0.039 0.683 0.115 1.012l-0.914 0.21c-0.091-0.397-0.138-0.807-0.138-1.222v-3.26z"></path>
<path d="M16.484 6.625v6.937h-0.938v-6.937h0.938z"></path>
<path d="M12.733 8.5v5.062h-0.938v-5.062h0.938z"></path>
<path d="M13.671 32v-2.875h0.938v2.875h-0.938z"></path>
<path d="M1.441 25.374c0-3.647 2.957-6.604 6.605-6.604s6.605 2.957 6.605 6.605c0 3.648-2.957 6.605-6.604 6.605-0 0-0.001 0-0.001 0v-0.469l0.002 0.469c-0 0-0.001 0-0.001 0-3.628 0.012-6.618-2.982-6.606-6.606zM1.441 25.374c0 0 0 0.001 0 0.001h0.469l-0.469-0.002c0 0 0 0.001 0 0.001zM8.046 19.708c-3.13 0-5.668 2.537-5.668 5.668v0.002c-0.011 3.105 2.558 5.677 5.666 5.666h0.002c3.13 0 5.668-2.537 5.668-5.668s-2.537-5.668-5.668-5.668z"></path>
<path d="M3.358 25.374c0-2.588 2.099-4.687 4.688-4.687 0.917 0 1.773 0.265 2.495 0.72l0.497 0.313-6.644 6.644-0.313-0.495c-0.458-0.724-0.725-1.581-0.722-2.495zM8.046 21.625c-2.071 0-3.75 1.679-3.75 3.75v0.002c-0.002 0.517 0.105 1.011 0.298 1.462l4.916-4.916c-0.45-0.191-0.944-0.297-1.464-0.297z"></path>
<path d="M11.7 22.383l0.313 0.497c0.455 0.723 0.72 1.578 0.72 2.495 0 2.589-2.098 4.687-4.687 4.688-0.915 0.003-1.771-0.264-2.495-0.722l-0.495-0.313 6.644-6.644zM6.582 28.827c0.451 0.193 0.945 0.3 1.462 0.298h0.002c2.071 0 3.75-1.679 3.75-3.75 0-0.52-0.106-1.014-0.297-1.464l-4.916 4.916z"></path>
</svg>
