<!-- Generated by IcoMoon.io -->
<svg version="1.1" xmlns="http://www.w3.org/2000/svg" width="36" height="32" viewBox="0 0 36 32">
<title>grid1</title>
<path d="M34.2 0c0.477 0 0.935 0.187 1.273 0.521s0.527 0.786 0.527 1.257v28.444c0 0.472-0.19 0.924-0.527 1.257s-0.795 0.521-1.273 0.521h-32.4c-0.477 0-0.935-0.187-1.273-0.521s-0.527-0.786-0.527-1.257v-28.444c0-0.472 0.19-0.924 0.527-1.257s0.795-0.521 1.273-0.521h32.4zM16.2 17.778h-12.6v10.667h12.6v-10.667zM32.4 17.778h-12.6v10.667h12.6v-10.667zM16.2 3.556h-12.6v10.667h12.6v-10.667zM32.4 3.556h-12.6v10.667h12.6v-10.667z"></path>
</svg>
