<!-- Generated by IcoMoon.io -->
<svg version="1.1" xmlns="http://www.w3.org/2000/svg" width="32" height="32" viewBox="0 0 32 32">
<title>ice-cream</title>
<path d="M18.925 15.754c-0.932-0.001-1.835 0.328-2.549 0.928-1.554-1.344-4.037-1.202-5.437 0.316-1.578 1.644-1.578 4.318 0 5.961l4.838 5.039c0.078 0.080 0.171 0.143 0.274 0.186s0.213 0.065 0.325 0.065c0.112 0 0.222-0.022 0.325-0.065s0.196-0.106 0.274-0.186l4.838-5.039c2.527-2.469 0.712-7.285-2.888-7.206zM21.135 22.309l-4.76 4.958-4.76-4.958c-1.233-1.285-1.233-3.375 0-4.66 1.167-1.266 3.253-1.266 4.42 0 0.044 0.046 0.096 0.082 0.155 0.107s0.121 0.038 0.184 0.038 0.126-0.013 0.184-0.038c0.058-0.025 0.111-0.061 0.155-0.107 0.284-0.302 0.627-0.542 1.008-0.706s0.79-0.249 1.205-0.25c2.794-0.051 4.168 3.709 2.212 5.615h-0.002z"></path>
<path d="M27.506 28.708c1.004-2.706 1.781-5.49 2.324-8.325 0.546-2.865 0.85-5.771 0.908-8.687-0.021-0.569-0.584-0.494-0.993-0.412-2.262-15.081-24.551-15.028-26.741 0.056-0.473-0.034-1.354-0.385-1.404 0.352 0.047 4.053 0.589 8.086 1.615 12.008 0.72 2.75 1.671 5.434 2.843 8.024 0.037 0.082 0.097 0.152 0.173 0.201s0.164 0.075 0.255 0.075h19.366c0.091-0 0.18-0.026 0.256-0.076s0.136-0.12 0.173-0.203c0.441-0.991 0.849-1.995 1.225-3.012zM28.517 22.063c-0.549 2.387-1.27 4.732-2.155 7.015-2.889-0.986-3.077-5.117-0.038-6.016 0.060-0.018 0.117-0.048 0.165-0.088s0.089-0.090 0.118-0.146 0.047-0.117 0.052-0.18c0.005-0.063-0.002-0.126-0.022-0.186-0.657-1.809 0.666-3.84 2.572-4.016-0.186 1.213-0.417 2.419-0.692 3.617zM16.378 0.869c6.311 0 11.684 4.593 12.435 10.537-8.258 1.042-16.613 1.059-24.876 0.052 0.726-5.973 6.101-10.589 12.441-10.589zM5.771 20.73c0.142 0.571 0.117 1.172-0.073 1.729-0.020 0.060-0.027 0.123-0.022 0.186s0.023 0.124 0.052 0.18c0.029 0.056 0.069 0.105 0.118 0.145s0.105 0.070 0.165 0.088c3.049 0.902 2.847 5.050-0.054 6.023-1.354-3.428-2.316-6.999-2.869-10.643 1.272 0.122 2.388 1.056 2.682 2.291zM25.545 31.060h-18.755c-0.164-0.367-0.323-0.736-0.477-1.107 3.5-1.194 3.915-6.201 0.399-7.642 0.567-2.353-1.343-4.767-3.758-4.823-0.23-1.745-0.365-3.502-0.405-5.262 9.038 1.217 18.199 1.217 27.237 0-0.054 1.76-0.199 3.516-0.435 5.262-2.389 0.069-4.293 2.48-3.724 4.82-3.513 1.441-3.102 6.439 0.388 7.642-0.152 0.372-0.308 0.742-0.469 1.111z"></path>
<path d="M11.271 6.052c1.742-0.046 1.742-2.596 0-2.642-1.742 0.046-1.742 2.596 0 2.642zM11.271 4.349c0.501 0 0.501 0.76 0 0.763s-0.498-0.76 0-0.763z"></path>
<path d="M21.389 7.923c0.066 2.524 3.761 2.523 3.827 0-0.066-2.523-3.761-2.523-3.827 0zM24.277 7.923c-0.034 1.285-1.914 1.284-1.948 0 0.034-1.285 1.915-1.284 1.948 0z"></path>
<path d="M18.313 4.761c2.168-0.057 2.168-3.232 0-3.288-2.168 0.057-2.168 3.232 0 3.288zM18.313 2.412c0.926 0.016 0.926 1.393 0 1.409-0.926-0.016-0.926-1.393 0-1.409z"></path>
<path d="M13.544 8.143c-2.168 0.057-2.168 3.232 0 3.288 2.169-0.057 2.168-3.233 0-3.288zM13.544 10.492c-0.926-0.017-0.926-1.393 0-1.409 0.926 0.016 0.926 1.393 0 1.409z"></path>
<path d="M7.17 8.686l-1.498 0.908c-0.055 0.031-0.103 0.072-0.142 0.122s-0.067 0.107-0.083 0.168c-0.016 0.061-0.020 0.125-0.011 0.187s0.030 0.122 0.063 0.176c0.033 0.054 0.076 0.101 0.127 0.138s0.109 0.063 0.171 0.077c0.061 0.014 0.125 0.015 0.187 0.004s0.121-0.035 0.174-0.069l1.498-0.908c0.523-0.32 0.040-1.12-0.487-0.804z"></path>
<path d="M12.035 6.965c-0.094-0.082-0.216-0.124-0.34-0.116s-0.24 0.065-0.322 0.159l-1.634 1.861c-0.082 0.094-0.124 0.216-0.116 0.34s0.065 0.24 0.159 0.323c0.094 0.082 0.216 0.124 0.34 0.116s0.24-0.065 0.323-0.159l1.635-1.862c0.082-0.094 0.123-0.216 0.115-0.34s-0.065-0.24-0.159-0.322z"></path>
<path d="M14.65 4.023c-0.387-0.476-1.115 0.11-0.731 0.59l1.089 1.35c0.389 0.477 1.115-0.11 0.732-0.59l-1.090-1.35z"></path>
<path d="M18.595 7.148l-1.639 1.725c-0.288 0.282-0.056 0.807 0.341 0.793 0.064 0 0.127-0.013 0.185-0.038s0.111-0.062 0.155-0.108l1.639-1.725c0.421-0.447-0.256-1.091-0.681-0.647z"></path>
<path d="M20.758 5.518c0.019 0 0.039 0 0.059 0l2.544-0.318c0.608-0.078 0.494-1.006-0.117-0.932l-2.544 0.318c-0.574 0.067-0.518 0.935 0.058 0.933z"></path>
<path d="M24.688 10.916c0.072 0.102 0.181 0.171 0.304 0.192s0.249-0.007 0.351-0.079l1.816-1.279c0.051-0.035 0.095-0.080 0.129-0.132s0.057-0.111 0.068-0.172c0.011-0.061 0.010-0.124-0.004-0.185s-0.039-0.118-0.075-0.169-0.081-0.094-0.134-0.127c-0.053-0.033-0.111-0.055-0.173-0.066s-0.124-0.008-0.185 0.006c-0.061 0.014-0.118 0.040-0.168 0.077l-1.816 1.279c-0.102 0.072-0.171 0.181-0.192 0.304s0.007 0.249 0.079 0.351z"></path>
<path d="M9.075 3.871c-0.055-0.028-0.115-0.044-0.177-0.048s-0.123 0.004-0.182 0.023-0.113 0.051-0.159 0.091c-0.046 0.041-0.084 0.090-0.112 0.145l-0.643 1.29c-0.029 0.055-0.047 0.116-0.053 0.179s0.001 0.125 0.021 0.185c0.019 0.060 0.050 0.115 0.091 0.163s0.091 0.087 0.147 0.114c0.056 0.028 0.117 0.044 0.18 0.048s0.125-0.005 0.185-0.025 0.114-0.053 0.16-0.095c0.047-0.042 0.084-0.093 0.111-0.15l0.643-1.289c0.028-0.055 0.044-0.115 0.049-0.177s-0.003-0.124-0.023-0.182c-0.020-0.059-0.051-0.113-0.091-0.16s-0.090-0.085-0.146-0.112z"></path>
</svg>
