<svg xmlns="http://www.w3.org/2000/svg" width="32" height="32"><path d="M17.082.081c-.064.044-.231.276-.372.514-.302.509-.923 1.199-1.189 1.319-.155.07-.509.089-2.056.112l-1.868.027-.372.183c-1.141.562-1.605 1.88-1.052 2.995l.147.297-.298.087c-1.278.376-1.953 1.849-1.394 3.042l.166.356H8.22c-.743 0-1.007.087-1.371.451a1.468 1.468 0 0 0 .491 2.414l.225.093.584 1.468a9881.07 9881.07 0 0 0 6.264 15.617c.997 2.479 1.139 2.798 1.272 2.867.228.117.412.095.574-.07.11-.112 1.031-2.47 3.903-9.993l3.758-9.846.297-.028a1.507 1.507 0 0 0 1.368-1.369c.042-.454-.093-.812-.434-1.153-.364-.364-.628-.451-1.371-.451h-.574l.166-.356c.436-.931.144-2.05-.701-2.685-.252-.189-.769-.425-.931-.425-.048 0-.025-.091.076-.29.72-1.428-.209-3.062-1.837-3.23-.622-.064-.792-.16-1.174-.667C18.41.838 17.786.176 17.592.076c-.189-.098-.366-.096-.51.005m.92 1.895c.508.682.915.924 1.709 1.014.251.029.545.097.653.153.77.396.905 1.399.271 2.019-.356.348-.18.336-4.715.32-4.517-.017-4.232.004-4.58-.343a1.213 1.213 0 0 1-.372-.899c0-.485.238-.87.685-1.112.204-.11.296-.116 2.108-.141l1.895-.027.351-.173c.368-.181 1.005-.786 1.304-1.237.139-.21.149-.215.246-.127.056.05.256.299.445.553m3.744 4.612c.675.283.997 1.03.713 1.656-.126.278-.442.585-.692.674-.284.101-11.25.101-11.534 0-.25-.089-.566-.396-.692-.674-.209-.461-.051-1.14.336-1.435.413-.316.056-.298 6.111-.3 4.877-.002 5.586.008 5.758.079m2.703 3.603c.187.222.181.441-.018.64l-.156.156H7.725l-.156-.156c-.199-.199-.205-.418-.018-.64l.138-.164h16.622l.138.164m-1.622 1.835c0 .061-2.578 6.778-2.618 6.822-.067.074-1.54-.061-2.265-.207-2.447-.496-5.263-1.911-7.885-3.963l-.475-.372-.445-1.112a26.48 26.48 0 0 1-.446-1.153c0-.022 3.18-.041 7.067-.041s7.067.012 7.067.026M12.36 17.458c2.344 1.385 4.859 2.246 6.907 2.365.315.018.573.036.573.04 0 .023-1.285 3.36-1.3 3.375-.048.048-1.425-.288-2.113-.516-1.307-.432-2.423-.952-3.734-1.737l-.56-.336-.863-2.151a755.674 755.674 0 0 1-.902-2.25c-.023-.062.232.08.677.378.393.263.985.637 1.315.832m2.84 5.887a14.62 14.62 0 0 0 2.366.732c.319.072.586.138.593.147.015.017-2.19 5.798-2.225 5.833-.011.011-.701-1.677-1.534-3.752l-1.582-3.939-.068-.167.812.412c.446.226 1.183.557 1.638.734" fill-rule="evenodd"/></svg>