<!-- Generated by IcoMoon.io -->
<svg version="1.1" xmlns="http://www.w3.org/2000/svg" width="32" height="32" viewBox="0 0 32 32">
<title>leaves</title>
<path d="M21.067 14.139c2.592 0.915 5.436-0.445 6.351-3.037 0.713-2.021 0.415-4.753-0.024-6.906-0.222-1.091-0.487-2.060-0.695-2.757-0.104-0.349-0.195-0.63-0.26-0.824-0.032-0.097-0.058-0.173-0.076-0.225-0.009-0.026-0.016-0.046-0.021-0.059-0.002-0.007-0.004-0.012-0.006-0.016l-0.002-0.004-0.001-0.002c-0-0-0-0-0.441 0.159-0.243-0.401-0.243-0.401-0.244-0.401l-0 0-0.005 0.003c-0.003 0.002-0.006 0.004-0.011 0.007l-0.003 0.002c-0.012 0.008-0.030 0.019-0.054 0.033-0.047 0.029-0.114 0.072-0.201 0.127-0.173 0.111-0.42 0.273-0.72 0.478-0.6 0.411-1.414 1-2.272 1.709-1.693 1.4-3.64 3.339-4.354 5.36-0.589 1.669-0.235 3.443 0.783 4.737 0.16 0.204 0.455 0.239 0.658 0.079s0.239-0.455 0.079-0.658c-0.828-1.053-1.114-2.491-0.636-3.846 0.621-1.759 2.383-3.557 4.067-4.95 0.831-0.687 1.621-1.259 2.204-1.659 0.17-0.117 0.323-0.219 0.453-0.305 0.048 0.149 0.102 0.324 0.162 0.522 0.203 0.677 0.46 1.619 0.675 2.675 0.436 2.141 0.68 4.648 0.059 6.406-0.743 2.104-3.050 3.208-5.155 2.465-0.244-0.086-0.512 0.042-0.598 0.286s0.042 0.512 0.286 0.598zM25.892 0.469l-0.243-0.401c0.12-0.073 0.267-0.088 0.399-0.041s0.237 0.151 0.285 0.283l-0.441 0.159z"></path>
<path d="M16.856 32c0.259 0 0.469-0.21 0.469-0.469v-3.875c0-2.015 0.379-4.013 1.118-5.888l5.363-13.613c0.095-0.241-0.023-0.513-0.264-0.608s-0.513 0.023-0.608 0.264l-5.363 13.613c-0.782 1.985-1.183 4.099-1.183 6.232v3.875c0 0.259 0.21 0.469 0.469 0.469z"></path>
<path d="M12.509 18.043c-1.82 1.291-4.342 0.862-5.633-0.959-1.079-1.521-1.532-3.999-1.699-6.177-0.082-1.075-0.093-2.050-0.084-2.757 0.003-0.207 0.007-0.39 0.012-0.546 0.149 0.047 0.323 0.103 0.519 0.169 0.67 0.225 1.587 0.558 2.574 0.991 2.001 0.878 4.189 2.125 5.268 3.646 0.863 1.216 0.958 2.746 0.381 4.014-0.107 0.236-0.003 0.514 0.233 0.621s0.514 0.003 0.621-0.233c0.709-1.559 0.594-3.445-0.47-4.944-1.24-1.748-3.644-3.080-5.656-3.962-1.019-0.447-1.964-0.79-2.653-1.022-0.345-0.116-0.627-0.204-0.823-0.263-0.098-0.030-0.175-0.052-0.228-0.067-0.026-0.008-0.047-0.013-0.061-0.017-0.007-0.002-0.012-0.003-0.016-0.005l-0.006-0.002c-0-0-0-0-0.124 0.452-0.468-0.032-0.468-0.032-0.468-0.032l-0 0.002-0 0.005c-0 0.004-0.001 0.009-0.001 0.017-0.001 0.014-0.002 0.035-0.004 0.063-0.003 0.055-0.007 0.135-0.012 0.237-0.009 0.205-0.019 0.5-0.024 0.864-0.010 0.727 0.001 1.732 0.086 2.842 0.168 2.191 0.629 4.9 1.869 6.648 1.59 2.243 4.697 2.771 6.94 1.181 0.211-0.15 0.261-0.442 0.111-0.654s-0.442-0.261-0.653-0.111zM4.666 6.982l-0.468-0.032c0.010-0.14 0.082-0.269 0.197-0.35s0.26-0.107 0.395-0.070l-0.124 0.452z"></path>
<path d="M16.86 32c0.259-0.002 0.467-0.213 0.465-0.472l-0.041-5.337c-0.014-1.841-0.626-3.627-1.744-5.089l-6.017-7.869c-0.157-0.206-0.451-0.245-0.657-0.088s-0.245 0.451-0.088 0.657l6.017 7.869c0.995 1.301 1.539 2.89 1.552 4.527l0.041 5.337c0.002 0.259 0.213 0.467 0.472 0.465z"></path>
</svg>
