<!-- Generated by IcoMoon.io -->
<svg version="1.1" xmlns="http://www.w3.org/2000/svg" width="32" height="32" viewBox="0 0 32 32">
<title>local-delivery</title>
<path d="M9.5 31c-0.276 0-0.5-0.224-0.5-0.5v-9c0-0.276 0.224-0.5 0.5-0.5s0.5 0.224 0.5 0.5v9c0 0.276-0.224 0.5-0.5 0.5z"></path>
<path d="M7 7c-1.654 0-3-1.346-3-3s1.346-3 3-3c1.654 0 3 1.346 3 3s-1.346 3-3 3zM7 2c-1.103 0-2 0.897-2 2s0.897 2 2 2c1.103 0 2-0.897 2-2s-0.897-2-2-2z"></path>
<path d="M3.5 31c-0.041 0-0.084-0.005-0.126-0.016-0.268-0.070-0.428-0.343-0.357-0.61l3-11.5c0.061-0.235 0.284-0.393 0.525-0.372s0.435 0.212 0.456 0.455l1 11.5c0.024 0.275-0.18 0.518-0.455 0.542-0.271 0.020-0.518-0.18-0.541-0.455l-0.749-8.615-2.27 8.697c-0.058 0.225-0.26 0.374-0.483 0.374z"></path>
<path d="M7.5 17h-4c-0.276 0-0.5-0.224-0.5-0.5s0.224-0.5 0.5-0.5h4c0.275 0 0.5-0.224 0.5-0.5s-0.225-0.5-0.5-0.5h-3.5c-0.552 0-1-0.449-1-1 0-0.276 0.224-0.5 0.5-0.5s0.5 0.224 0.5 0.5h3.5c0.827 0 1.5 0.673 1.5 1.5s-0.673 1.5-1.5 1.5z"></path>
<path d="M3.5 14.5c-0.276 0-0.5-0.224-0.5-0.5v-1.5c0-0.276 0.224-0.5 0.5-0.5s0.5 0.224 0.5 0.5v1.5c0 0.276-0.224 0.5-0.5 0.5z"></path>
<path d="M16.5 20h-8c-0.276 0-0.5-0.224-0.5-0.5v-7c0-0.276 0.224-0.5 0.5-0.5h8c0.276 0 0.5 0.224 0.5 0.5v7c0 0.276-0.224 0.5-0.5 0.5zM9 19h7v-6h-7v6z"></path>
<path d="M12.5 15c-0.276 0-0.5-0.224-0.5-0.5v-2c0-0.276 0.224-0.5 0.5-0.5s0.5 0.224 0.5 0.5v2c0 0.276-0.224 0.5-0.5 0.5z"></path>
<path d="M1.488 31c-0.030 0-0.061-0.002-0.091-0.008-0.271-0.050-0.452-0.31-0.402-0.582l2.013-11-0.007-2.46c-1.14-0.232-2.001-1.242-2.001-2.45v-3c0-1.93 1.57-3.5 3.5-3.5h4c1.489 0 2.818 0.948 3.309 2.359 0.090 0.261-0.048 0.546-0.309 0.636s-0.545-0.047-0.637-0.308c-0.349-1.009-1.3-1.687-2.363-1.687h-4c-1.379 0-2.5 1.122-2.5 2.5v3c0 0.827 0.673 1.5 1.5 1.5 0.276 0 0.5 0.224 0.5 0.5v3l-2.021 11.090c-0.044 0.242-0.254 0.41-0.491 0.41z"></path>
<path d="M27.5 31h-18c-0.276 0-0.5-0.224-0.5-0.5s0.224-0.5 0.5-0.5h18c1.379 0 2.5-1.122 2.5-2.5s-1.121-2.5-2.5-2.5h-7c-1.379 0-2.5-1.122-2.5-2.5s1.121-2.5 2.5-2.5h3.5c0.276 0 0.5 0.224 0.5 0.5s-0.224 0.5-0.5 0.5h-3.5c-0.827 0-1.5 0.673-1.5 1.5s0.673 1.5 1.5 1.5h7c1.93 0 3.5 1.57 3.5 3.5s-1.57 3.5-3.5 3.5z"></path>
<path d="M23.969 21c-0.178-0.013-0.294-0.068-0.388-0.185-0.27-0.332-6.612-8.19-6.612-12.815 0-3.86 3.141-7 7-7s7 3.14 7 7c0 4.75-6.345 12.491-6.614 12.818-0.095 0.116-0.237 0.182-0.386 0.182zM23.969 2c-3.309 0-6 2.691-6 6 0 3.653 4.621 9.906 6.003 11.694 1.385-1.77 5.997-7.943 5.997-11.694 0-3.309-2.692-6-6-6z"></path>
<path d="M23.969 11.531c-1.93 0-3.5-1.57-3.5-3.5s1.57-3.5 3.5-3.5c1.93 0 3.5 1.57 3.5 3.5s-1.571 3.5-3.5 3.5zM23.969 5.531c-1.379 0-2.5 1.122-2.5 2.5s1.121 2.5 2.5 2.5c1.379 0 2.5-1.122 2.5-2.5s-1.121-2.5-2.5-2.5z"></path>
</svg>
