<!-- Generated by IcoMoon.io -->
<svg version="1.1" xmlns="http://www.w3.org/2000/svg" width="32" height="32" viewBox="0 0 32 32">
<title>location</title>
<path d="M15.086 26.389h10.077c0.116-0 0.227-0.046 0.309-0.128s0.128-0.193 0.128-0.309v-5.827c-0-0.116-0.046-0.227-0.128-0.309s-0.193-0.128-0.309-0.128h-10.077c-0.116 0-0.227 0.047-0.309 0.129s-0.128 0.193-0.128 0.309v5.827c0 0.116 0.046 0.227 0.128 0.309s0.193 0.128 0.309 0.129zM15.525 20.562h9.2v4.952h-9.2v-4.952z"></path>
<path d="M5.337 15.396c-0.116 0-0.227 0.046-0.309 0.128s-0.128 0.193-0.128 0.309v1.5c0 0.116 0.046 0.227 0.128 0.309s0.193 0.128 0.309 0.128 0.227-0.046 0.309-0.128c0.082-0.082 0.128-0.193 0.128-0.309v-1.5c0-0.116-0.046-0.227-0.128-0.309s-0.193-0.128-0.309-0.128z"></path>
<path d="M30.375 28.437h-1.775v-14.709c0.203-0.094 0.387-0.222 0.546-0.38 0.179-0.176 0.321-0.387 0.417-0.618s0.146-0.481 0.145-0.732v-1.528c0-0.036-0.004-0.072-0.013-0.106l-1.107-4.423c-0.024-0.095-0.078-0.179-0.155-0.239s-0.172-0.093-0.27-0.092h-9.628c0.197-0.502 0.303-1.036 0.313-1.575 0-0.755-0.3-1.479-0.834-2.013s-1.258-0.834-2.013-0.834c-0.755 0-1.479 0.3-2.013 0.834s-0.834 1.258-0.834 2.013c0.009 0.54 0.115 1.074 0.313 1.576h-9.629c-0.098-0-0.192 0.032-0.269 0.093s-0.132 0.144-0.155 0.239l-1.107 4.423c-0.009 0.035-0.013 0.070-0.013 0.106v1.528c0.001 0.364 0.105 0.72 0.301 1.027s0.476 0.551 0.806 0.704v14.708h-1.774c-0.116 0-0.227 0.046-0.309 0.128s-0.128 0.193-0.128 0.309v1.5c0 0.116 0.046 0.227 0.128 0.309s0.193 0.128 0.309 0.128h28.75c0.116-0 0.227-0.046 0.309-0.128s0.128-0.193 0.128-0.309v-1.5c-0-0.116-0.046-0.227-0.128-0.309s-0.193-0.128-0.309-0.128zM28.528 12.728c-0.145 0.145-0.329 0.244-0.53 0.284s-0.409 0.020-0.598-0.058c-0.189-0.078-0.351-0.21-0.466-0.38s-0.176-0.37-0.177-0.575v-1.091h2.075v1.089c0 0.136-0.026 0.271-0.079 0.396s-0.129 0.239-0.226 0.335zM6.117 10.909h2.074v1.081c-0 0.002-0 0.005 0 0.007 0 0.275-0.109 0.538-0.303 0.733s-0.458 0.304-0.733 0.304c-0.275 0-0.538-0.109-0.733-0.304s-0.303-0.458-0.303-0.733v-0.006l-0.001-1.083zM9.066 10.909h2.075v1.091c0 0.275-0.109 0.539-0.304 0.734s-0.458 0.304-0.734 0.304c-0.275 0-0.539-0.109-0.734-0.304s-0.304-0.458-0.304-0.734v-1.091zM12.016 10.909h2.074v1.089c0 0.275-0.109 0.538-0.304 0.733s-0.458 0.304-0.733 0.304c-0.275 0-0.538-0.109-0.733-0.304s-0.304-0.458-0.304-0.733c0-0.002 0-0.004 0-0.006l-0.001-1.083zM14.964 10.909h2.075v1.091c0 0.275-0.109 0.539-0.304 0.734s-0.458 0.304-0.734 0.304c-0.275 0-0.539-0.109-0.734-0.304s-0.304-0.458-0.304-0.734v-1.091zM17.914 10.909h2.073v1.089c0 0.275-0.109 0.538-0.303 0.733s-0.458 0.304-0.733 0.304c-0.275 0-0.538-0.109-0.733-0.304s-0.303-0.458-0.303-0.733l-0.001-1.089zM20.863 10.909h2.075v1.092c0 0.275-0.109 0.539-0.304 0.734s-0.458 0.304-0.734 0.304c-0.275 0-0.539-0.109-0.734-0.304s-0.304-0.458-0.304-0.734v-1.092zM23.813 10.909h2.075v1.089c0 0.275-0.109 0.538-0.303 0.733s-0.458 0.304-0.733 0.304c-0.275 0-0.538-0.109-0.733-0.304s-0.303-0.458-0.303-0.733c0-0.002 0-0.005 0-0.007l-0.003-1.081zM16 2.062c0.523 0.001 1.024 0.208 1.393 0.578s0.577 0.871 0.578 1.393c0 1.565-1.352 3.233-1.971 3.916-0.62-0.683-1.971-2.35-1.971-3.916 0.001-0.523 0.208-1.024 0.578-1.393s0.871-0.577 1.393-0.578zM4.179 6.485h9.69c0.494 0.886 1.11 1.699 1.828 2.415 0.081 0.078 0.19 0.122 0.303 0.122s0.222-0.044 0.303-0.122c0.718-0.716 1.333-1.528 1.828-2.414h9.69l0.889 3.549h-25.419l0.889-3.55zM3.167 10.909h2.075v1.091c-0 0.275-0.11 0.539-0.305 0.733s-0.459 0.303-0.734 0.303c-0.275-0-0.539-0.11-0.733-0.305s-0.303-0.459-0.303-0.734v-1.088zM4.275 13.903c0.27-0.009 0.534-0.076 0.777-0.195s0.456-0.288 0.628-0.496c0.179 0.217 0.404 0.393 0.659 0.513s0.533 0.183 0.815 0.183c0.282 0 0.56-0.062 0.815-0.183s0.48-0.295 0.659-0.513c0.179 0.217 0.405 0.393 0.66 0.513s0.533 0.183 0.815 0.183c0.282 0 0.56-0.062 0.815-0.183s0.48-0.295 0.66-0.513c0.179 0.217 0.404 0.393 0.659 0.513s0.533 0.183 0.815 0.183c0.282 0 0.56-0.062 0.815-0.183s0.48-0.295 0.659-0.513c0.179 0.217 0.405 0.393 0.66 0.513s0.533 0.182 0.815 0.182c0.282 0 0.56-0.062 0.815-0.182s0.48-0.295 0.66-0.513c0.179 0.217 0.404 0.393 0.659 0.513s0.533 0.183 0.815 0.183c0.282 0 0.56-0.062 0.815-0.183s0.48-0.295 0.659-0.513c0.179 0.217 0.405 0.393 0.66 0.513s0.533 0.183 0.815 0.183c0.282 0 0.56-0.062 0.815-0.183s0.48-0.295 0.66-0.513c0.179 0.217 0.404 0.393 0.659 0.513s0.533 0.183 0.815 0.183 0.56-0.062 0.815-0.183c0.255-0.12 0.48-0.295 0.659-0.513 0.172 0.208 0.386 0.377 0.628 0.496s0.507 0.186 0.777 0.195v14.534h-14.451v-8.312c-0-0.116-0.046-0.227-0.128-0.309s-0.193-0.128-0.309-0.128h-6c-0.116 0-0.227 0.046-0.309 0.128s-0.128 0.193-0.128 0.309v8.312h-2.125v-14.534zM7.275 28.437v-7.875h5.125v7.875h-5.125zM29.937 29.937h-27.875v-0.625h27.875v0.625z"></path>
<path d="M17.187 4.034c0-0.235-0.070-0.464-0.2-0.66s-0.316-0.348-0.533-0.437c-0.217-0.090-0.456-0.113-0.686-0.068s-0.442 0.159-0.608 0.325c-0.166 0.166-0.279 0.378-0.325 0.608s-0.022 0.469 0.068 0.686c0.090 0.217 0.242 0.402 0.437 0.533s0.425 0.2 0.66 0.2c0.315-0 0.617-0.126 0.839-0.348s0.348-0.524 0.348-0.839zM15.687 4.034c0-0.062 0.018-0.122 0.053-0.174s0.083-0.091 0.14-0.115c0.057-0.024 0.12-0.030 0.181-0.018s0.116 0.042 0.16 0.086c0.044 0.044 0.073 0.099 0.085 0.16s0.006 0.123-0.018 0.181c-0.024 0.057-0.064 0.106-0.115 0.14s-0.112 0.053-0.174 0.053c-0.083-0-0.162-0.033-0.221-0.092s-0.092-0.138-0.092-0.221z"></path>
</svg>
