<!-- Generated by IcoMoon.io -->
<svg version="1.1" xmlns="http://www.w3.org/2000/svg" width="32" height="32" viewBox="0 0 32 32">
<title>no-gmo</title>
<path d="M0.422 16c0 8.604 6.975 15.578 15.578 15.578s15.578-6.974 15.578-15.578c0-8.604-6.974-15.578-15.578-15.578s-15.578 6.975-15.578 15.578zM16 30.547c-8.034 0-14.547-6.513-14.547-14.547s6.513-14.547 14.547-14.547c8.034 0 14.547 6.513 14.547 14.547s-6.513 14.547-14.547 14.547z"></path>
<path d="M27.015 27.015c0.201-0.201 0.201-0.528 0-0.729l-21.302-21.302c-0.201-0.201-0.528-0.201-0.729 0s-0.201 0.528 0 0.729l21.302 21.302c0.201 0.201 0.528 0.201 0.729 0z"></path>
<path d="M11.658 26.529c0.201 0.201 0.528 0.201 0.729 0 1.009-1.009 1.313-2.21 1.283-3.443-0.029-1.195-0.374-2.461-0.699-3.651l-0.010-0.035c-0.336-1.231-0.647-2.382-0.672-3.44-0.025-1.032 0.223-1.93 0.982-2.689s1.657-1.007 2.689-0.982c1.058 0.026 2.209 0.337 3.44 0.672l0.035 0.010c1.19 0.325 2.456 0.67 3.651 0.699 1.233 0.030 2.434-0.274 3.443-1.283 0.201-0.201 0.201-0.528 0-0.729s-0.528-0.201-0.729-0c-0.759 0.759-1.657 1.007-2.689 0.982-1.058-0.026-2.209-0.337-3.44-0.672l-0.035-0.010c-1.19-0.325-2.456-0.67-3.651-0.699-1.233-0.030-2.434 0.274-3.443 1.283s-1.313 2.21-1.283 3.443c0.029 1.195 0.374 2.461 0.699 3.651l0.010 0.035c0.336 1.231 0.647 2.382 0.673 3.44 0.025 1.032-0.223 1.93-0.982 2.689-0.201 0.201-0.201 0.528 0 0.729z"></path>
<path d="M16.015 20.742c1.233 0.030 2.434-0.274 3.443-1.283s1.313-2.21 1.283-3.443c-0.029-1.195-0.374-2.461-0.699-3.651l-0.010-0.035c-0.336-1.231-0.647-2.382-0.672-3.44-0.025-1.032 0.223-1.93 0.982-2.689 0.201-0.201 0.201-0.528-0-0.729s-0.528-0.201-0.729 0c-1.009 1.009-1.313 2.21-1.283 3.443 0.029 1.195 0.374 2.461 0.699 3.651l0.010 0.035c0.336 1.231 0.647 2.382 0.672 3.44 0.025 1.032-0.223 1.93-0.982 2.689s-1.657 1.007-2.689 0.982c-1.058-0.026-2.21-0.337-3.44-0.672l-0.035-0.010c-1.19-0.325-2.456-0.67-3.651-0.699-1.233-0.030-2.434 0.274-3.443 1.283-0.201 0.201-0.201 0.528 0 0.729s0.528 0.201 0.729 0c0.759-0.759 1.657-1.007 2.689-0.982 1.058 0.026 2.209 0.337 3.44 0.673l0.035 0.010c1.19 0.325 2.456 0.67 3.651 0.699z"></path>
</svg>
