<!-- Generated by IcoMoon.io -->
<svg version="1.1" xmlns="http://www.w3.org/2000/svg" width="32" height="32" viewBox="0 0 32 32">
<title>no-sugar</title>
<path d="M14.934 0.035c-6.429 0.45-11.945 4.661-14.046 10.723-0.543 1.569-0.822 3.096-0.872 4.791-0.036 1.204 0.024 2.047 0.225 3.201 1.137 6.495 6.156 11.642 12.61 12.929 1.208 0.241 1.782 0.294 3.176 0.293 1.34-0.001 1.799-0.043 3.014-0.274 3.793-0.724 7.367-2.947 9.682-6.020 2.954-3.924 3.969-8.832 2.799-13.544-1.538-6.195-6.654-10.899-12.961-11.918-1.149-0.185-2.55-0.255-3.627-0.179zM17.086 1.228c3.145 0.26 6.015 1.423 8.404 3.405 0.296 0.245 0.537 0.461 0.537 0.48 0 0.054-7.566 7.605-7.593 7.579-0.014-0.014-0.144-0.858-0.29-1.877-0.299-2.088-0.337-2.209-0.777-2.466-0.302-0.177-4.965-1.269-5.445-1.275l-0.32-0.004-2.293 1.273c-1.261 0.7-2.361 1.335-2.444 1.412-0.178 0.165-0.303 0.387-0.361 0.647-0.052 0.228 0.821 6.524 0.945 6.822 0.107 0.258 0.323 0.479 0.58 0.595 0.117 0.053 1.114 0.303 2.213 0.557s2.011 0.473 2.024 0.486c0.039 0.039-7.111 7.169-7.17 7.151-0.114-0.035-0.965-1.109-1.415-1.784-1.238-1.855-1.997-3.838-2.353-6.146-0.17-1.105-0.17-3.040 0-4.16 0.25-1.646 0.673-2.998 1.392-4.457 1.814-3.679 4.906-6.338 8.828-7.593 1.722-0.55 3.775-0.789 5.54-0.643zM27.367 6.511c1.049 1.264 2.044 2.999 2.578 4.493 1.086 3.039 1.151 6.422 0.18 9.461-1.204 3.712-3.718 6.714-6.983 8.525l-0.076 0.039c-1.475 0.808-3.296 1.403-5.12 1.673-0.972 0.143-3.050 0.131-4.053-0.025-2.325-0.361-4.322-1.137-6.216-2.416-0.609-0.411-1.655-1.25-1.688-1.355-0.019-0.059 8.072-8.169 8.11-8.131 0.012 0.013-0.105 0.695-0.262 1.517-0.251 1.311-0.278 1.523-0.23 1.748 0.097 0.453 0.345 0.648 2.602 2.041 1.127 0.697 2.147 1.31 2.267 1.364s0.302 0.099 0.407 0.099c0.259 0.002 5.145-0.893 5.354-0.981 0.213-0.089 0.506-0.381 0.595-0.595 0.038-0.091 0.349-1.613 0.689-3.381 0.59-3.064 0.616-3.227 0.555-3.486-0.047-0.195-0.128-0.335-0.284-0.495-0.131-0.134-1.084-0.758-2.387-1.562-1.669-1.030-2.227-1.351-2.427-1.388-0.207-0.039-0.43-0.018-1.123 0.107-0.115 0.028-0.423 0.083-0.733 0.133l-0.174 0.023c-0.023 0 1.747-1.788 3.932-3.973s3.988-3.973 4.008-3.973 0.235 0.242 0.48 0.537zM13.966 8.691c1.008 0.232 1.839 0.43 1.848 0.44s-0.768 0.453-1.727 0.986l-1.744 0.969-1.838-0.422c-1.011-0.232-1.883-0.441-1.938-0.465-0.079-0.033 0.272-0.25 1.627-1.006 1.074-0.6 1.768-0.956 1.834-0.944 0.059 0.011 0.931 0.211 1.939 0.443zM17.077 11.764c0.137 0.966 0.252 1.83 0.253 1.921 0.003 0.132-0.049 0.215-0.25 0.401-0.247 0.23-0.269 0.238-0.936 0.359-1.067 0.194-1.258 0.394-1.482 1.55l-0.123 0.64-0.335 0.332c-0.184 0.183-0.345 0.322-0.357 0.308-0.041-0.046-0.767-5.25-0.735-5.268 0.018-0.009 0.837-0.469 1.82-1.021s1.811-0.998 1.84-0.992c0.029 0.007 0.166 0.803 0.303 1.768zM9.799 11.706c1.079 0.249 1.996 0.473 2.040 0.498 0.058 0.034 0.175 0.735 0.462 2.761 0.211 1.493 0.374 2.725 0.364 2.736-0.018 0.019-4.082-0.899-4.121-0.931-0.011-0.008-0.183-1.187-0.384-2.619s-0.378-2.67-0.394-2.751c-0.016-0.081-0.005-0.146 0.022-0.146s0.934 0.204 2.012 0.453zM22.247 15.714c0.832 0.518 1.609 1.002 1.726 1.076l0.213 0.134-1.86 0.335c-1.023 0.184-1.913 0.341-1.98 0.351-0.081 0.011-0.635-0.302-1.672-0.944l-1.552-0.96 0.159-0.16c0.16-0.162 0.5-0.238 3.419-0.767 0.018-0.004 0.715 0.418 1.547 0.935zM17.866 17.55c0.975 0.607 1.548 0.995 1.548 1.049 0 0.047-0.228 1.279-0.507 2.74 0.223-1.53 0.046-0.622-0.127 0.287l-0.38 2.395c0 0.020-3.536-2.166-3.619-2.238-0.010-0.009 0.178-1.044 0.419-2.3l0.438-2.284 0.299-0.306c0.165-0.169 0.317-0.307 0.34-0.307s0.737 0.434 1.588 0.964zM24.797 18.093c-0.002 0.037-0.236 1.267-0.521 2.733l-0.517 2.667-2.079 0.382c-1.143 0.21-2.087 0.373-2.098 0.363-0.021-0.021 1.006-5.426 1.037-5.459 0.024-0.026 3.898-0.738 4.063-0.747 0.066-0.003 0.119 0.023 0.116 0.061z"></path>
</svg>
