<!-- Generated by IcoMoon.io -->
<svg version="1.1" xmlns="http://www.w3.org/2000/svg" width="32" height="32" viewBox="0 0 32 32">
<title>random1</title>
<path d="M26.83 17.725l-1.885 1.885 3.056 3.057h-0.509c-4.512 0-7.381-2.043-9.928-4.677l-0.4 0.464c-0.437 0.507-0.888 1.028-1.357 1.552 2.933 3.397 7.203 5.344 11.691 5.333h0.504l-3.057 3.057 1.885 1.885 4.391-4.391c1.041-1.041 1.041-2.729 0-3.771l-4.389-4.396z"></path>
<path d="M27.492 9.334h0.508l-3.056 3.057 1.885 1.885 4.391-4.391c1.041-1.041 1.041-2.729 0-3.771l-4.391-4.391-1.885 1.885 3.056 3.058h-0.509c-6.609 0-10.223 3.56-13.501 7.304-3.239-3.657-7.132-7.304-14.043-7.304v2.667c5.952 0 9.164 3.115 12.279 6.667-3.115 3.552-6.327 6.667-12.279 6.667v2.667c7.744 0 11.701-4.581 15.2-8.621 3.272-3.795 6.369-7.379 12.345-7.379z"></path>
</svg>
