<!-- Generated by IcoMoon.io -->
<svg version="1.1" xmlns="http://www.w3.org/2000/svg" width="32" height="32" viewBox="0 0 32 32">
<title>shaved-ice</title>
<path d="M10.42 14.084c-0.227 0.094-0.335 0.353-0.241 0.58s0.353 0.335 0.58 0.241c0.227-0.094 0.335-0.353 0.241-0.58s-0.353-0.335-0.58-0.241z"></path>
<path d="M22.141 14.542c-0.227 0.094-0.335 0.353-0.241 0.58s0.353 0.335 0.58 0.241c0.227-0.094 0.335-0.353 0.241-0.58s-0.353-0.335-0.58-0.241z"></path>
<path d="M19.651 13.102c-0.227 0.094-0.335 0.353-0.241 0.58s0.353 0.335 0.58 0.241 0.335-0.353 0.241-0.58c-0.094-0.227-0.353-0.335-0.58-0.241z"></path>
<path d="M9.055 6.067c-0.209 0.129-0.274 0.403-0.145 0.612s0.403 0.274 0.612 0.145c0.209-0.129 0.274-0.403 0.145-0.612s-0.403-0.274-0.612-0.145z"></path>
<path d="M11.28 5.737c0.209-0.129 0.274-0.403 0.145-0.612s-0.403-0.274-0.612-0.145-0.274 0.403-0.145 0.612c0.129 0.209 0.403 0.274 0.612 0.145z"></path>
<path d="M10.968 7.197c-0.209 0.129-0.274 0.403-0.145 0.612s0.403 0.274 0.612 0.145c0.209-0.129 0.274-0.403 0.145-0.612s-0.403-0.274-0.612-0.145z"></path>
<path d="M25.888 16.050h-0.266c-0.039-0.644-0.25-1.256-0.639-1.78-0.32-0.43-0.425-0.94-0.285-1.395 0.090-0.31 0.14-0.63 0.14-0.95 0-0.355-0.060-0.705-0.17-1.035 0 0 0 0 0-0.005 0.005-0.040 0.005-0.085 0.005-0.13 0-0.44-0.16-0.875-0.48-1.23-0.17-0.19-0.36-0.365-0.57-0.52-0.058-0.043-0.109-0.095-0.159-0.148l4.095-5.677c0.325-0.45 0.45-1.015 0.345-1.555-0.105-0.545-0.435-1.025-0.9-1.315-0.47-0.295-1.045-0.385-1.575-0.245-0.535 0.14-0.995 0.495-1.255 0.98l-2.379 4.37c-0.258-0.234-0.543-0.432-0.851-0.575-0.265-0.125-0.53-0.215-0.785-0.265-0.515-0.115-0.9-0.355-1.090-0.69-0.5-0.835-1.33-1.445-2.275-1.67-0.955-0.23-1.96-0.060-2.82 0.485-0.375 0.233-0.706 0.571-0.996 0.998-0.468-0.637-1.073-0.954-1.807-0.955-0.066-0.925-0.635-1.772-1.082-1.843-0.36-0.060-0.865 0.285-1.23 0.73-0.52-0.305-1.15-0.47-1.485-0.26-0.34 0.205-0.475 0.845-0.435 1.45-0.565 0.125-1.095 0.41-1.205 0.765-0.125 0.395 0.225 0.91 0.38 1.11 0.218 0.283 0.485 0.515 0.774 0.686-0.359 0.731-0.3 1.499 0.185 2.285 0.275 0.445 0.727 0.893 1.274 1.286-0.022 0.018-0.040 0.041-0.063 0.057-0.545 0.4-0.885 0.97-0.93 1.575-0.005 0.005-0.005 0.005-0.005 0.005-0.18 0.42-0.275 0.87-0.275 1.335 0 0.31 0.040 0.615 0.13 0.915 0.14 0.48 0.035 1.010-0.29 1.45-0.385 0.527-0.593 1.13-0.63 1.76h-0.262c-0.626 0-1.201 0.288-1.577 0.791-0.367 0.489-0.479 1.103-0.309 1.684 1.082 3.691 4.906 6.411 9.648 7.055v2.134h-0.186c-1.612 0-2.923 1.311-2.923 2.922 0 0.752 0.612 1.363 1.363 1.363h7.833c0.752 0 1.363-0.611 1.363-1.363 0-1.611-1.311-2.922-2.922-2.922h-0.189v-2.133c4.744-0.642 8.569-3.363 9.651-7.057 0.17-0.581 0.057-1.195-0.309-1.684-0.377-0.502-0.951-0.79-1.577-0.79zM8.813 9.725c0.114-0.085 0.219-0.181 0.314-0.286 0.17 0.091 0.343 0.178 0.521 0.255 0.696 0.302 1.347 0.455 1.902 0.455 0.421 0 0.787-0.088 1.076-0.266 0.667-0.412 1.092-1.413 1.165-2.746 0.050-0.916-0.081-1.84-0.351-2.568 0.054-0.067 0.109-0.133 0.153-0.204 0.25-0.405 0.535-0.715 0.85-0.91 0.66-0.415 1.425-0.545 2.145-0.375 0.715 0.17 1.34 0.63 1.71 1.255 0.315 0.545 0.905 0.94 1.675 1.11 0.19 0.040 0.39 0.105 0.595 0.2 0.405 0.19 0.77 0.5 1.050 0.9 0.275 0.39 0.454 0.753 0.52 1.2 0.005 0.040 0.045 0.35 0.045 0.35 0.080 0.67 0.415 1.265 0.92 1.63 0.155 0.115 0.295 0.245 0.425 0.39 0.37 0.415 0.28 0.905 0.075 1.225-0.22 0.335-0.685 0.655-1.265 0.47-0.505-0.17-0.76-0.47-1.030-0.785-0.305-0.36-0.655-0.765-1.315-0.845-1.32-0.17-1.92 1.005-2.435 2.035-0.465 0.92-0.9 1.785-1.755 1.835-0.855 0.060-1.23-0.53-1.755-1.495-0.4-0.74-0.855-1.585-1.795-1.675-0.050-0.005-0.1-0.010-0.145-0.010-0.57 0-0.925 0.32-1.245 0.6-0.26 0.23-0.505 0.445-0.885 0.525-0.425 0.090-0.885-0.020-1.25-0.295-0.33-0.25-0.505-0.585-0.505-0.945 0.005-0.385 0.22-0.76 0.59-1.030zM24.953 1.47c0.15-0.27 0.395-0.465 0.7-0.545 0.3-0.080 0.61-0.030 0.875 0.135s0.44 0.425 0.5 0.735c0.060 0.305-0.005 0.61-0.19 0.865l-3.777 5.243c0 0-0.043-0.32-0.073-0.443-0.097-0.454-0.293-0.898-0.575-1.322l2.54-4.668zM7.463 3.64c0.13-0.005 0.255-0.070 0.335-0.18 0.080-0.105 0.105-0.24 0.075-0.37-0.090-0.37-0.055-0.72-0.005-0.91 0.195 0.040 0.525 0.165 0.815 0.41 0.1 0.085 0.235 0.125 0.365 0.1 0.135-0.025 0.245-0.105 0.31-0.22 0.175-0.31 0.42-0.53 0.575-0.635 0.143 0.189 0.351 0.591 0.36 1.041-0.476 0.136-0.992 0.373-1.551 0.717-0.57 0.352-1.015 0.702-1.346 1.058-0.394-0.21-0.659-0.569-0.759-0.782 0.16-0.090 0.47-0.215 0.825-0.23zM7.828 7.199c-0.336-0.545-0.372-1.020-0.113-1.493 0.24-0.44 0.73-0.883 1.495-1.356 0.856-0.528 1.477-0.728 1.943-0.728 0.625 0 0.97 0.36 1.223 0.769 0.377 0.611 0.584 1.669 0.528 2.696-0.055 0.993-0.347 1.794-0.745 2.039s-1.244 0.148-2.156-0.248c-0.944-0.41-1.797-1.069-2.174-1.68zM7.628 14.815c0.49-0.665 0.645-1.48 0.425-2.225-0.035-0.12-0.060-0.24-0.075-0.365 0.065 0.065 0.135 0.125 0.21 0.18 0.57 0.435 1.295 0.605 1.975 0.46 0.61-0.13 0.985-0.46 1.285-0.73 0.305-0.265 0.465-0.395 0.72-0.37 0.435 0.040 0.705 0.485 1.1 1.215 0.475 0.88 1.060 1.965 2.43 1.965 0.050 0 0.105-0.005 0.16-0.005 1.365-0.085 1.965-1.275 2.495-2.325 0.51-1.015 0.855-1.64 1.53-1.555 0.305 0.040 0.465 0.215 0.75 0.545 0.305 0.355 0.685 0.8 1.425 1.045 0.655 0.215 1.35 0.075 1.86-0.355-0.015 0.105-0.040 0.215-0.070 0.32-0.225 0.73-0.070 1.525 0.42 2.185 0.274 0.369 0.427 0.797 0.464 1.25h-17.564c0.034-0.444 0.189-0.867 0.46-1.235zM20.345 30.637c0 0.261-0.213 0.474-0.474 0.474h-7.833c-0.261 0-0.474-0.213-0.474-0.474 0-1.121 0.912-2.033 2.034-2.033h4.714c1.121 0 2.033 0.912 2.033 2.033zM17.233 27.715h-2.56v-2.043c0.423 0.033 0.851 0.056 1.285 0.056 0.431 0 0.855-0.022 1.275-0.055v2.042zM26.922 18.275c-1.115 3.804-5.726 6.564-10.963 6.564-5.241 0-9.855-2.761-10.97-6.564-0.091-0.309-0.030-0.638 0.168-0.901 0.207-0.276 0.522-0.435 0.865-0.435h19.867c0.343 0 0.658 0.158 0.865 0.435 0.198 0.263 0.259 0.592 0.168 0.901z"></path>
</svg>
