<!-- Generated by IcoMoon.io -->
<svg version="1.1" xmlns="http://www.w3.org/2000/svg" width="32" height="32" viewBox="0 0 32 32">
<title>shopping-bag-add</title>
<path d="M30.666 25.332h-2.667v-2.667c0-0.354-0.14-0.693-0.391-0.943s-0.589-0.391-0.943-0.391c-0.354 0-0.693 0.14-0.943 0.391s-0.391 0.589-0.391 0.943v2.667h-2.667c-0.354 0-0.693 0.14-0.943 0.391s-0.391 0.589-0.391 0.943c0 0.354 0.14 0.693 0.391 0.943s0.589 0.391 0.943 0.391h2.667v2.667c0 0.354 0.14 0.693 0.391 0.943s0.589 0.391 0.943 0.391c0.354 0 0.693-0.14 0.943-0.391s0.391-0.589 0.391-0.943v-2.667h2.667c0.354 0 0.693-0.14 0.943-0.391s0.391-0.589 0.391-0.943c0-0.354-0.14-0.693-0.391-0.943s-0.589-0.391-0.943-0.391z"></path>
<path d="M28 8h-4c0-2.122-0.843-4.157-2.343-5.657s-3.535-2.343-5.657-2.343c-2.122 0-4.157 0.843-5.657 2.343s-2.343 3.535-2.343 5.657h-4c-1.061 0-2.078 0.421-2.828 1.172s-1.172 1.768-1.172 2.828v13.333c0.002 1.768 0.705 3.462 1.955 4.712s2.944 1.953 4.712 1.955h12c0.354 0 0.693-0.14 0.943-0.391s0.391-0.589 0.391-0.943c0-0.354-0.14-0.693-0.391-0.943s-0.589-0.391-0.943-0.391h-12c-1.061 0-2.078-0.421-2.828-1.172s-1.172-1.768-1.172-2.828v-13.333c0-0.354 0.14-0.693 0.39-0.943s0.589-0.39 0.943-0.39h4v2.667c0 0.354 0.14 0.693 0.391 0.943s0.589 0.391 0.943 0.391c0.354 0 0.693-0.14 0.943-0.391s0.391-0.589 0.391-0.943v-2.667h10.667v2.667c0 0.354 0.14 0.693 0.391 0.943s0.589 0.391 0.943 0.391c0.354 0 0.693-0.14 0.943-0.391s0.391-0.589 0.391-0.943v-2.667h4c0.354 0 0.693 0.14 0.943 0.39s0.39 0.589 0.39 0.943v6.667c0 0.354 0.14 0.693 0.391 0.943s0.589 0.391 0.943 0.391c0.354 0 0.693-0.14 0.943-0.391s0.391-0.589 0.391-0.943v-6.667c0-1.061-0.421-2.078-1.172-2.828s-1.768-1.172-2.828-1.172zM10.667 8c0-1.415 0.562-2.771 1.562-3.771s2.357-1.562 3.771-1.562c1.415 0 2.771 0.562 3.771 1.562s1.562 2.357 1.562 3.771h-10.667z"></path>
</svg>
