<!-- Generated by IcoMoon.io -->
<svg version="1.1" xmlns="http://www.w3.org/2000/svg" width="32" height="32" viewBox="0 0 32 32">
<title>strawberry</title>
<path d="M6.298 24.604c1.142 0.899 2.405 1.49 3.702 1.49 0.222 0 0.443-0.017 0.663-0.051 0.256-0.039 0.432-0.278 0.393-0.534s-0.278-0.432-0.534-0.393c-0.175 0.027-0.35 0.040-0.523 0.040-1.011 0-2.073-0.464-3.122-1.289-1.045-0.823-2.041-1.978-2.905-3.289-1.738-2.636-2.879-5.795-2.879-7.95 0-2.255 1.099-4.299 2.881-5.731 0.202-0.162 0.234-0.457 0.072-0.659s-0.457-0.234-0.659-0.072c-1.974 1.587-3.231 3.887-3.231 6.462 0 2.404 1.239 5.743 3.034 8.466 0.902 1.369 1.962 2.608 3.108 3.51zM19.377 12.192c0.257-0.032 0.44-0.266 0.408-0.523-0.27-2.19-1.452-4.125-3.182-5.511-0.202-0.162-0.497-0.129-0.659 0.073s-0.129 0.497 0.073 0.659c1.562 1.252 2.601 2.975 2.838 4.895 0.032 0.257 0.266 0.44 0.523 0.408z"></path>
<path d="M9.787 11.228c0.134 0.068 0.292 0.068 0.426 0 0.932-0.475 1.681-1.225 2.096-2.139 1.008 0.39 2.131 0.459 3.177 0.213 0.163-0.038 0.293-0.16 0.341-0.32 0.179-0.592 0.216-1.21 0.11-1.813 0.64-0.213 1.227-0.546 1.719-0.979 0.101-0.089 0.159-0.217 0.159-0.352s-0.058-0.263-0.159-0.352c-1.558-1.375-2.818-1.791-4.066-1.833-0.603-0.020-1.192 0.048-1.771 0.115l-0.020 0.002c-0.58 0.067-1.16 0.135-1.8 0.135s-1.22-0.067-1.8-0.135l-0.020-0.002c-0.578-0.067-1.167-0.135-1.771-0.115-1.248 0.042-2.508 0.458-4.066 1.833-0.101 0.089-0.159 0.217-0.159 0.352s0.058 0.263 0.159 0.352c0.492 0.433 1.080 0.766 1.719 0.979-0.105 0.603-0.069 1.221 0.11 1.813 0.048 0.16 0.178 0.282 0.341 0.321 1.046 0.246 2.169 0.177 3.177-0.213 0.415 0.914 1.164 1.664 2.096 2.139zM10 10.277c-0.785-0.462-1.356-1.157-1.598-1.953-0.040-0.133-0.137-0.241-0.265-0.295s-0.273-0.049-0.396 0.014c-0.833 0.424-1.81 0.561-2.738 0.403-0.1-0.487-0.078-0.989 0.067-1.469 0.037-0.124 0.022-0.257-0.042-0.369s-0.172-0.192-0.298-0.222c-0.482-0.114-0.931-0.307-1.325-0.564 1.2-0.945 2.14-1.2 3.036-1.23 0.522-0.018 1.043 0.041 1.631 0.109 0.012 0.001 0.025 0.003 0.037 0.004 0.57 0.066 1.197 0.139 1.892 0.139s1.321-0.073 1.892-0.139l0.037-0.004c0.588-0.068 1.109-0.127 1.631-0.109 0.896 0.030 1.835 0.285 3.036 1.23-0.394 0.257-0.844 0.449-1.325 0.564-0.126 0.030-0.234 0.11-0.298 0.222s-0.080 0.246-0.042 0.369c0.145 0.48 0.168 0.982 0.067 1.469-0.928 0.158-1.905 0.021-2.738-0.403-0.124-0.063-0.269-0.068-0.397-0.014s-0.225 0.162-0.265 0.295c-0.241 0.796-0.812 1.491-1.598 1.953z"></path>
<path d="M10 4.661c0.259 0 0.469-0.21 0.469-0.469 0-1.192 0.54-2.35 1.528-3.215 0.195-0.171 0.214-0.467 0.044-0.661s-0.467-0.214-0.661-0.044c-1.174 1.028-1.848 2.436-1.848 3.92 0 0.259 0.21 0.469 0.469 0.469z"></path>
<path d="M4.496 14.441c0.259 0 0.469-0.21 0.469-0.469v-0.625c0-0.259-0.21-0.469-0.469-0.469s-0.469 0.21-0.469 0.469v0.625c0 0.259 0.21 0.469 0.469 0.469z"></path>
<path d="M10.121 14.441c0.259 0 0.469-0.21 0.469-0.469v-0.625c0-0.259-0.21-0.469-0.469-0.469s-0.469 0.21-0.469 0.469v0.625c0 0.259 0.21 0.469 0.469 0.469z"></path>
<path d="M7.188 18.191c0.259 0 0.469-0.21 0.469-0.469v-0.625c0-0.259-0.21-0.469-0.469-0.469s-0.469 0.21-0.469 0.469v0.625c0 0.259 0.21 0.469 0.469 0.469z"></path>
<path d="M10.121 21.941c0.259 0 0.469-0.21 0.469-0.469v-0.625c0-0.259-0.21-0.469-0.469-0.469s-0.469 0.21-0.469 0.469v0.625c0 0.259 0.21 0.469 0.469 0.469z"></path>
<path d="M20.208 31.483c3.195-0.656 6.432-2.141 8.132-3.841 1.824-1.824 2.561-4.345 2.283-6.867-0.028-0.257-0.26-0.443-0.517-0.415s-0.443 0.26-0.415 0.517c0.251 2.276-0.417 4.504-2.014 6.101-1.523 1.523-4.564 2.95-7.657 3.585-1.538 0.316-3.059 0.429-4.38 0.272-1.325-0.158-2.405-0.581-3.119-1.296s-1.138-1.794-1.296-3.119c-0.157-1.321-0.044-2.842 0.272-4.38 0.635-3.093 2.062-6.134 3.585-7.657 1.595-1.595 3.817-2.263 6.090-2.016 0.257 0.028 0.489-0.158 0.517-0.415s-0.158-0.489-0.415-0.517c-2.518-0.274-5.033 0.464-6.854 2.285-1.7 1.7-3.185 4.937-3.841 8.132-0.33 1.606-0.456 3.232-0.284 4.679 0.172 1.443 0.647 2.754 1.564 3.671s2.228 1.392 3.671 1.564c1.448 0.172 3.073 0.045 4.679-0.284z"></path>
<path d="M27.61 22.208c0.142 0.088 0.32 0.094 0.468 0.015 0.545-0.292 1.008-0.703 1.36-1.204 0.603 0.302 1.254 0.482 1.908 0.524 0.134 0.008 0.266-0.041 0.361-0.136s0.145-0.227 0.137-0.361c-0.13-2.074-0.726-3.259-1.579-4.171-0.412-0.441-0.877-0.809-1.334-1.171l-0.016-0.013c-0.458-0.362-0.916-0.725-1.368-1.177s-0.815-0.91-1.177-1.368l-0.012-0.016c-0.361-0.457-0.73-0.921-1.171-1.334-0.912-0.853-2.097-1.449-4.171-1.579-0.134-0.008-0.266 0.041-0.361 0.136s-0.145 0.227-0.136 0.361c0.042 0.654 0.222 1.305 0.524 1.908-0.501 0.352-0.912 0.815-1.204 1.36-0.079 0.147-0.073 0.326 0.015 0.468 0.565 0.914 1.408 1.659 2.397 2.096-0.353 0.94-0.353 2-0.031 2.994 0.046 0.143 0.158 0.255 0.301 0.301 0.995 0.323 2.054 0.322 2.994-0.031 0.437 0.988 1.182 1.832 2.096 2.397zM27.87 21.257c-0.767-0.545-1.362-1.332-1.651-2.221-0.043-0.132-0.142-0.238-0.271-0.29s-0.274-0.044-0.396 0.021c-0.733 0.392-1.629 0.48-2.511 0.251-0.229-0.882-0.141-1.778 0.251-2.511 0.065-0.122 0.073-0.267 0.021-0.396s-0.158-0.228-0.29-0.271c-0.889-0.289-1.676-0.883-2.221-1.651 0.273-0.415 0.644-0.754 1.086-0.991 0.114-0.061 0.198-0.166 0.231-0.291s0.014-0.258-0.054-0.368c-0.26-0.421-0.441-0.876-0.539-1.336 1.517 0.18 2.362 0.664 3.016 1.277 0.382 0.357 0.708 0.766 1.076 1.231l0.023 0.029c0.356 0.45 0.748 0.945 1.239 1.436s0.986 0.883 1.436 1.239l0.029 0.023c0.465 0.368 0.874 0.694 1.231 1.076 0.612 0.655 1.096 1.499 1.277 3.016-0.46-0.097-0.914-0.279-1.336-0.539-0.11-0.068-0.243-0.087-0.368-0.054s-0.23 0.117-0.291 0.231c-0.237 0.442-0.576 0.813-0.991 1.086z"></path>
<path d="M27.012 15.048c0.183 0.183 0.48 0.183 0.663 0 0.843-0.843 2.044-1.28 3.354-1.193 0.258 0.017 0.482-0.178 0.499-0.437s-0.178-0.482-0.437-0.499c-1.557-0.103-3.029 0.416-4.079 1.465-0.183 0.183-0.183 0.48 0 0.663z"></path>
<path d="M16.205 18.071c0.183 0.183 0.48 0.183 0.663 0l0.442-0.442c0.183-0.183 0.183-0.48 0-0.663s-0.48-0.183-0.663 0l-0.442 0.442c-0.183 0.183-0.183 0.48 0 0.663z"></path>
<path d="M20.183 22.049c0.183 0.183 0.48 0.183 0.663 0l0.442-0.442c0.183-0.183 0.183-0.48 0-0.663s-0.48-0.183-0.663 0l-0.442 0.442c-0.183 0.183-0.183 0.48 0 0.663z"></path>
<path d="M24.16 26.026c0.183 0.183 0.48 0.183 0.663 0l0.442-0.442c0.183-0.183 0.183-0.48 0-0.663s-0.48-0.183-0.663 0l-0.442 0.442c-0.183 0.183-0.183 0.48 0 0.663z"></path>
<path d="M15.457 22.626c0.183 0.183 0.48 0.183 0.663-0l0.442-0.442c0.183-0.183 0.183-0.48-0-0.663s-0.48-0.183-0.663 0l-0.442 0.442c-0.183 0.183-0.183 0.48 0 0.663z"></path>
<path d="M19.434 26.604c0.183 0.183 0.48 0.183 0.663 0l0.442-0.442c0.183-0.183 0.183-0.48-0-0.663s-0.48-0.183-0.663 0l-0.442 0.442c-0.183 0.183-0.183 0.48 0 0.663z"></path>
<path d="M14.88 27.352c0.183 0.183 0.48 0.183 0.663 0l0.442-0.442c0.183-0.183 0.183-0.48 0-0.663s-0.48-0.183-0.663 0l-0.442 0.442c-0.183 0.183-0.183 0.48 0 0.663z"></path>
</svg>
