<!-- Generated by IcoMoon.io -->
<svg version="1.1" xmlns="http://www.w3.org/2000/svg" width="32" height="32" viewBox="0 0 32 32">
<title>trade-1</title>
<path d="M31.25 15.474l-6.131-3.54c-0.609-2.675-2.109-5.103-4.241-6.857-2.221-1.827-5.031-2.833-7.913-2.833-6.873 0-12.465 5.592-12.465 12.465s5.592 12.465 12.465 12.465c2.623 0 5.118-0.8 7.238-2.317l4.222 2.438c0.077 0.045 0.164 0.067 0.25 0.067s0.173-0.022 0.25-0.067l6.325-3.652c0.155-0.089 0.25-0.254 0.25-0.433v-7.303c0-0.179-0.095-0.344-0.25-0.433zM24.675 12.832l1.245 0.719-5.325 3.074-1.245-0.719 5.325-3.074zM21.096 18.069l0.834 0.482v1.721l-0.834-0.482v-1.721zM21.596 17.203l5.325-3.074 0.834 0.482-5.325 3.074-0.834-0.482zM18.85 16.773l1.245 0.719v2.587c0 0.179 0.095 0.344 0.25 0.433l1.834 1.059c0.077 0.045 0.164 0.067 0.25 0.067s0.173-0.022 0.25-0.067c0.155-0.089 0.25-0.254 0.25-0.433v-2.010l1.245 0.719v6.149l-5.325-3.074v-6.149h0zM24.675 18.981l-1.245-0.719 5.325-3.074 1.245 0.719-5.325 3.074zM24.108 12.005l-5.852 3.379c-0.271-0.022-0.493-0.065-0.7-0.136-1.236-0.828-0.922-1.322-0.407-2.134 0.301-0.475 0.639-1.007 0.471-1.588 0.070-0.113 0.212-0.268 0.304-0.319 0.998 0.292 3.302 0.345 3.748 0.223 0.526-0.144 0.965-0.966 0.885-1.658-0.076-0.659-0.583-1.071-1.356-1.101-0.113-0.005-0.313 0.014-0.719 0.053-0.417 0.040-1.433 0.137-1.865 0.111-0.109-0.437-0.178-1.213 0.153-1.515 0.387-0.354 1.097-0.591 1.616-0.764 0.177-0.059 0.328-0.11 0.458-0.161 1.572 1.485 2.733 3.415 3.264 5.611zM6.385 5.325c0.39 0.123 0.676 0.225 0.914 0.31 1.019 0.364 1.153 0.364 2.881 0.001 1.071-0.225 1.294-0.043 1.631 0.234 0.309 0.253 0.693 0.568 1.51 0.685 0.479 0.068 0.619 0.13 0.652 0.171 0.014 0.017 0.078 0.129-0.004 0.701-0.010 0.073-0.019 0.148-0.028 0.225-0.059 0.502-0.111 0.649-0.243 0.685-0.203 0.055-0.43 0.102-0.67 0.151-0.576 0.119-1.173 0.243-1.599 0.509-0.113 0.071-0.244 0.138-0.383 0.209-0.585 0.299-1.387 0.709-1.616 1.882-0.049 0.248-0.483 0.33-1.093 0.419-0.637 0.093-1.295 0.189-1.556 0.75-0.244 0.526 0.058 1.116 0.307 1.514l0.126 0.202c0.436 0.701 0.655 1.053 0.984 1.258 0.379 0.236 0.763 0.191 1.344 0.124 0.219-0.025 0.466-0.054 0.776-0.079 0.406 0.014 3.063 0.767 3.938 1.728 0.103 0.113 0.223 0.279 0.212 0.426-0.090 1.186-0.649 1.846-1.241 2.544-0.578 0.682-1.176 1.387-1.318 2.541-0.153 1.235-0.57 1.816-0.726 1.86-0.045-0.022-0.518-0.306-0.882-2.345-0.404-2.264-1.057-2.869-1.807-3.378-0.471-0.32-0.783-0.531-0.802-2.218-0.014-1.253-0.53-1.737-0.907-2.091-0.055-0.052-0.108-0.101-0.154-0.149-0.136-0.141-0.333-0.255-0.606-0.412-0.869-0.503-2.469-1.431-3.399-4.031 0.855-1.778 2.157-3.302 3.757-4.427zM12.965 26.173c-6.322 0-11.465-5.143-11.465-11.465 0-1.274 0.209-2.499 0.594-3.645 1.078 2.221 2.628 3.12 3.431 3.585 0.153 0.089 0.343 0.199 0.389 0.243 0.062 0.064 0.126 0.124 0.187 0.182 0.312 0.293 0.582 0.546 0.591 1.373 0.023 2.056 0.506 2.536 1.24 3.034 0.502 0.341 1.022 0.693 1.384 2.726 0.178 0.998 0.412 1.768 0.694 2.287 0.395 0.726 0.849 0.884 1.17 0.884 0.009 0 0.017-0 0.026-0 0.826-0.022 1.491-1.097 1.694-2.738 0.106-0.858 0.562-1.395 1.089-2.017 0.638-0.752 1.36-1.605 1.475-3.115 0.033-0.439-0.156-0.867-0.562-1.272-1.14-1.136-4.079-2.003-4.654-1.956-0.333 0.027-0.605 0.058-0.823 0.084-0.372 0.043-0.617 0.072-0.699 0.021-0.132-0.082-0.355-0.441-0.664-0.937l-0.127-0.204c-0.221-0.354-0.244-0.515-0.245-0.561 0.111-0.086 0.533-0.147 0.79-0.185 0.735-0.107 1.742-0.254 1.93-1.217 0.136-0.696 0.557-0.911 1.090-1.184 0.151-0.077 0.308-0.158 0.457-0.251 0.274-0.171 0.782-0.276 1.272-0.378 0.244-0.050 0.496-0.103 0.727-0.165 0.822-0.221 0.918-1.043 0.976-1.533 0.008-0.068 0.016-0.135 0.025-0.2 0.089-0.622 0.087-1.111-0.212-1.476-0.295-0.36-0.776-0.455-1.284-0.527-0.54-0.077-0.761-0.258-1.017-0.468-0.545-0.447-1.041-0.74-2.471-0.439-1.536 0.323-1.536 0.323-2.338 0.036-0.047-0.017-0.097-0.035-0.15-0.054 1.629-0.89 3.496-1.397 5.48-1.397 2.6 0 5.042 0.888 6.999 2.398-0.591 0.198-1.355 0.47-1.868 0.939-0.896 0.819-0.498 2.442-0.342 2.831 0.006 0.014 0.012 0.028 0.019 0.042 0.227 0.445 0.802 0.456 2.806 0.264 0.241-0.023 0.513-0.049 0.582-0.049 0.001 0 0.002 0 0.003 0 0.228 0.009 0.359 0.063 0.39 0.16 0.062 0.194-0.080 0.53-0.184 0.642-0.433 0.055-2.435 0.013-3.203-0.236-0.374-0.121-0.803 0.052-1.177 0.475-0.204 0.231-0.52 0.676-0.34 1.062 0.071 0.153-0.139 0.485-0.343 0.805-0.511 0.804-1.366 2.151 0.752 3.539 0.032 0.021 0.066 0.038 0.102 0.051 0.243 0.089 0.479 0.142 0.691 0.174v6.868c0 0.179 0.095 0.344 0.25 0.433l1.143 0.66c-1.866 1.226-4.020 1.871-6.278 1.871zM25.175 25.996v-6.149l5.325-3.074v6.149l-5.325 3.074zM25.297 10.39c0-0.276 0.224-0.5 0.5-0.5h3.75l-0.107-0.084c-0.218-0.17-0.256-0.484-0.086-0.702s0.484-0.256 0.702-0.086l1.252 0.978c0.121 0.095 0.192 0.24 0.192 0.394s-0.071 0.299-0.192 0.394l-1.252 0.978c-0.091 0.071-0.2 0.106-0.307 0.106-0.149 0-0.296-0.066-0.394-0.192-0.17-0.218-0.131-0.532 0.086-0.702l0.107-0.084h-3.75c-0.276-0-0.5-0.224-0.5-0.5zM30.572 28.279c0 0.276-0.224 0.5-0.5 0.5h-9.342l0.107 0.083c0.218 0.17 0.256 0.484 0.086 0.702-0.099 0.126-0.246 0.192-0.394 0.192-0.108 0-0.216-0.035-0.307-0.106l-1.252-0.978c-0.121-0.095-0.192-0.24-0.192-0.394s0.071-0.299 0.192-0.394l1.252-0.978c0.218-0.17 0.532-0.131 0.702 0.086s0.131 0.532-0.086 0.702l-0.107 0.084h9.342c0.276 0 0.5 0.224 0.5 0.5z"></path>
</svg>
