<!-- Generated by IcoMoon.io -->
<svg version="1.1" xmlns="http://www.w3.org/2000/svg" width="32" height="32" viewBox="0 0 32 32">
<title>fi-rr-heart</title>
<path d="M23.334 2.555c-1.501 0.023-2.97 0.442-4.258 1.215s-2.348 1.871-3.076 3.185c-0.727-1.314-1.788-2.412-3.076-3.185s-2.756-1.192-4.258-1.215c-2.393 0.104-4.648 1.151-6.272 2.912s-2.485 4.094-2.394 6.488c0 6.063 6.381 12.684 11.733 17.173 1.195 1.004 2.706 1.555 4.267 1.555s3.072-0.551 4.267-1.555c5.352-4.489 11.733-11.111 11.733-17.173 0.090-2.394-0.77-4.726-2.394-6.488s-3.879-2.808-6.272-2.912zM18.554 27.088c-0.715 0.602-1.619 0.932-2.553 0.932s-1.839-0.33-2.553-0.932c-6.851-5.748-10.78-11.263-10.78-15.133-0.091-1.687 0.489-3.342 1.612-4.603s2.701-2.027 4.388-2.13c1.686 0.103 3.264 0.869 4.388 2.13s1.704 2.916 1.612 4.603c0 0.354 0.14 0.693 0.391 0.943s0.589 0.39 0.943 0.39c0.354 0 0.693-0.14 0.943-0.39s0.391-0.589 0.391-0.943c-0.091-1.687 0.488-3.342 1.612-4.603s2.701-2.027 4.388-2.13c1.686 0.103 3.264 0.869 4.388 2.13s1.704 2.916 1.612 4.603c0 3.871-3.929 9.385-10.78 15.128v0.005z"></path>
</svg>
