<!-- Generated by IcoMoon.io -->
<svg version="1.1" xmlns="http://www.w3.org/2000/svg" width="30" height="32" viewBox="0 0 30 32">
<title>youtube-line</title>
<path d="M24.601 9.141c-0.095-0.39-0.366-0.684-0.677-0.774-0.548-0.161-3.221-0.527-8.868-0.527s-8.318 0.366-8.871 0.527c-0.306 0.089-0.577 0.383-0.674 0.774-0.137 0.554-0.494 2.877-0.494 6.542s0.358 5.987 0.494 6.544c0.095 0.388 0.366 0.682 0.675 0.771 0.552 0.162 3.223 0.528 8.87 0.528s8.319-0.366 8.871-0.527c0.306-0.089 0.577-0.383 0.674-0.774 0.137-0.554 0.494-2.882 0.494-6.542s-0.358-5.987-0.494-6.542zM27.032 8.491c0.574 2.329 0.574 7.192 0.574 7.192s0 4.863-0.574 7.192c-0.319 1.288-1.251 2.301-2.432 2.643-2.145 0.622-9.544 0.622-9.544 0.622s-7.395 0-9.544-0.622c-1.186-0.348-2.117-1.359-2.432-2.643-0.574-2.329-0.574-7.192-0.574-7.192s0-4.863 0.574-7.192c0.319-1.288 1.251-2.301 2.432-2.643 2.148-0.622 9.544-0.622 9.544-0.622s7.399 0 9.544 0.622c1.186 0.348 2.117 1.359 2.432 2.643zM12.547 20.259v-9.15l7.529 4.575-7.529 4.575z"></path>
</svg>
