<svg xmlns="http://www.w3.org/2000/svg" xmlns:xlink="http://www.w3.org/1999/xlink" width="1307.324" height="1035.485" viewBox="0 0 1307.324 1035.485"><defs><clipPath id="clip-path"><path id="Trazado_1758" data-name="Trazado 1758" d="M0,2945.454l1307.324,248.105V2158.074H0Z" fill="none" stroke="#707070" stroke-width="1"></path></clipPath><clipPath id="clip-path-2"><rect id="Rect&#xE1;ngulo_1513" data-name="Rect&#xE1;ngulo 1513" width="1300" height="962.652" fill="none"></rect></clipPath></defs><g id="Enmascarar_grupo_11" data-name="Enmascarar grupo 11" transform="translate(0 -2158.074)" clip-path="url(#clip-path)"><g id="Grupo_536" data-name="Grupo 536" transform="translate(0 2218.674)" opacity="0.19" style="mix-blend-mode: color-dodge;isolation: isolate"><g id="Grupo_535" data-name="Grupo 535" clip-path="url(#clip-path-2)"><path id="Trazado_1747" data-name="Trazado 1747" d="M1102.652,756.924c-16.262-3.709-30.029-13.27-40.429-29.971-16.891-27.15-3.153-65.148,26.024-74.431a35,35,0,0,1,14.405-1.326V625.161c-24.964-1.705-50.6,10.827-64.557,38.779-20.643,41.273-4.29,84.521,30.436,106.087a100.944,100.944,0,0,0,34.121,13.511Z" transform="translate(197.348 167.452)" fill="#5dbbc8" fill-rule="evenodd"></path><path id="Trazado_1748" data-name="Trazado 1748" d="M1094.286,664.539c-2.123-10.749-14.468-13.541-21.958-5.659-17.315,18.257-13.659,48.616,7.47,61.99a50.591,50.591,0,0,0,16.651,6.819V700.7a18.474,18.474,0,0,1-7.966-8.474c-2.711-5.5-.481-9.981,2.231-14.88,2.083-3.791,4.349-8.919,3.572-12.8" transform="translate(203.551 175.318)" fill="#5dbbc8" fill-rule="evenodd"></path><path id="Trazado_1749" data-name="Trazado 1749" d="M998.112,764.01c-14.431-42.6-7.714-83.5,17.995-119.917,8.557-12.126,21.148-19.857,34.227-25.708,22.24-9.944,44.063-13.583,65.233-10.647v-99.86c-8.643.391-17.307.715-25.764,2.3a173.181,173.181,0,0,0-65.474,26.92c-45.4,30.613-47.512,77.292-54.634,134.041-6.631,52.716-19.307,96.8,13.621,137.205a187.493,187.493,0,0,0,17.033,18.235h38.831c-18.067-15.119-32.008-35.9-41.066-62.571" transform="translate(184.434 136.071)" fill="#5dbbc8" fill-rule="evenodd"></path><path id="Trazado_1750" data-name="Trazado 1750" d="M661.02,864.564H723.14c-37.279-23.325-65.429-59.625-82.345-109.456-21.9-64.555-11.74-126.546,27.222-181.685,13.006-18.411,32.059-30.136,51.889-38.989,63.112-28.239,124.02-22.97,180.392,18.588,40.636,29.943,62.477,71.88,58.4,125.761-4.163,54.835-46.188,110.12-101.266,115.249-41.708,3.9-76.46-9.843-99.9-47.51-25.62-41.145-4.786-98.758,39.387-112.818,23.258-7.386,51.679,2.966,65.007,24.272,8.706,13.912,9.151,28.84,1.529,43.37-7.254,13.805-18.226,21.919-33.841,20.439-10.192-.97-18.09-6.24-22.9-16-4.125-8.311-.754-15.125,3.348-22.539,3.188-5.739,6.594-13.522,5.43-19.411-3.224-16.278-21.931-20.514-33.275-8.56-26.251,27.667-20.7,73.664,11.343,93.943,34.763,21.981,77.789,12.777,100.6-21.572,23.31-35.092,15.864-84.9-17.546-112.3-48.135-39.5-123.011-29.719-155.689,35.673-31.263,62.552-6.476,128.07,46.169,160.773,58.153,36.105,129.1,29.828,178.3-18.914,48.178-47.714,63.67-107.223,45.657-175.147-13.682-51.542-46.49-86.262-89.733-111.147-4.677-2.68-9.186-5.637-13.793-8.484.409-.918.818-1.849,1.219-2.774,4.213,1.092,8.568,1.766,12.6,3.375,54.167,21.9,95.2,59.119,119.1,116.173,28.515,68.108,14.33,154.7-33.879,209.127a235.327,235.327,0,0,1-46.132,40.563H1004.3c48.529-39.183,84.8-95.715,97.673-159.433,4.221-20.853,7.082-43.392,7.082-64.735a301.924,301.924,0,0,0-2.807-41.087,104.849,104.849,0,0,1-2.32-10.558c-11.026-57.673-37.9-106.087-78.7-145.07-54.251-51.892-118-78.748-191.749-77.535-17.941,1.314-36.144,1.007-53.748,4.3a261.8,261.8,0,0,0-99.215,40.8c-68.815,46.374-86.58,113.187-97.39,199.184-10.026,79.884-14.692,150.65,35.208,211.864a287.135,287.135,0,0,0,42.685,42.272" transform="translate(110.598 98.087)" fill="#5dbbc8" fill-rule="evenodd"></path><path id="Trazado_1751" data-name="Trazado 1751" d="M398.655,380.2c82.655,60.945,127.079,146.2,118.779,255.8C508.98,747.543,423.5,859.984,311.461,870.446c-84.858,7.919-155.557-20-203.248-96.661-52.081-83.692-9.726-200.873,80.142-229.459,47.283-15.053,105.108,6.023,132.22,49.373,17.7,28.3,18.612,58.663,3.115,88.205-14.763,28.1-37.094,44.581-68.819,41.559-20.764-1.979-36.838-12.707-46.627-32.546-8.342-16.9-1.5-30.771,6.844-45.814,6.483-11.7,13.427-27.524,11.051-39.487-6.56-33.119-44.616-41.756-67.718-17.414-53.365,56.263-42.062,149.855,23.085,191.062,70.715,44.768,158.258,25.989,204.653-43.869,47.4-71.379,32.251-172.708-35.7-228.449-97.933-80.337-250.209-60.458-316.693,72.574C-29.826,706.75,20.552,840.043,127.681,906.564c118.272,73.466,262.6,60.683,362.682-38.465,97.99-97.088,129.51-218.1,92.848-356.279-27.823-104.83-94.546-175.492-182.505-226.084-9.5-5.458-18.709-11.482-28.051-17.228-2.726-2.977-1.192-5.018,2.479-5.684,4.388-.562,17.43,3.586,25.613,6.9,110.2,44.5,193.651,120.205,242.248,236.288,58,138.509,29.218,314.677-68.9,425.376q-14.666,16.546-30.031,31.263h121.6c70.588-74.5,122.244-169.075,143.234-273.077,8.574-42.381,14.438-88.232,14.438-131.667a615.877,615.877,0,0,0-5.734-83.57c-1.562-4.771-2.877-11.75-4.716-21.446-22.444-117.347-77.1-215.794-160.1-295.14C542.408,52.242,412.744-2.387,262.74.08c-36.484,2.66-73.515,2.026-109.332,8.709A530.568,530.568,0,0,0,0,62.612V360.357C123.208,285.9,278.942,291.928,398.655,380.2" transform="translate(0 0)" fill="#5dbbc8" fill-rule="evenodd"></path></g></g></g></svg>