<svg xmlns="http://www.w3.org/2000/svg" xmlns:xlink="http://www.w3.org/1999/xlink" id="Grupo_8" data-name="Grupo 8" width="6.867" height="13.213" viewBox="0 0 6.867 13.213"><defs><clipPath id="clip-path"><rect id="Rect&#xE1;ngulo_60" data-name="Rect&#xE1;ngulo 60" width="6.867" height="13.213" fill="#fff"></rect></clipPath></defs><g id="Grupo_29" data-name="Grupo 29" clip-path="url(#clip-path)"><path id="Trazado_103" data-name="Trazado 103" d="M2.019,10.211q0-1.358,0-2.716c0-.27,0-.271-.279-.271-.5,0-1,0-1.5,0C.064,7.228,0,7.17,0,6.988q.014-.956,0-1.913c0-.185.053-.254.245-.25.521.01,1.042,0,1.563.006.161,0,.215-.051.213-.213-.007-.576-.019-1.153,0-1.728A2.991,2.991,0,0,1,2.82.849,2.709,2.709,0,0,1,4.614.03,10.046,10.046,0,0,1,6.687.084c.144.019.181.081.18.213,0,.576-.006,1.152,0,1.728,0,.158-.065.2-.21.2-.425,0-.849-.017-1.274.028-.593.062-.873.317-.9.913-.023.5,0,1-.01,1.5,0,.148.08.165.2.164q.926,0,1.851,0c.261,0,.276.026.241.29-.082.611-.166,1.222-.233,1.834-.022.206-.1.281-.308.276-.493-.013-.988,0-1.481-.008-.206-.005-.271.058-.27.268.007,1.8,0,3.593,0,5.39,0,.332,0,.332-.341.332-.631,0-1.262,0-1.893,0-.169,0-.227-.055-.226-.225.006-.926,0-1.851,0-2.777" transform="translate(0 0)" fill="#fff"></path></g></svg>