<svg xmlns="http://www.w3.org/2000/svg" xmlns:xlink="http://www.w3.org/1999/xlink" id="Grupo_7" data-name="Grupo 7" width="13.167" height="13.213" viewBox="0 0 13.167 13.213"><defs><clipPath id="clip-path"><rect id="Rect&#xE1;ngulo_59" data-name="Rect&#xE1;ngulo 59" width="13.167" height="13.213" fill="#fff"></rect></clipPath></defs><g id="Grupo_27" data-name="Grupo 27" clip-path="url(#clip-path)"><path id="Trazado_100" data-name="Trazado 100" d="M13.155,6.588c0,.931.016,1.862-.005,2.793a4.131,4.131,0,0,1-.478,1.914A3.378,3.378,0,0,1,9.9,13.1a55.817,55.817,0,0,1-5.888.071,4.579,4.579,0,0,1-1.764-.336A3.4,3.4,0,0,1,.156,10.229,9.1,9.1,0,0,1,.013,8.473c-.016-1.232-.02-2.464,0-3.7A7.517,7.517,0,0,1,.288,2.484,3.405,3.405,0,0,1,3.283.116,54.722,54.722,0,0,1,9.15.043a4.831,4.831,0,0,1,1.613.264,3.427,3.427,0,0,1,2.315,2.815,6.905,6.905,0,0,1,.087,1.268c0,.732,0,1.465,0,2.2h-.01m-1.2.028c0-.431,0-.862,0-1.293a12.759,12.759,0,0,0-.1-2.007,2.182,2.182,0,0,0-1.534-1.855A4.147,4.147,0,0,0,9.1,1.282q-2.494-.044-4.989,0A4.287,4.287,0,0,0,3.09,1.4,2.19,2.19,0,0,0,1.436,2.952,5.714,5.714,0,0,0,1.26,4.578q-.029,2.032,0,4.065a7.977,7.977,0,0,0,.107,1.368,2.244,2.244,0,0,0,1.716,1.812,8.275,8.275,0,0,0,1.837.142c1.484.022,2.97.034,4.454-.033a2.857,2.857,0,0,0,1.536-.449,2.413,2.413,0,0,0,1-1.933c.076-.976.026-1.956.05-2.934" transform="translate(0 0)" fill="#fff"></path><path id="Trazado_101" data-name="Trazado 101" d="M84.9,81.433a3.4,3.4,0,1,1-3.394-3.4,3.368,3.368,0,0,1,3.394,3.4m-5.553.012A2.142,2.142,0,0,0,81.511,83.6a2.165,2.165,0,1,0-.015-4.331,2.146,2.146,0,0,0-2.151,2.173" transform="translate(-74.899 -74.829)" fill="#fff"></path><path id="Trazado_102" data-name="Trazado 102" d="M226.838,56.514a.8.8,0,0,1,.8-.81.81.81,0,0,1,0,1.62.79.79,0,0,1-.8-.81" transform="translate(-217.521 -53.416)" fill="#fff"></path></g></svg>