<svg xmlns="http://www.w3.org/2000/svg" xmlns:xlink="http://www.w3.org/1999/xlink" id="Grupo_9" data-name="Grupo 9" width="16.117" height="13.213" viewBox="0 0 16.117 13.213"><defs><clipPath id="clip-path"><rect id="Rect&#xE1;ngulo_61" data-name="Rect&#xE1;ngulo 61" width="16.117" height="13.213" fill="#fff"></rect></clipPath></defs><g id="Grupo_31" data-name="Grupo 31" clip-path="url(#clip-path)"><path id="Trazado_104" data-name="Trazado 104" d="M.025,11.681a6.687,6.687,0,0,0,4.686-1.265c-.029-.091-.084-.086-.132-.092a3.309,3.309,0,0,1-2.727-2.03c-.037-.079-.113-.175-.043-.257s.162-.029.242-.012a2.59,2.59,0,0,0,1-.066A3.728,3.728,0,0,1,1.68,7.172a3.348,3.348,0,0,1-1.092-2.3c-.013-.186.05-.238.217-.154a3.432,3.432,0,0,0,.84.272.378.378,0,0,0,.289-.009A3.809,3.809,0,0,1,1.3,4.333,3.281,3.281,0,0,1,.958.845C1.071.6,1.1.6,1.281.809A9.369,9.369,0,0,0,6.451,3.887a8.212,8.212,0,0,0,1.226.173c.16.011.227-.031.2-.216A3.344,3.344,0,0,1,13.414.853a.459.459,0,0,0,.473.131A7.148,7.148,0,0,0,15.4.412c.087-.045.193-.159.268-.091s-.019.2-.06.3a3.22,3.22,0,0,1-.965,1.249c-.053.042-.1.086-.154.13,0,0,0,.016,0,.038a7.279,7.279,0,0,0,1.63-.447.452.452,0,0,1-.149.312,6.04,6.04,0,0,1-1.2,1.228.509.509,0,0,0-.224.444,9.615,9.615,0,0,1-4.1,8.017A8.633,8.633,0,0,1,6.5,13.112a9.838,9.838,0,0,1-4.084-.269A9.233,9.233,0,0,1,.088,11.808C.059,11.79.029,11.775,0,11.758l.026-.077" transform="translate(0.001 0.001)" fill="#fff"></path></g></svg>