<svg xmlns="http://www.w3.org/2000/svg" xmlns:xlink="http://www.w3.org/1999/xlink" id="Grupo_529" data-name="Grupo 529" width="18.827" height="17.85" viewBox="0 0 18.827 17.85"><defs><clipPath id="clip-path"><path id="Trazado_1746" data-name="Trazado 1746" d="M13.259,13.645a5.245,5.245,0,0,0,1.552-5.6,5.794,5.794,0,0,0-3.052-3.554c-.159-.086-.313-.181-.469-.271-.045-.047-.02-.079.042-.089a1.489,1.489,0,0,1,.428.109,6.885,6.885,0,0,1,4.051,3.714,6.293,6.293,0,0,1-1.152,6.686,6.824,6.824,0,0,1-6,2.243A6.526,6.526,0,0,1,2.9,12.437c-.69-1.912-.458-4.659,1.16-6.065a6.266,6.266,0,0,1,7.667-.4A4.257,4.257,0,0,1,13.711,10a4.049,4.049,0,0,1-3.444,3.685,3.425,3.425,0,0,1-3.4-1.519,2.427,2.427,0,0,1,1.34-3.607,2.055,2.055,0,0,1,2.211.776,1.259,1.259,0,0,1,.052,1.386,1.138,1.138,0,0,1-1.151.653.927.927,0,0,1-.78-.512.685.685,0,0,1,.114-.72,1,1,0,0,0,.185-.621.656.656,0,0,0-1.132-.274,1.905,1.905,0,0,0,.386,3,2.546,2.546,0,0,0,3.422-.689,2.637,2.637,0,0,0-.6-3.591,3.52,3.52,0,0,0-5.3,1.141,3.764,3.764,0,0,0,1.57,5.141,5.3,5.3,0,0,0,2.672.738,4.944,4.944,0,0,0,3.392-1.342M9.452,0A17.579,17.579,0,0,0,7.624.138a9.25,9.25,0,0,0-3.375,1.3A8.592,8.592,0,0,0,.085,7.765,9.4,9.4,0,0,0,0,8.993v.039a8.321,8.321,0,0,0,2.135,5.553,9.454,9.454,0,0,0,6.686,3.261l.293,0h.04a10.21,10.21,0,0,0,5.38-1.412,8.9,8.9,0,0,0,4.052-5.6,10.048,10.048,0,0,0,.241-2.069,9.126,9.126,0,0,0-.1-1.314,2.922,2.922,0,0,1-.079-.337A8.356,8.356,0,0,0,15.975,2.48,9.245,9.245,0,0,0,9.615,0H9.452" fill="none"></path></clipPath><linearGradient id="linear-gradient" y1="1" x2="0.013" y2="1" gradientUnits="objectBoundingBox"><stop offset="0" stop-color="#6fc5d1"></stop><stop offset="0.979" stop-color="#fff"></stop><stop offset="1" stop-color="#fff"></stop></linearGradient></defs><g id="Grupo_528" data-name="Grupo 528" clip-path="url(#clip-path)"><rect id="Rect&#xE1;ngulo_1504" data-name="Rect&#xE1;ngulo 1504" width="18.827" height="17.85" transform="translate(0 0)" fill="url(#linear-gradient)"></rect></g></svg>