<svg xmlns="http://www.w3.org/2000/svg" xmlns:xlink="http://www.w3.org/1999/xlink" id="Grupo_2" data-name="Grupo 2" width="160.241" height="65.307" viewBox="0 0 160.241 65.307"><defs><clipPath id="clip-path"><rect id="Rect&#xE1;ngulo_1" data-name="Rect&#xE1;ngulo 1" width="160.241" height="65.307" fill="none"></rect></clipPath></defs><g id="Grupo_1" data-name="Grupo 1" clip-path="url(#clip-path)"><path id="Trazado_2" data-name="Trazado 2" d="M149.9,100.2h0l2.87-3.193H149.9Zm-1.142-4.322h0c1.486,0,2.863,0,4.239,0,.45,0,.866.056,1.084.514s-.013.818-.314,1.152c-.965,1.069-1.874,2.194-2.9,3.2a2.751,2.751,0,0,0-.383,3.7c1.137,2.036,2.3,4.058,3.436,6.1a.766.766,0,0,0,.767.472c1.458-.013,2.917.01,4.376.015.142,0,.375,0,.407-.069.062-.095-.1-.327-.177-.458-1.321-2.29-2.624-4.591-3.981-6.859a1.154,1.154,0,0,1,.06-1.486c.543-.66,1.12-1.291,1.676-1.94a5.851,5.851,0,0,0,1.42-4.657,4.424,4.424,0,0,0-4.614-4.053c-3.015-.037-6.031-.012-9.046-.009-.249,0-.478.081-.478.464,0,.313,0,11.859.007,17.909,0,.136.009.8.009.8,0,.2.076.288.277.288,0,0,2.28.013,3.749.013.248,0,.385-.047.385-.34Zm-13.734,9.376h0c-.631-2.456-2.511-10.024-3.368-13.341a.548.548,0,0,0-.647-.482c-1.05.018-2.1.021-3.15,0a.592.592,0,0,0-.71.544c-.94,3.971-1.909,7.935-2.872,11.9-.127.524-.241.963-.366,1.452-.047.182-.245.149-.295-.058-.276-1.165-.55-2.209-.844-3.355-.855-3.331-1.738-6.656-2.627-9.979-.05-.185-.156-.472-.382-.472-1.327-.034-4-.022-4-.022-.1,0-.183.091-.15.241.042.193.057.288.1.444.406,1.682.793,3.368,1.226,5.042q1.495,5.787,3.03,11.562a3.24,3.24,0,0,0,1.839,2.14c1.967.945,5.044.24,5.683-2.414,0,0,1.142-4.279,1.72-6.417.038-.14.064-.232.116-.408a.108.108,0,0,1,.211,0c.656,2.419,1.291,4.81,1.965,7.224a3.118,3.118,0,0,0,1.6,1.915c2.044,1.121,5.242.35,5.906-2.385,1.345-5.533,2.785-11.042,4.182-16.561.046-.182.006-.382-.224-.383l-3.825.018c-.234,0-.445.3-.491.49-.681,2.775-1.338,5.555-2.009,8.331q-.611,2.532-1.238,5.059c-.057.233-.254.411-.382-.087m14.82.318c0,1.515.005,3.294,0,4.809-.005,1.378-.077,1.692-1.437,1.691-1.128,0-2.8,0-3.924,0-.992,0-1.238-.392-1.24-1.554q-.01-6.448-.011-12.9c0-.25,0-1.167,0-1.167-.131.51-.383,1.42-.516,1.93-.908,3.48-1.775,6.969-2.74,10.433a4.84,4.84,0,0,1-5.806,3.439,4.586,4.586,0,0,1-3.866-3.569c-.252-.976-.567-2.041-.871-3.124,0,0-.132.389-.163.5-.274.953-.569,1.9-.8,2.863-.687,2.807-3.682,3.711-5.72,3.345a4.534,4.534,0,0,1-3.92-3.573q-1.8-7.064-3.606-14.125c-.231-.9-.448-1.811-.661-2.719a1.082,1.082,0,0,1,1.092-1.471c1.419-.036,2.84-.026,4.259,0a1.1,1.1,0,0,1,1.2.974q1.238,4.678,2.468,9.358c.044.166.2.832.2.832.149-.584.354-1.486.495-2.072q.967-4.025,1.926-8.051a1.138,1.138,0,0,1,1.259-1.042q1.954-.029,3.909,0c.767.011,1.059.274,1.26,1.037q1.238,4.708,2.473,9.418c.032.121.152.632.152.632.2-.817.491-1.912.688-2.73q.888-3.684,1.771-7.37a1.02,1.02,0,0,1,1.172-.942l14.795-.012c2.363.034,4.351.9,5.346,3.168a6.591,6.591,0,0,1-.6,6.613,17.1,17.1,0,0,1-1.777,2.078.9.9,0,0,0-.133,1.263c1.281,2.132,2.514,4.295,3.759,6.448a3.29,3.29,0,0,1,.3.627,1.043,1.043,0,0,1-.944,1.462l-5.483-.009a1.254,1.254,0,0,1-1.066-.8c-.925-1.666-1.864-3.324-2.8-4.983-.092-.163-.429-.7-.429-.7" transform="translate(-59.726 -47.128)" fill="#8f0563" fill-rule="evenodd"></path><path id="Trazado_3" data-name="Trazado 3" d="M241.324,91.434h0c0,3.46-.015,6.729.01,10.114a26.374,26.374,0,0,0,.2,3.429,5.714,5.714,0,0,0,4.969,5.2,23.825,23.825,0,0,0,4.7.277c.338.019.372-.181.371-.444,0-1.087-.014-2.177.006-3.265.007-.38-.122-.51-.5-.505-.8.009-1.6.009-2.39-.044a3.033,3.033,0,0,1-3.067-3.026c-.028-.328-.038-.66-.039-.99q-.014-5.189-.021-10.378v-.464c0-.2-.055-.309-.25-.309h-3.7c-.2,0-.285.127-.285.4m-11.348-.192h0l.006.346c0,3.266-.009,6.532.022,9.8a28.771,28.771,0,0,0,.206,3.547,5.694,5.694,0,0,0,4.93,5.237,20.611,20.611,0,0,0,4.756.288c.344.019.364-.2.363-.453,0-1.146,0-2.294,0-3.441,0-.128-.016-.349-.23-.349-.919,0-1.689.029-2.6-.012a2.927,2.927,0,0,1-2.708-1.529,5.186,5.186,0,0,1-.438-2.136c-.051-3.576-.038-7.153-.047-10.73,0-.193,0-.367,0-.576a.174.174,0,0,0-.2-.2h-3.876c-.1,0-.186.049-.186.206m-20.366,9.448h0a15.258,15.258,0,0,0,.234,2.376,8.529,8.529,0,0,0,5.944,7.192,11.278,11.278,0,0,0,5.363.391,8.3,8.3,0,0,0,6.791-4.972c1.2-2.444,1.073-7.007.264-9.393a8.193,8.193,0,0,0-5.453-5.273,11.9,11.9,0,0,0-5.65-.337,8.236,8.236,0,0,0-5.669,3.541,11.326,11.326,0,0,0-1.824,6.475m19.3-5.775c0-1.023-.021-2.331-.018-3.375,0-1.279.352-1.634,1.621-1.639q1.663-.005,3.327,0c1.077,0,1.463.394,1.464,1.49,0,3.21,0,6.419.008,9.628,0,.739.044,1.478.092,2.215a1.782,1.782,0,0,0,1.533,1.8,26.77,26.77,0,0,0,3.338.106c-.02-4.612-.042-9.043-.058-13.551-.005-1.359.325-1.684,1.687-1.685,1.069,0,2.14,0,3.209,0,1.139,0,1.515.377,1.517,1.5,0,3.093-.006,6.186,0,9.279,0,.835.038,1.673.087,2.507a1.878,1.878,0,0,0,1.777,1.892c.888.086,1.786.075,2.68.092,1.1.021,1.479.373,1.5,1.471q.028,1.75,0,3.5c-.016.93-.361,1.366-1.215,1.4a18.929,18.929,0,0,1-5.51-.357,8.94,8.94,0,0,1-1.8-.671,6.564,6.564,0,0,1-1.525-1.049,7.277,7.277,0,0,1-.736-.786,6.2,6.2,0,0,1-.528-.813c0,.667,0,1.366,0,1.894,0,1.494-.308,1.783-1.822,1.806a17.287,17.287,0,0,1-5.038-.422,6.671,6.671,0,0,1-5.172-5.13c-.02-.089-.109-.478-.109-.478a12.459,12.459,0,0,1-1.006,1.94,9.673,9.673,0,0,1-7.524,4.311,11.653,11.653,0,0,1-7.315-1.438,9.167,9.167,0,0,1-4.219-5.514,14.3,14.3,0,0,1,.149-8.788,9.457,9.457,0,0,1,8.825-6.593c3.083-.225,6.1.267,8.477,2.409a9.4,9.4,0,0,1,2.307,3.051" transform="translate(-108.766 -46.631)" fill="#8f0563" fill-rule="evenodd"></path><path id="Trazado_4" data-name="Trazado 4" d="M301.817,111.118h.326c1.984,0,3.969-.017,5.953,0a9.59,9.59,0,0,0,3.91-.807,5.745,5.745,0,0,0,2.465-8.439,6.941,6.941,0,0,0-3.947-2.428q-1.219-.345-2.444-.665c-.5-.132-1.01-.253-1.51-.4a2.746,2.746,0,0,1-1.223-.591,1.154,1.154,0,0,1-.1-1.283,1.511,1.511,0,0,1,1.045-.68,4.718,4.718,0,0,1,1.135-.1c2.178-.009,4.357,0,6.536,0h.374c.251,0,.308-.022.308-.205V91.831c0-.1-.022-.213-.155-.213l-.332,0c-2.334-.006-4.67-.055-7,.008a8.894,8.894,0,0,0-2.618.493,5.556,5.556,0,0,0-3.778,5.176,5.135,5.135,0,0,0,3.631,4.915c.942.357,1.935.577,2.9.861.986.289,1.982.553,2.954.884a1.587,1.587,0,0,1,1.036,1.249c.146,1.276-1.035,1.691-2.044,1.823a12.524,12.524,0,0,1-1.479.075c-.159,0-.346,0-.505,0l-5.346,0a.393.393,0,0,0-.444.439s-.023,1.97-.021,3.181c0,.315.081.4.372.4m4.539-13.984a.609.609,0,0,0,.345.175c.864.222,1.723.466,2.584.7l.751.2q.476.129.95.267c.354.1.7.214,1.052.338a6.574,6.574,0,0,1,3.913,3.385,6.911,6.911,0,0,1-2.084,8.232,8.939,8.939,0,0,1-5.345,1.733c-2.2.038-4.4.024-6.594.025-1.267,0-1.582-.2-1.579-1.468,0-1.051,0-2.222.007-3.273.01-1.1.386-1.479,1.476-1.48,2.374,0,4.747,0,7.12,0,.342,0,.825,0,1.053-.293.256-.325-.035-.7-.409-.812-1.394-.42-2.8-.8-4.2-1.188a8.629,8.629,0,0,1-3.767-1.888,6.316,6.316,0,0,1,.4-9.476,8.6,8.6,0,0,1,5.715-1.806c2.237,0,4.473.03,6.709.008,1.022,0,1.265.324,1.266,1.28l.027,3.622c-.021,1.037-.412,1.4-1.524,1.4-.93,0-1.867-.007-2.8-.011-.863,0-1.726,0-2.589,0-.769,0-2.085,0-2.279.043-.1.022-.295.158-.2.288" transform="translate(-156.305 -47.207)" fill="#8f0563" fill-rule="evenodd"></path><path id="Trazado_5" data-name="Trazado 5" d="M229.237,106.693h0a9.89,9.89,0,0,0-.223-2.383,3.581,3.581,0,0,0-3.091-2.926c-1.817-.212-3.362.436-4,1.872a8.433,8.433,0,0,0-.023,6.329,3.528,3.528,0,0,0,3.609,2.065,3.4,3.4,0,0,0,3.238-2.347,8.4,8.4,0,0,0,.486-2.61m1.1-.25a8.568,8.568,0,0,1-.736,3.686,4.907,4.907,0,0,1-9.069-1,9.555,9.555,0,0,1,.134-5.737,4.938,4.938,0,0,1,9.256.18,7.754,7.754,0,0,1,.288,1.245c.073.538.088,1.084.127,1.626" transform="translate(-114.83 -52.295)" fill="#8f0563" fill-rule="evenodd"></path><path id="Trazado_6" data-name="Trazado 6" d="M229.237,106.693h0a9.89,9.89,0,0,0-.223-2.383,3.581,3.581,0,0,0-3.091-2.926c-1.817-.212-3.362.436-4,1.872a8.433,8.433,0,0,0-.023,6.329,3.528,3.528,0,0,0,3.609,2.065,3.4,3.4,0,0,0,3.238-2.347A8.4,8.4,0,0,0,229.237,106.693Zm1.1-.25a8.568,8.568,0,0,1-.736,3.686,4.907,4.907,0,0,1-9.069-1,9.555,9.555,0,0,1,.134-5.737,4.938,4.938,0,0,1,9.256.18,7.754,7.754,0,0,1,.288,1.245C230.286,105.354,230.3,105.9,230.34,106.442Z" transform="translate(-114.83 -52.295)" fill="none" stroke="#adaeb2" stroke-width="0.216"></path><path id="Trazado_7" data-name="Trazado 7" d="M215.714,52.6h0a4.5,4.5,0,0,1-3.956,1.479,4.3,4.3,0,0,1-3.8-2.93,3.9,3.9,0,0,1,.611-3.83,2.729,2.729,0,0,1,1.163-.821,4,4,0,0,1,4.044.392,2.808,2.808,0,0,1,1.309,2.65,2.669,2.669,0,0,1-2.27,2.429,2.258,2.258,0,0,1-2.241-1,1.6,1.6,0,0,1,.884-2.377,1.353,1.353,0,0,1,1.456.511.83.83,0,0,1,.034.914.749.749,0,0,1-.759.43.61.61,0,0,1-.513-.336.452.452,0,0,1,.076-.475.659.659,0,0,0,.121-.409.432.432,0,0,0-.746-.181,1.256,1.256,0,0,0,.254,1.98,1.679,1.679,0,0,0,2.256-.454,1.738,1.738,0,0,0-.394-2.367,2.319,2.319,0,0,0-3.49.752,2.48,2.48,0,0,0,1.034,3.388,3.327,3.327,0,0,0,4-.4,3.458,3.458,0,0,0,1.024-3.691,3.822,3.822,0,0,0-2.012-2.342c-.105-.057-.206-.119-.309-.178q.014-.029.027-.059a2.488,2.488,0,0,1,.282.071,4.542,4.542,0,0,1,2.671,2.448,4.149,4.149,0,0,1-.76,4.407M218.4,47.86a2,2,0,0,1-.052-.222,5.5,5.5,0,0,0-1.765-3.058,6.091,6.091,0,0,0-4.3-1.633,11.476,11.476,0,0,0-1.205.091,6.092,6.092,0,0,0-2.224.86c-1.542.977-1.614,2.468-1.856,4.28-.225,1.684-.656,3.091.463,4.381a6.228,6.228,0,0,0,4.407,2.15,6.827,6.827,0,0,0,3.765-.929,5.867,5.867,0,0,0,2.671-3.69,6.61,6.61,0,0,0,.159-1.364,6.015,6.015,0,0,0-.063-.866" transform="translate(-107.822 -22.4)" fill="#980067" fill-rule="evenodd"></path><path id="Trazado_8" data-name="Trazado 8" d="M192.133,38.433h0a3.253,3.253,0,0,1-.079-.337,8.341,8.341,0,0,0-2.674-4.633,9.235,9.235,0,0,0-6.515-2.476,17.516,17.516,0,0,0-1.826.137,9.216,9.216,0,0,0-3.371,1.3c-2.338,1.481-2.942,3.615-3.309,6.361-.341,2.551-.5,4.811,1.2,6.766a9.443,9.443,0,0,0,6.678,3.257A10.335,10.335,0,0,0,187.94,47.4a8.891,8.891,0,0,0,4.048-5.592,10.058,10.058,0,0,0,.241-2.067,9.059,9.059,0,0,0-.1-1.312m-4.067,7.175a6.817,6.817,0,0,1-6,2.241,6.521,6.521,0,0,1-5.75-4.441,5.9,5.9,0,0,1,.925-5.8,4.127,4.127,0,0,1,1.763-1.245,6.061,6.061,0,0,1,6.129.594,4.252,4.252,0,0,1,1.984,4.016,4.044,4.044,0,0,1-3.44,3.681,3.42,3.42,0,0,1-3.394-1.518,2.424,2.424,0,0,1,1.338-3.6,2.054,2.054,0,0,1,2.209.775,1.258,1.258,0,0,1,.052,1.385,1.139,1.139,0,0,1-1.15.653.925.925,0,0,1-.778-.511.683.683,0,0,1,.113-.72,1,1,0,0,0,.185-.62.655.655,0,0,0-1.131-.273,1.9,1.9,0,0,0,.386,3,2.543,2.543,0,0,0,3.418-.689,2.634,2.634,0,0,0-.6-3.586,3.517,3.517,0,0,0-5.29,1.139,3.761,3.761,0,0,0,1.569,5.134,5.043,5.043,0,0,0,6.058-.6,5.239,5.239,0,0,0,1.551-5.594,5.789,5.789,0,0,0-3.049-3.549c-.159-.086-.312-.18-.468-.271l.041-.089a3.762,3.762,0,0,1,.428.108,6.884,6.884,0,0,1,4.047,3.71,6.287,6.287,0,0,1-1.151,6.678" transform="translate(-90.828 -16.161)" fill="#349936" fill-rule="evenodd"></path><path id="Trazado_9" data-name="Trazado 9" d="M133.633,29.743h0a13.864,13.864,0,0,1-12.2,4.558c-5.62-.663-9.743-3.62-11.7-9.032-1.4-3.884-.93-9.466,2.357-12.322a12.731,12.731,0,0,1,15.577-.806,8.65,8.65,0,0,1,4.035,8.169c-.288,3.562-3.192,7.153-7,7.487A6.956,6.956,0,0,1,117.8,24.71a4.93,4.93,0,0,1,2.723-7.328,4.176,4.176,0,0,1,4.492,1.576,2.558,2.558,0,0,1,.106,2.817,2.312,2.312,0,0,1-2.338,1.327,1.884,1.884,0,0,1-1.584-1.039,1.392,1.392,0,0,1,.233-1.463,2.039,2.039,0,0,0,.376-1.261,1.334,1.334,0,0,0-2.3-.556,3.871,3.871,0,0,0,.784,6.1,5.174,5.174,0,0,0,6.953-1.4,5.357,5.357,0,0,0-1.213-7.3,7.153,7.153,0,0,0-10.76,2.317c-2.161,4.063-.449,8.32,3.191,10.444a10.255,10.255,0,0,0,12.322-1.228,10.657,10.657,0,0,0,3.155-11.378,11.773,11.773,0,0,0-6.2-7.22c-.322-.175-.635-.367-.953-.55-.092-.1-.04-.16.084-.182a3.018,3.018,0,0,1,.87.221,13.99,13.99,0,0,1,8.23,7.546,12.786,12.786,0,0,1-2.34,13.584m8.273-14.6a6.024,6.024,0,0,1-.16-.685,16.976,16.976,0,0,0-5.439-9.425A18.791,18.791,0,0,0,123.055,0,35.717,35.717,0,0,0,119.34.28a18.793,18.793,0,0,0-6.857,2.65,17.457,17.457,0,0,0-8.461,12.846,16.978,16.978,0,0,0,4.165,13.857,19.2,19.2,0,0,0,13.584,6.624A21.031,21.031,0,0,0,133.377,33.4a18.085,18.085,0,0,0,8.234-11.375,20.42,20.42,0,0,0,.49-4.2,18.54,18.54,0,0,0-.195-2.669" transform="translate(-54.166 0)" fill="#d0002d" fill-rule="evenodd"></path><path id="Trazado_10" data-name="Trazado 10" d="M92.316,109.458h0a3.4,3.4,0,0,1-3.238,2.347,3.437,3.437,0,0,1-3.609-2.065,8.461,8.461,0,0,1,.023-6.329c.621-1.441,2.18-2.084,4-1.872a3.58,3.58,0,0,1,3.091,2.926,9.9,9.9,0,0,1,.223,2.383,8.4,8.4,0,0,1-.486,2.609m1.174-5.731a4.938,4.938,0,0,0-9.256-.18,9.557,9.557,0,0,0-.134,5.737,4.908,4.908,0,0,0,9.07,1,8.566,8.566,0,0,0,.735-3.686c-.039-.542-.054-1.087-.127-1.626a7.7,7.7,0,0,0-.288-1.245" transform="translate(-43.669 -52.376)" fill="#8f0563" fill-rule="evenodd"></path><path id="Trazado_11" data-name="Trazado 11" d="M92.316,109.458h0a3.4,3.4,0,0,1-3.238,2.347,3.437,3.437,0,0,1-3.609-2.065,8.461,8.461,0,0,1,.023-6.329c.621-1.441,2.18-2.084,4-1.872a3.58,3.58,0,0,1,3.091,2.926,9.9,9.9,0,0,1,.223,2.383A8.4,8.4,0,0,1,92.316,109.458Zm1.174-5.731a4.938,4.938,0,0,0-9.256-.18,9.557,9.557,0,0,0-.134,5.737,4.908,4.908,0,0,0,9.07,1,8.566,8.566,0,0,0,.735-3.686c-.039-.542-.054-1.087-.127-1.626A7.7,7.7,0,0,0,93.49,103.727Z" transform="translate(-43.669 -52.376)" fill="none" stroke="#adaeb2" stroke-width="0.216"></path><path id="Trazado_12" data-name="Trazado 12" d="M53.9,105.833h0a8.305,8.305,0,0,1-6.791,4.973,11.277,11.277,0,0,1-5.363-.391,8.529,8.529,0,0,1-5.944-7.192,14.459,14.459,0,0,1,.635-7.134,7.807,7.807,0,0,1,.954-1.718,8.236,8.236,0,0,1,5.669-3.541,11.9,11.9,0,0,1,5.65.337,8.194,8.194,0,0,1,5.453,5.273c.809,2.386.939,6.95-.264,9.393m-20.085,4.8h-3.5a.969.969,0,0,1-.957-.564c-2.44-3.908-4.808-7.66-7.262-11.558l-.1-.15c-.072-.124-.239-.15-.239.085,0,.164,0,.216,0,.345,0,3.714-.009,7.429.01,11.145,0,.512-.1.722-.671.7l-3.15-.006c-.393.008-.549-.1-.549-.521q.017-9.247,0-18.5c0-.455.17-.554.584-.545h3.384a.891.891,0,0,1,.881.5q3.678,5.918,7.388,11.818c.08.127.118.175.2.3s.174.043.173-.018V91.424a.251.251,0,0,1,.274-.287h3.872c.209,0,.289.077.289.266,0,6.087,0,12.486.012,18.573,0,.506-.12.678-.646.661m-18.731-3.4h0c-1.364,2.419-3.607,3.267-6.2,3.365-2.195.082-4.394.015-6.591.034-.41,0-.54-.131-.53-.537l-.005-2.974c-.017-.488.174-.579.613-.576,2.411.016,4.822,0,7.233,0a4.656,4.656,0,0,0,.7-.054,1.569,1.569,0,0,0,1.247-2.209,1.836,1.836,0,0,0-.906-.8,8.959,8.959,0,0,0-1.166-.384c-.6-.18-1.2-.337-1.791-.52a34.234,34.234,0,0,1-3.325-1.05,4.814,4.814,0,0,1-3.255-4.73,5.352,5.352,0,0,1,3.539-5.09,9.642,9.642,0,0,1,3.121-.61h6.864c.345,0,.355.205.355.308V94.84c0,.222-.068.386-.381.386-1.818,0-6.56.053-7.849.138a1.95,1.95,0,0,0-1.05.362,1.088,1.088,0,0,0,.359,1.838s2.6.779,3.913,1.138a10.749,10.749,0,0,1,3.54,1.439,5.359,5.359,0,0,1,1.568,7.092M54.814,95.1a8.937,8.937,0,0,0-2.251-3.078c-2.38-2.142-5.393-2.634-8.477-2.409a9.426,9.426,0,0,0-8.536,5.844c0-.322,0-.53,0-.53,0-.462,0-.9,0-1.325v-.839c0-.446,0-.883-.006-1.319-.01-1.05-.279-1.451-1.321-1.46-1.167-.01-2.64,0-3.807,0-1.334,0-1.489.332-1.489,1.648q0,3.852,0,7.7v.835s-.274-.4-.333-.5c-1.814-2.9-3.643-5.793-5.427-8.713a1.808,1.808,0,0,0-1.754-.985l-3.639.011c-1.213,0-1.432.357-1.433,1.558q-.006,4.668-.009,9.337c0,.191,0,.859,0,.859s-.244-.4-.282-.459a6.8,6.8,0,0,0-3.978-3.056c-1.536-.485-3.108-.86-4.662-1.29-.268-.075-.521-.142-.784-.236a.169.169,0,0,1-.1-.2c.026-.145.332-.156.47-.164.225-.011.45-.019.676-.023l.351,0c2.159-.007,4.318.011,6.477.018,1.176,0,1.561-.386,1.578-1.573l.014-3.549a1.1,1.1,0,0,0-1.211-1.2l-6.418.019a14.186,14.186,0,0,0-3.9.536A6.763,6.763,0,0,0,.014,96.436a6,6,0,0,0,3.7,6,33.182,33.182,0,0,0,3.6,1.159c.909.28,1.827.529,2.731.823a.49.49,0,0,1,.225.837,1.515,1.515,0,0,1-.935.219c-2.334.009-4.668,0-7,0-1.322,0-1.638.324-1.638,1.666,0,1.011.006,2.023,0,3.035-.007,1.185.318,1.519,1.517,1.52,1.886,0,3.774.02,5.66-.023a17.411,17.411,0,0,0,3.009-.264,7.135,7.135,0,0,0,5.155-3.637c.05-.091.3-.542.3-.542,0,1.089-.012,2.16,0,3.082.017,1.006.377,1.369,1.388,1.381q1.867.023,3.735,0c.987-.01,1.38-.4,1.392-1.386.018-1.615.007-3.229.007-4.844v-3.654l.149.22c.391.614.785,1.228,1.173,1.844,1.472,2.336,2.927,4.682,4.428,7a1.626,1.626,0,0,0,1,.757c1.629.079,3.264.051,4.9.026a.938.938,0,0,0,.984-.957c.023-.44.034-.881.041-1.322l0-3.193a9.092,9.092,0,0,0,3.794,4.319,11.656,11.656,0,0,0,7.315,1.438,9.675,9.675,0,0,0,7.524-4.312,9.545,9.545,0,0,0,1.005-1.94A16.462,16.462,0,0,0,54.814,95.1" transform="translate(0 -46.713)" fill="#8f0563" fill-rule="evenodd"></path></g></svg>