<svg xmlns="http://www.w3.org/2000/svg" xmlns:xlink="http://www.w3.org/1999/xlink" id="Grupo_525" data-name="Grupo 525" width="525.164" height="205.922" viewBox="0 0 525.164 205.922"><defs><clipPath id="clip-path"><rect id="Rect&#xE1;ngulo_1502" data-name="Rect&#xE1;ngulo 1502" width="525.164" height="205.922" fill="none"></rect></clipPath><clipPath id="clip-path-3"><rect id="Rect&#xE1;ngulo_1500" data-name="Rect&#xE1;ngulo 1500" width="519.987" height="200.745" fill="none"></rect></clipPath></defs><g id="Grupo_524" data-name="Grupo 524" clip-path="url(#clip-path)"><g id="Grupo_523" data-name="Grupo 523"><g id="Grupo_522" data-name="Grupo 522" clip-path="url(#clip-path)"><g id="Grupo_521" data-name="Grupo 521" transform="translate(5.177 5.177)" opacity="0.5" style="mix-blend-mode: multiply;isolation: isolate"><g id="Grupo_520" data-name="Grupo 520"><g id="Grupo_519" data-name="Grupo 519" clip-path="url(#clip-path-3)"><path id="Trazado_1711" data-name="Trazado 1711" d="M209.02,181.987a23.055,23.055,0,0,0-1.142-5.537,8.2,8.2,0,0,0-.476-1.087c1.666-2.643,1.9-5.947,2.171-9.692l.071-.962c.219-2.846.329-5.63.329-8.274,0-8.336-1.973-14.242-6.03-18.054-2.93-2.754-8.176-5.733-16.548-4.277a31.975,31.975,0,0,0-9.161,3.077,23.016,23.016,0,0,0-4.685,3.209c-.044-.034-.087-.071-.13-.1-3.038-2.311-6.714-2.475-9.917-2.135.049-.345.09-.689.118-1.03.143-1.7.226-2.862.258-3.663.009-.237.017-.527.024-.861a18.85,18.85,0,0,0,4.8.618,21.9,21.9,0,0,0,3.532-.294,28.973,28.973,0,0,0,11.9-4.966,16.7,16.7,0,0,0,6.9,1.448,19.734,19.734,0,0,0,3.489-.319A27.751,27.751,0,0,0,206.5,123.9a13.9,13.9,0,0,0,6.06,1.317,18.323,18.323,0,0,0,3.407-.332,23.167,23.167,0,0,0,9.82-4.628,14.072,14.072,0,0,0,5.923,1.257,18.062,18.062,0,0,0,3.491-.353,22.117,22.117,0,0,0,7.642-3.134,15.487,15.487,0,0,0,4.284.6,17.891,17.891,0,0,0,3.377-.331,18.858,18.858,0,0,0,11-7.055c.219.22.447.435.693.64a9.945,9.945,0,0,0,6.395,2.3,10.409,10.409,0,0,0,1.9-.175,11.586,11.586,0,0,0,6.933-3.89c.183-.22.362-.451.535-.7a12.01,12.01,0,0,0,8.892,1.357,26.569,26.569,0,0,0,9.17-4.125,30.342,30.342,0,0,0,8.577-8.412,8.126,8.126,0,0,0,.668-1.187,10.3,10.3,0,0,0,.894-4.319,10.694,10.694,0,0,0-2.186-6.256,10,10,0,0,0-5.192-3.862,17.971,17.971,0,0,0,.538-4.011,10.249,10.249,0,0,0-4.932-8.71,11.689,11.689,0,0,0-8.695-1.577,17.187,17.187,0,0,0-7.568,3.81,9.983,9.983,0,0,0-6.685-.925,12.236,12.236,0,0,0-8.076,5.681,14.538,14.538,0,0,0-10.88-1.911,22.009,22.009,0,0,0-2.393.623,10.8,10.8,0,0,0-3.824-8.328c-1.8-1.48-4.965-3.041-9.8-2.09l-.081.019a12.046,12.046,0,0,0-2.982-4.55c-1.978-1.894-5.573-3.914-11.456-2.773-3.847.745-7.478,3.1-10.791,7.011a41.093,41.093,0,0,0-6.6,11.091c-.045.109-.087.219-.127.33-1.23,3.43-2.269,6.716-3.167,10.009a16.183,16.183,0,0,0-6.9-.142,21.732,21.732,0,0,0-11.564,6.129,15,15,0,0,0-10.725-2.241,28.94,28.94,0,0,0,1.211-7.943c0-4.317-1.244-7.8-3.7-10.338A12.266,12.266,0,0,0,158.558,68.3c-5.009.773-9.407,3.669-13.075,8.607a49.132,49.132,0,0,0-6.961,13.712c-.614,1.831-1.168,3.708-1.692,5.6a13.24,13.24,0,0,0-4.784-.2,11.427,11.427,0,0,0-5.172,2.078,10.363,10.363,0,0,0-5.572-.867,11.9,11.9,0,0,0-7.165,3.576,15.223,15.223,0,0,0-6.345-1.9,23.644,23.644,0,0,0,.468-4.659,21.82,21.82,0,0,0-9.3-18.2c-6.159-4.514-15.191-5.909-21.522-5.316l-1.273.061c-.1.005-.209.011-.314.02A30.412,30.412,0,0,0,56.795,79.46c-9.241,8.968-14.092,22.651-14.027,39.569.036,9.22.825,18.892,6.308,27.163.087.131.177.26.271.385a16.881,16.881,0,0,0,8.005,5.987,22.546,22.546,0,0,0-7.213,5.862,16.115,16.115,0,0,0-3.426-3.6,18.057,18.057,0,0,0-11.728-3.41l-.292.01V136.8a8.135,8.135,0,0,0-8.275-8.134c-3.587.061-6.074.163-7.826.32-3.9.35-6.9,1.788-8.919,4.281A13.361,13.361,0,0,0,7,142V209.81a8.135,8.135,0,0,0,3.191,6.46,21.709,21.709,0,0,0,7.576,3.558,32.783,32.783,0,0,0,8.684,1.075c.251,0,.5,0,.758-.007a32.5,32.5,0,0,0,7.218-.967,22.813,22.813,0,0,0,8.243-4,23.984,23.984,0,0,0,5.142-5.431c.371.555.757,1.091,1.17,1.592a18.343,18.343,0,0,0,8.892,6.027,24.871,24.871,0,0,0,7.3,1.055q1,0,2.027-.072a41.941,41.941,0,0,0,8.988-1.574,23.354,23.354,0,0,0,8.025-4.028c.178-.143.334-.3.5-.447A7.98,7.98,0,0,0,91,216.032c.263,0,.53-.013.794-.039,3.785-.371,5.678-.567,9.463-.977a10.345,10.345,0,0,0,8.482-6.611,16.169,16.169,0,0,0,8.294,4.316,26.713,26.713,0,0,0,4.984.444,36.253,36.253,0,0,0,4.741-.327h0a24.964,24.964,0,0,0,14.776-7.062,8.112,8.112,0,0,0,7.486,2.893c3.78-.567,6.763-1.061,8.627-1.428,2.986-.588,5.356-1.379,7.2-3.315a9.956,9.956,0,0,0,2.7-6.639c.228.284.459.565.7.831a17.215,17.215,0,0,0,9.43,5.394,23.436,23.436,0,0,0,4.586.44,28.065,28.065,0,0,0,4.764-.421,45.1,45.1,0,0,0,8.84-2.425,25.433,25.433,0,0,0,7.7-4.583,13.02,13.02,0,0,0,4.694-9.879c0-1.405-.081-2.972-.24-4.657m30.344-107.35a5.356,5.356,0,0,1,1.927,3.72,3.49,3.49,0,0,1-.85,2.214,10.123,10.123,0,0,0-1.191-.659,10.576,10.576,0,0,0-2.257-.763l.3,1.529,0,0-.314-1.53a10.982,10.982,0,0,0-1.484-.2,33.146,33.146,0,0,0,1.4-5.587,5.732,5.732,0,0,1,2.469,1.283M73.282,149.847a17.238,17.238,0,0,0,1.617-1.39,22.128,22.128,0,0,0,5.709-9.65,52.708,52.708,0,0,0,1.765-8.585q.439-3.7.681-6c.131-1.26.244-2.3.339-3.124.356-.1.715-.2,1.076-.305a25.612,25.612,0,0,0-.188,3.1,18.2,18.2,0,0,0,2.858,10.312,26.54,26.54,0,0,0-2.079,4.042,32.432,32.432,0,0,0-2.188,11.911,10.2,10.2,0,0,0-2.708,1.8c-.038.036-.072.074-.109.111a19.182,19.182,0,0,0-6.773-2.228m53.147-6.269c-.3.04-.594.092-.89.141a29.568,29.568,0,0,0,1.109-4.429c.161-.931.271-1.8.34-2.626a12.55,12.55,0,0,0,2.975-4.011q.143-.305.263-.62l.128-.341q.682-1.821,1.359-3.587c-.1,1.9-.176,3.827-.18,5.779a45.255,45.255,0,0,0,.835,9.466,30.088,30.088,0,0,0-5.94.228" transform="translate(-7 -20.159)" fill="#575756"></path><path id="Trazado_1712" data-name="Trazado 1712" d="M592.3,113.4a13.49,13.49,0,0,0,3.213-8.714l2.546-42.046a8.136,8.136,0,0,0-8.121-8.627c-4.56,0-8.4.106-11.109.309-3.861.288-6.349.952-8.325,2.219a10.617,10.617,0,0,0-4.813,9.167c0,.132,0,.264.01.395l.447,9.206a36.035,36.035,0,0,0-9.116-.528,31.945,31.945,0,0,0-13.357,3.114,21.932,21.932,0,0,0-5.429,3.912c-2.95-2.691-7.831-5.373-15.3-4.718a29.817,29.817,0,0,0-9.392,2.4,21.233,21.233,0,0,0-3.838,2.2,8.134,8.134,0,0,0-5.9-1.706c-3.842.416-6.788.8-8.752,1.152a13.77,13.77,0,0,0-7.119,3.072,8.111,8.111,0,0,0-6.009-1.629l-1.537.2c.411-1.51.759-2.989,1.067-4.4.345-.241.738-.513,1.154-.8a10.591,10.591,0,0,0,2.564.317q.486,0,.984-.044a10.913,10.913,0,0,0,7.588-3.635,11.624,11.624,0,0,0,7.868,2.482,29.155,29.155,0,0,0,11.34-3.349,15.541,15.541,0,0,0,8.847,2.578c.171,0,.345,0,.518-.007,6.387-.173,12.445-3.415,18.006-9.637a10.953,10.953,0,0,0,3.041-7.462,10.217,10.217,0,0,0-3.466-7.718,9.373,9.373,0,0,0,1.579-5.287,10.7,10.7,0,0,0-1.978-6.339,31.991,31.991,0,0,0,5.333-14.872c.018-.218.027-.438.027-.657v-.551a13.431,13.431,0,0,0-3.3-8.957c-1.72-1.975-4.929-4.315-10.51-4.259-4.2.045-8.182,1.935-11.826,5.615a29.686,29.686,0,0,0-2.077,2.338A13.424,13.424,0,0,0,502.678,7.031c-3.835.227-9.488,1.851-14.642,8.3a46.542,46.542,0,0,0-7.721,14.917c-.03.1-.06.194-.087.291-.739,2.637-1.4,5.21-2,7.743-.244-.029-.49-.05-.737-.063a11.141,11.141,0,0,0-6.307-1.061l-.331.035a22.639,22.639,0,0,0-6.588,1.717,14.186,14.186,0,0,0,.088-1.514,11.155,11.155,0,0,0-3.64-8.554,11.529,11.529,0,0,0-9.468-2.555,14.2,14.2,0,0,0-8.1,3.8,21.154,21.154,0,0,0-8.527-10.913c-6.541-4.464-15.942-4.76-22-3.655-9.857,1.794-19.387,8.364-25.494,17.577-7.871,11.877-9.636,25.663-9.727,35.163l-.076,2.85c-.006.214,0,.429.007.643l.067,1.358c.268,5.569.6,12.5,4.1,18.756a18.519,18.519,0,0,0,5.257,6.064c-1.662.324-3.007.6-4,.83a15.186,15.186,0,0,0-5.623,2.255,8.147,8.147,0,0,0-4.568-.459c-3.957.746-6.9,1.338-8.735,1.762-2.965.683-5.307,1.535-7.094,3.467a9.568,9.568,0,0,0-1.37,1.9,14.907,14.907,0,0,0-1.779-.919c-3.859-1.665-8.5-2-13.785-.979a26.433,26.433,0,0,0-12.026,5.614,8.124,8.124,0,0,0-5.915-1.149c-4.015.769-6.85,1.365-8.664,1.822a14.094,14.094,0,0,0-6.953,3.567,8.143,8.143,0,0,0-6.077-1.265c-4.1.773-6.95,1.341-8.7,1.738-1.924.436-6.427,1.457-8.4,5.783a11.267,11.267,0,0,0-.568,7.181c.013.066.028.131.043.2l10.789,46.189c-.064.448-.129.819-.192,1.123l-.1-.007-.145-.013a8.133,8.133,0,0,0-10.413,3.393,18.248,18.248,0,0,0-1.989,5.583,26.113,26.113,0,0,0-.505,4.926,11.72,11.72,0,0,0,5.846,10.252,13.479,13.479,0,0,0,7.139,1.737,33.038,33.038,0,0,0,6.028-.639h0a24,24,0,0,0,10.28-4.35,23.081,23.081,0,0,0,6.967-9.448,66.893,66.893,0,0,0,3.7-12.627l1.368-6.653c.238.337.483.666.74.979a15.651,15.651,0,0,0,10.336,5.716,25.217,25.217,0,0,0,3.123.189,34.667,34.667,0,0,0,6.551-.676,25.876,25.876,0,0,0,17.317-11.341,16.075,16.075,0,0,0,6.043,3.865,20.047,20.047,0,0,0,6.917,1.108,37.077,37.077,0,0,0,6.8-.7h0a41.942,41.942,0,0,0,10.69-3.518c1.825-.893,3.437-1.775,4.875-2.663a8.1,8.1,0,0,0,5.9,1.2c4.157-.752,6.875-1.274,8.553-1.642,2.95-.647,5.285-1.473,7.091-3.4a10.043,10.043,0,0,0,2.667-7.059L419,119.247a8.1,8.1,0,0,0,7.725-5.475,26.261,26.261,0,0,0,1.318-5.708,35.763,35.763,0,0,0,.252-3.776c0-5.549-2.488-8.582-4.577-10.152-3.716-2.791-8.512-2.349-11.793-1.774-.341.06-.678.13-1.015.2.495-.685.96-1.371,1.384-2.052a23.563,23.563,0,0,0,2.519-5.927q.516-1.782.93-3.279a50.916,50.916,0,0,0,7.786,10.3,24.031,24.031,0,0,0,11.2,6.683,37.285,37.285,0,0,0-3.719,9.847,74.022,74.022,0,0,0-1.652,17.121,55.313,55.313,0,0,0,1.435,13.791,23.827,23.827,0,0,0,5.093,10.213,17.167,17.167,0,0,0,9.352,5.445,23.925,23.925,0,0,0,4.981.507,28.579,28.579,0,0,0,4.3-.334h0a47.435,47.435,0,0,0,7.246-1.675,25.725,25.725,0,0,0-.494,4.839,11.961,11.961,0,0,0,5.614,10.2,14.576,14.576,0,0,0,8.18,2.042,36.759,36.759,0,0,0,4.788-.351h0A23.232,23.232,0,0,0,490.3,166.1a21.757,21.757,0,0,0,7.2-9.277,63.636,63.636,0,0,0,3.734-12.461q.653-3.131,1.308-6.261a19.39,19.39,0,0,0,1.425,1.9,17.915,17.915,0,0,0,9.041,5.781,25.071,25.071,0,0,0,6.585.846q1.307,0,2.653-.121a44.861,44.861,0,0,0,8.849-1.648,24.6,24.6,0,0,0,7.137-3.354,14.11,14.11,0,0,0,3.642,1.67,30.525,30.525,0,0,0,8.809,1.179q1.148,0,2.36-.064c6.65-.35,12.216-2.289,16.564-5.766,2.6,3.061,6.511,4.618,11.639,4.618h.329a14.813,14.813,0,0,0,11.365-4.958,15.639,15.639,0,0,0,3.907-10.471,16.7,16.7,0,0,0-3.165-10.292,12.111,12.111,0,0,0-2.814-2.694A11.284,11.284,0,0,0,592.3,113.4M449.034,35.206a3.006,3.006,0,0,1,1.524-.885v0h.02l.033,0v0a4.911,4.911,0,0,1,3.2,1.437,5.18,5.18,0,0,1,1.733,3.493,3.759,3.759,0,0,1-.911,2.353q-.367-.237-.761-.447a10.8,10.8,0,0,0-2.5-.956l.246,1.888h0l-.259-1.891a11.4,11.4,0,0,0-2.429-.32,4.844,4.844,0,0,1-.848-2.475,3.47,3.47,0,0,1,.95-2.191M431.877,57.335c.629-.355,1.239-.746,1.835-1.158-.076.283-.152.561-.229.854a52.679,52.679,0,0,0-1.1,5.25q-.892-2.141-1.643-4.333.583-.3,1.134-.612m42.639,87.026c-.041-.02-.082-.035-.123-.055.07-.126.132-.253.2-.379-.024.15-.047.3-.07.435h0m106.283-17a2.05,2.05,0,0,1,.243-.208,4.055,4.055,0,0,1,.331.237l.007.547a4.209,4.209,0,0,1-.58-.577m1.072.917a3.782,3.782,0,0,1-.49-.339l-.007-.547a4.5,4.5,0,0,1,.663.654l.062.078a2.1,2.1,0,0,1-.228.155" transform="translate(-78.082 -7)" fill="#575756"></path></g></g></g><path id="Trazado_1713" data-name="Trazado 1713" d="M202.02,174.987a23.053,23.053,0,0,0-1.142-5.537,8.2,8.2,0,0,0-.476-1.087c1.666-2.643,1.9-5.947,2.171-9.692l.071-.962c.219-2.846.329-5.63.329-8.274,0-8.336-1.973-14.242-6.03-18.054-2.93-2.754-8.176-5.733-16.548-4.277a31.974,31.974,0,0,0-9.161,3.077,23.016,23.016,0,0,0-4.685,3.209c-.044-.034-.087-.071-.13-.1-3.038-2.311-6.714-2.475-9.917-2.135.049-.345.089-.689.118-1.03.143-1.7.226-2.862.258-3.663.009-.237.017-.527.024-.861a18.85,18.85,0,0,0,4.8.618,21.9,21.9,0,0,0,3.532-.294,28.973,28.973,0,0,0,11.9-4.966,16.7,16.7,0,0,0,6.9,1.448,19.734,19.734,0,0,0,3.489-.319A27.752,27.752,0,0,0,199.5,116.9a13.9,13.9,0,0,0,6.06,1.317,18.323,18.323,0,0,0,3.407-.332,23.166,23.166,0,0,0,9.82-4.628,14.072,14.072,0,0,0,5.923,1.257,18.062,18.062,0,0,0,3.491-.353,22.117,22.117,0,0,0,7.642-3.134,15.487,15.487,0,0,0,4.284.6,17.89,17.89,0,0,0,3.377-.331,18.858,18.858,0,0,0,11-7.055c.219.22.447.435.693.641a9.945,9.945,0,0,0,6.395,2.3,10.407,10.407,0,0,0,1.9-.175,11.586,11.586,0,0,0,6.933-3.89c.183-.22.362-.451.535-.7a12.01,12.01,0,0,0,8.892,1.357,26.57,26.57,0,0,0,9.17-4.126,30.342,30.342,0,0,0,8.577-8.412,8.126,8.126,0,0,0,.668-1.187,10.294,10.294,0,0,0,.894-4.319,10.694,10.694,0,0,0-2.186-6.256,10,10,0,0,0-5.192-3.862,17.973,17.973,0,0,0,.538-4.011,10.248,10.248,0,0,0-4.932-8.71,11.689,11.689,0,0,0-8.695-1.577,17.187,17.187,0,0,0-7.568,3.81,9.983,9.983,0,0,0-6.685-.925,12.236,12.236,0,0,0-8.076,5.681,14.538,14.538,0,0,0-10.88-1.911,22.007,22.007,0,0,0-2.393.623,10.8,10.8,0,0,0-3.824-8.328c-1.8-1.48-4.965-3.041-9.8-2.09l-.081.019a12.046,12.046,0,0,0-2.982-4.55c-1.978-1.894-5.573-3.914-11.456-2.773-3.847.745-7.478,3.1-10.791,7.011a41.094,41.094,0,0,0-6.6,11.091c-.045.109-.087.219-.127.33-1.23,3.43-2.269,6.716-3.167,10.009a16.184,16.184,0,0,0-6.9-.142,21.732,21.732,0,0,0-11.564,6.129,15,15,0,0,0-10.725-2.241,28.939,28.939,0,0,0,1.211-7.943c0-4.317-1.244-7.8-3.7-10.338A12.266,12.266,0,0,0,151.558,61.3c-5.009.773-9.407,3.669-13.075,8.608a49.132,49.132,0,0,0-6.961,13.712c-.614,1.831-1.168,3.708-1.692,5.6a13.24,13.24,0,0,0-4.784-.2,11.427,11.427,0,0,0-5.172,2.078,10.363,10.363,0,0,0-5.572-.867,11.9,11.9,0,0,0-7.165,3.576,15.223,15.223,0,0,0-6.345-1.9,23.644,23.644,0,0,0,.468-4.659,21.82,21.82,0,0,0-9.3-18.2c-6.159-4.514-15.191-5.909-21.522-5.316l-1.273.061c-.1.005-.209.011-.314.02A30.412,30.412,0,0,0,49.795,72.46C40.553,81.429,35.7,95.111,35.767,112.029c.035,9.22.825,18.892,6.308,27.163.087.131.177.26.271.385a16.881,16.881,0,0,0,8.005,5.987,22.547,22.547,0,0,0-7.213,5.862,16.116,16.116,0,0,0-3.426-3.6,18.056,18.056,0,0,0-11.728-3.41l-.292.01V129.8a8.135,8.135,0,0,0-8.275-8.134c-3.587.061-6.074.163-7.826.32-3.9.35-6.9,1.788-8.919,4.281A13.361,13.361,0,0,0,0,135V202.81a8.135,8.135,0,0,0,3.191,6.46,21.71,21.71,0,0,0,7.576,3.558,32.782,32.782,0,0,0,8.684,1.075c.251,0,.5,0,.758-.007a32.5,32.5,0,0,0,7.218-.967,22.813,22.813,0,0,0,8.243-4,23.984,23.984,0,0,0,5.142-5.431c.371.555.757,1.091,1.17,1.592a18.343,18.343,0,0,0,8.892,6.027,24.871,24.871,0,0,0,7.3,1.055q1,0,2.027-.072a41.942,41.942,0,0,0,8.988-1.574,23.354,23.354,0,0,0,8.025-4.028c.177-.143.334-.3.5-.447A7.981,7.981,0,0,0,84,209.032c.263,0,.53-.013.794-.039,3.785-.371,5.678-.567,9.463-.977a10.345,10.345,0,0,0,8.482-6.611,16.168,16.168,0,0,0,8.294,4.316,26.714,26.714,0,0,0,4.984.444,36.248,36.248,0,0,0,4.741-.327h0a24.964,24.964,0,0,0,14.776-7.062,8.112,8.112,0,0,0,7.486,2.893c3.78-.567,6.763-1.061,8.627-1.428,2.986-.588,5.356-1.379,7.2-3.315a9.956,9.956,0,0,0,2.7-6.639c.228.284.459.565.7.831a17.215,17.215,0,0,0,9.43,5.394,23.434,23.434,0,0,0,4.586.44,28.066,28.066,0,0,0,4.764-.421,45.094,45.094,0,0,0,8.84-2.425,25.432,25.432,0,0,0,7.7-4.583,13.02,13.02,0,0,0,4.694-9.879c0-1.405-.081-2.972-.24-4.657m30.344-107.35a5.356,5.356,0,0,1,1.927,3.72,3.49,3.49,0,0,1-.85,2.214,10.124,10.124,0,0,0-1.191-.659,10.575,10.575,0,0,0-2.257-.763l.3,1.529,0,0-.314-1.53a10.984,10.984,0,0,0-1.484-.2,33.142,33.142,0,0,0,1.4-5.587,5.731,5.731,0,0,1,2.469,1.283M66.282,142.847a17.237,17.237,0,0,0,1.617-1.39,22.128,22.128,0,0,0,5.709-9.65,52.708,52.708,0,0,0,1.765-8.585q.439-3.7.681-6c.131-1.26.244-2.3.339-3.124.356-.1.715-.2,1.076-.305a25.612,25.612,0,0,0-.188,3.1,18.2,18.2,0,0,0,2.858,10.312,26.539,26.539,0,0,0-2.079,4.042,32.432,32.432,0,0,0-2.188,11.911,10.2,10.2,0,0,0-2.708,1.8c-.038.036-.072.074-.109.111a19.182,19.182,0,0,0-6.773-2.228m53.147-6.269c-.3.04-.594.092-.89.141a29.57,29.57,0,0,0,1.109-4.429c.161-.931.271-1.8.34-2.626a12.55,12.55,0,0,0,2.975-4.011q.143-.305.263-.62l.128-.341q.682-1.821,1.359-3.587c-.1,1.9-.176,3.827-.18,5.779a45.255,45.255,0,0,0,.835,9.466,30.084,30.084,0,0,0-5.94.228" transform="translate(0 -13.159)" fill="#fff"></path><path id="Trazado_1714" data-name="Trazado 1714" d="M585.3,106.4a13.49,13.49,0,0,0,3.213-8.714l2.546-42.046a8.136,8.136,0,0,0-8.121-8.627c-4.56,0-8.4.107-11.109.309-3.861.288-6.349.952-8.325,2.219a10.617,10.617,0,0,0-4.813,9.167q0,.2.01.395l.447,9.206a36.035,36.035,0,0,0-9.116-.528,31.945,31.945,0,0,0-13.357,3.114,21.934,21.934,0,0,0-5.429,3.912c-2.949-2.691-7.831-5.373-15.3-4.718a29.817,29.817,0,0,0-9.392,2.4,21.23,21.23,0,0,0-3.838,2.2,8.134,8.134,0,0,0-5.9-1.706c-3.842.416-6.788.8-8.753,1.152a13.77,13.77,0,0,0-7.119,3.072,8.111,8.111,0,0,0-6.009-1.629l-1.537.2c.411-1.51.759-2.989,1.067-4.4.345-.241.738-.513,1.154-.8a10.59,10.59,0,0,0,2.564.317q.486,0,.984-.044a10.913,10.913,0,0,0,7.588-3.635,11.624,11.624,0,0,0,7.868,2.482,29.155,29.155,0,0,0,11.34-3.349,15.541,15.541,0,0,0,8.847,2.578c.171,0,.345,0,.518-.007,6.387-.173,12.445-3.415,18.006-9.637a10.953,10.953,0,0,0,3.041-7.462,10.216,10.216,0,0,0-3.467-7.718,9.372,9.372,0,0,0,1.579-5.287,10.7,10.7,0,0,0-1.978-6.339,31.992,31.992,0,0,0,5.333-14.872c.018-.218.027-.438.027-.657v-.551a13.431,13.431,0,0,0-3.3-8.957c-1.72-1.975-4.929-4.315-10.51-4.259-4.2.045-8.181,1.935-11.826,5.615a29.686,29.686,0,0,0-2.077,2.338A13.424,13.424,0,0,0,495.678.031c-3.835.227-9.488,1.851-14.642,8.3a46.541,46.541,0,0,0-7.721,14.917c-.03.1-.06.194-.087.291-.739,2.637-1.4,5.21-2,7.743-.244-.029-.49-.05-.737-.063a11.141,11.141,0,0,0-6.307-1.061l-.331.035a22.639,22.639,0,0,0-6.588,1.717,14.162,14.162,0,0,0,.088-1.514,11.155,11.155,0,0,0-3.64-8.554,11.529,11.529,0,0,0-9.468-2.555,14.2,14.2,0,0,0-8.1,3.8,21.154,21.154,0,0,0-8.527-10.913c-6.541-4.464-15.942-4.76-22-3.655-9.857,1.794-19.387,8.364-25.494,17.577-7.871,11.877-9.636,25.663-9.727,35.163l-.076,2.85c-.006.214,0,.429.007.643l.067,1.358c.268,5.569.6,12.5,4.1,18.756a18.52,18.52,0,0,0,5.257,6.064c-1.662.324-3.007.6-4,.83a15.186,15.186,0,0,0-5.623,2.255,8.147,8.147,0,0,0-4.569-.459c-3.957.746-6.9,1.338-8.735,1.762-2.965.683-5.307,1.535-7.094,3.467a9.564,9.564,0,0,0-1.37,1.9,14.914,14.914,0,0,0-1.779-.919c-3.859-1.665-8.5-2-13.785-.979a26.433,26.433,0,0,0-12.026,5.614,8.124,8.124,0,0,0-5.915-1.149c-4.015.769-6.849,1.365-8.664,1.822a14.094,14.094,0,0,0-6.953,3.567,8.143,8.143,0,0,0-6.077-1.265c-4.1.773-6.95,1.341-8.7,1.738-1.924.436-6.427,1.457-8.4,5.783a11.267,11.267,0,0,0-.568,7.181c.013.066.028.131.043.2l10.789,46.189c-.064.448-.129.82-.191,1.123l-.1-.007-.145-.013a8.133,8.133,0,0,0-10.413,3.393,18.249,18.249,0,0,0-1.989,5.583,26.115,26.115,0,0,0-.505,4.926,11.719,11.719,0,0,0,5.846,10.252,13.479,13.479,0,0,0,7.139,1.737,33.04,33.04,0,0,0,6.029-.639h0a24,24,0,0,0,10.281-4.35,23.081,23.081,0,0,0,6.967-9.448,66.9,66.9,0,0,0,3.7-12.627l1.368-6.653c.238.337.483.666.74.978a15.65,15.65,0,0,0,10.336,5.716,25.215,25.215,0,0,0,3.123.189,34.668,34.668,0,0,0,6.551-.676,25.876,25.876,0,0,0,17.317-11.341,16.076,16.076,0,0,0,6.043,3.865,20.047,20.047,0,0,0,6.917,1.108,37.077,37.077,0,0,0,6.8-.7h0a41.943,41.943,0,0,0,10.69-3.518c1.825-.893,3.437-1.775,4.875-2.663a8.1,8.1,0,0,0,5.9,1.2c4.157-.752,6.875-1.274,8.553-1.642,2.95-.647,5.285-1.473,7.091-3.4a10.043,10.043,0,0,0,2.667-7.059L412,112.247a8.1,8.1,0,0,0,7.725-5.475,26.257,26.257,0,0,0,1.318-5.708,35.762,35.762,0,0,0,.252-3.776c0-5.549-2.488-8.582-4.577-10.152-3.717-2.791-8.512-2.349-11.793-1.774-.341.06-.678.13-1.015.2.495-.685.96-1.371,1.384-2.052a23.564,23.564,0,0,0,2.519-5.927q.516-1.782.93-3.279a50.915,50.915,0,0,0,7.786,10.3,24.031,24.031,0,0,0,11.2,6.683,37.287,37.287,0,0,0-3.719,9.847,74.02,74.02,0,0,0-1.652,17.121,55.315,55.315,0,0,0,1.435,13.791,23.827,23.827,0,0,0,5.093,10.213,17.166,17.166,0,0,0,9.351,5.445,23.927,23.927,0,0,0,4.981.507,28.579,28.579,0,0,0,4.3-.334h0a47.432,47.432,0,0,0,7.246-1.675,25.725,25.725,0,0,0-.494,4.839,11.961,11.961,0,0,0,5.614,10.2,14.576,14.576,0,0,0,8.18,2.042,36.759,36.759,0,0,0,4.788-.351h0A23.231,23.231,0,0,0,483.3,159.1a21.758,21.758,0,0,0,7.2-9.277,63.633,63.633,0,0,0,3.733-12.461q.653-3.131,1.308-6.261a19.4,19.4,0,0,0,1.425,1.9,17.915,17.915,0,0,0,9.041,5.781,25.071,25.071,0,0,0,6.585.846q1.307,0,2.653-.121a44.861,44.861,0,0,0,8.849-1.648,24.6,24.6,0,0,0,7.137-3.354,14.108,14.108,0,0,0,3.642,1.67,30.525,30.525,0,0,0,8.809,1.179q1.148,0,2.36-.064c6.651-.35,12.216-2.289,16.564-5.766,2.6,3.061,6.511,4.618,11.639,4.618h.329a14.812,14.812,0,0,0,11.365-4.958,15.639,15.639,0,0,0,3.907-10.471,16.7,16.7,0,0,0-3.165-10.292,12.11,12.11,0,0,0-2.813-2.694A11.285,11.285,0,0,0,585.3,106.4M442.034,28.206a3.006,3.006,0,0,1,1.524-.885v0h.02l.033,0v0a4.911,4.911,0,0,1,3.2,1.437,5.18,5.18,0,0,1,1.733,3.493,3.759,3.759,0,0,1-.911,2.353q-.367-.237-.761-.447a10.8,10.8,0,0,0-2.5-.956l.246,1.888h0l-.259-1.891a11.4,11.4,0,0,0-2.429-.32,4.844,4.844,0,0,1-.848-2.475,3.47,3.47,0,0,1,.95-2.191M424.877,50.335c.629-.355,1.239-.746,1.835-1.158-.076.283-.152.561-.228.854a52.679,52.679,0,0,0-1.1,5.25q-.892-2.141-1.643-4.333.582-.3,1.134-.612m42.639,87.026c-.041-.02-.082-.035-.123-.055.069-.126.132-.253.2-.379-.024.15-.047.3-.07.435h0m106.283-17a2.042,2.042,0,0,1,.243-.208,4.066,4.066,0,0,1,.331.237l.007.547a4.212,4.212,0,0,1-.581-.577m1.072.917a3.779,3.779,0,0,1-.49-.339l-.007-.547a4.5,4.5,0,0,1,.663.654l.062.078a2.1,2.1,0,0,1-.228.155" transform="translate(-71.082 0)" fill="#fff"></path><path id="Trazado_1715" data-name="Trazado 1715" d="M22.931,233.672a25.284,25.284,0,0,1-7.137-.777A14.009,14.009,0,0,1,11,230.72V162.911a5.84,5.84,0,0,1,.867-3.62A4.684,4.684,0,0,1,15.181,158c1.63-.146,4.044-.234,7.24-.288v25.9a11.886,11.886,0,0,1,3.824-2.268,15.115,15.115,0,0,1,4.844-.89,10.1,10.1,0,0,1,6.577,1.765q2.5,1.893,3.722,6.373a47.871,47.871,0,0,1,1.224,12.131,76.6,76.6,0,0,1-1.172,14.581,32.182,32.182,0,0,1-3.212,9.515,17.7,17.7,0,0,1-4.588,5.519,14.667,14.667,0,0,1-5.3,2.6,24.241,24.241,0,0,1-5.4.729m1.734-10.026a2.574,2.574,0,0,0,1.581-.8,7.391,7.391,0,0,0,1.632-2.945,31.378,31.378,0,0,0,1.274-6.2,86.686,86.686,0,0,0,.51-10.466A47.18,47.18,0,0,0,29.2,195.8a9.864,9.864,0,0,0-1.274-3.893,2.44,2.44,0,0,0-2.141-1.123,5.125,5.125,0,0,0-1.683.341,4.7,4.7,0,0,0-1.682,1.152v30.59a2.541,2.541,0,0,0,.968.595,3.666,3.666,0,0,0,1.275.179" transform="translate(-2.864 -41.068)" fill="#a51775"></path><path id="Trazado_1716" data-name="Trazado 1716" d="M75.058,239.268a17.431,17.431,0,0,1-6.373-.646,10.308,10.308,0,0,1-5-3.424,18.247,18.247,0,0,1-3.263-7.165,49.633,49.633,0,0,1-1.172-11.87A64.768,64.768,0,0,1,60.68,201.1a23.36,23.36,0,0,1,3.925-8.934,14.216,14.216,0,0,1,5.762-4.481,22.214,22.214,0,0,1,6.832-1.593c4.078-.3,7.274.731,9.584,3.118s3.467,6.533,3.467,12.447q0,3.671-.305,7.623c-.2,2.636-.4,6.243-1.122,6.981s-4.249,1.076-6.832,1.483-5.1.748-7.545,1.021-5.269.51-8.464.7c.082-3.635.123-5.452.2-9.087q2.955-.074,5.1-.218a40.694,40.694,0,0,0,4.182-.491,10.815,10.815,0,0,0,3.16-.944,10.608,10.608,0,0,0,.408-2.529c.068-1.057.1-2,.1-2.811q0-4.895-.765-6.163a2.652,2.652,0,0,0-2.7-1.128,3.04,3.04,0,0,0-2.243,1.279A8.879,8.879,0,0,0,72,200.884a38.059,38.059,0,0,0-.714,5.758q-.2,3.431-.2,8.12,0,3.57.255,6.152a14.785,14.785,0,0,0,.918,4.171,4.416,4.416,0,0,0,2.039,2.308,6.5,6.5,0,0,0,3.518.563,20.287,20.287,0,0,0,5.455-1.185,32.568,32.568,0,0,0,5.353-2.538,16.125,16.125,0,0,1,.714,3.66q.2,2.174.2,3.909a4.619,4.619,0,0,1-1.988,3.638,15.28,15.28,0,0,1-5.251,2.574,33.715,33.715,0,0,1-7.24,1.256" transform="translate(-15.429 -48.445)" fill="#a51775"></path><path id="Trazado_1717" data-name="Trazado 1717" d="M111.418,226.6V185.1c-2.447.24-3.671.357-6.117.581q0-4.486.1-6.484a3.951,3.951,0,0,1,.714-2.564,3.262,3.262,0,0,1,1.938-.692c1.346-.127,2.018-.192,3.364-.325V169.8A25.731,25.731,0,0,1,113,160.063a15.053,15.053,0,0,1,4.18-5.986,17.851,17.851,0,0,1,5.761-3.218,30.641,30.641,0,0,1,6.22-1.419,16.827,16.827,0,0,1,7.5.427,3.649,3.649,0,0,1,2.7,3.64,18.5,18.5,0,0,1-.306,3.1,21.323,21.323,0,0,1-.815,3.262,11.1,11.1,0,0,0-3.773-.658,30.073,30.073,0,0,0-3.16.175,19.053,19.053,0,0,0-3.467.71,8.162,8.162,0,0,0-2.651,1.373,5.805,5.805,0,0,0-1.733,2.334,9.213,9.213,0,0,0-.612,3.586v7.035c2.937-.323,4.405-.49,7.342-.835q0,4.385-.153,6.443a5.977,5.977,0,0,1-.561,2.614,1.949,1.949,0,0,1-1.427.676c-2.081.24-3.12.356-5.2.586v39.46q-.511,2.1-2.038,2.262c-3.753.406-5.629.6-9.382.969" transform="translate(-27.42 -38.861)" fill="#a51775"></path><path id="Trazado_1718" data-name="Trazado 1718" d="M156.144,230.827a22.615,22.615,0,0,1-7.138-.044,8.151,8.151,0,0,1-5.048-3.147,18.12,18.12,0,0,1-2.957-7.7,65.257,65.257,0,0,1-.968-13.7c.2-6.767.51-14.583,4.435-20.67a16.862,16.862,0,0,1,12.49-7.867q5.506-.734,9.025.956t5.2,7.11c1.121,3.61,1.639,8.892,1.683,15.713.046,7.147-.478,15.325-4.231,21.514a16.477,16.477,0,0,1-12.491,7.838m.305-9.524a2.92,2.92,0,0,0,1.887-1.271q.864-1.133,1.427-4.884a86.293,86.293,0,0,0,.561-11.6q0-7.341-.306-10.919t-1.121-4.59a2.4,2.4,0,0,0-2.345-.808,3.074,3.074,0,0,0-2.039,1.442,12.344,12.344,0,0,0-1.428,4.978,86.369,86.369,0,0,0-.51,10.925q0,5.915.254,9.4a26.951,26.951,0,0,0,.714,5.057,3.133,3.133,0,0,0,1.224,1.981,2.717,2.717,0,0,0,1.682.288" transform="translate(-36.456 -46.214)" fill="#a51775"></path><path id="Trazado_1719" data-name="Trazado 1719" d="M191.744,224.825V177.411a36.1,36.1,0,0,1,6.271-4.166,24.955,24.955,0,0,1,7.9-2.616q4.18-.667,5.506.336t1.325,3.658a28.476,28.476,0,0,1-.2,2.889,18,18,0,0,1-.918,3.923,6.119,6.119,0,0,0-1.989-.34,11.522,11.522,0,0,0-1.784.135,7.829,7.829,0,0,0-2.141.75,8.95,8.95,0,0,0-2.244,1.58q-.05,18.719-.1,37.437a2.11,2.11,0,0,1-.459,1.5,6.905,6.905,0,0,1-2.907.964c-1.631.322-4.384.783-8.259,1.364" transform="translate(-49.93 -44.362)" fill="#a51775"></path><path id="Trazado_1720" data-name="Trazado 1720" d="M237.329,218.2a17.376,17.376,0,0,1-6.373.019,8.985,8.985,0,0,1-5-2.882,16.066,16.066,0,0,1-3.263-6.8,47.947,47.947,0,0,1-1.172-11.738,66.931,66.931,0,0,1,1.427-15.224,26.322,26.322,0,0,1,3.925-9.371,16.528,16.528,0,0,1,5.761-5.1,23.768,23.768,0,0,1,6.832-2.3q6.117-1.063,9.584,2.188t3.467,12.126q0,3.672-.305,7.652c-.2,2.654-.364,6.237-1.122,7.084s-4.249,1.471-6.832,2.129-5.1,1.249-7.545,1.774-5.269,1.056-8.463,1.593c.081-3.644.122-5.466.2-9.109q2.955-.395,5.1-.763t4.182-.922a12.018,12.018,0,0,0,3.16-1.262,11.125,11.125,0,0,0,.408-2.569c.068-1.064.1-2.007.1-2.822q0-4.895-.765-6.087a2.423,2.423,0,0,0-2.7-.856,3.457,3.457,0,0,0-2.243,1.509,9.881,9.881,0,0,0-1.427,3.66,39.538,39.538,0,0,0-.714,5.833q-.2,3.452-.2,8.142,0,3.569.255,6.125a13.832,13.832,0,0,0,.918,4.075,3.816,3.816,0,0,0,2.039,2.1,6.313,6.313,0,0,0,3.518.206,22.106,22.106,0,0,0,5.455-1.72,37.179,37.179,0,0,0,5.353-3.042,15.3,15.3,0,0,1,.714,3.594q.2,2.156.2,3.89a5.137,5.137,0,0,1-1.988,3.822,17.328,17.328,0,0,1-5.251,3.072,36.723,36.723,0,0,1-7.24,1.976" transform="translate(-57.684 -42.847)" fill="#a51775"></path><path id="Trazado_1721" data-name="Trazado 1721" d="M293.358,225.995q-5.609,1.051-7.494-.083a3.6,3.6,0,0,1-1.887-3.271,17.95,17.95,0,0,1,.357-3.38,10.162,10.162,0,0,1,1.071-3.1,6.808,6.808,0,0,0,2.8.7,15.482,15.482,0,0,0,4.13-.26,5.093,5.093,0,0,0,3.212-2.336q1.376-1.991,1.886-7.084-5.559-23.791-11.115-47.582a3.705,3.705,0,0,1,0-2.141q.306-.669,2.8-1.234t8.412-1.678c1.183,6.834,1.774,10.251,2.957,17.083q.611,3.249,1.071,6.732t.765,6.534q.305,3.054.714,6.85.306-3.933.612-7.05t.714-6.814q.407-3.694.815-7.139c.775-5.939,1.163-8.909,1.937-14.848a4.642,4.642,0,0,1,.816-2.4,6.508,6.508,0,0,1,3.11-1.357q2.5-.629,8.208-1.722-5.71,27.755-11.42,55.509a59.544,59.544,0,0,1-3.213,11.062,15.05,15.05,0,0,1-4.435,6.193,15.9,15.9,0,0,1-6.832,2.813" transform="translate(-73.947 -39.168)" fill="#a51775"></path><path id="Trazado_1722" data-name="Trazado 1722" d="M349.16,197.406a23.17,23.17,0,0,1-7.138.4,7.519,7.519,0,0,1-5.048-2.8q-1.986-2.421-2.957-7.488a64.273,64.273,0,0,1-.968-13.632c.2-6.9.559-14.726,4.435-20.988a18.2,18.2,0,0,1,12.49-8.671q5.506-1.058,9.025.459t5.2,6.856c1.121,3.557,1.64,8.813,1.683,15.636.045,7.227-.515,15.413-4.231,21.713a17.791,17.791,0,0,1-12.491,8.517m.305-9.542a3.164,3.164,0,0,0,1.887-1.382q.864-1.184,1.427-4.966a87.039,87.039,0,0,0,.561-11.63q0-7.342-.306-10.9t-1.121-4.526a2.283,2.283,0,0,0-2.345-.671,3.324,3.324,0,0,0-2.039,1.565,12.975,12.975,0,0,0-1.428,5.066,87.19,87.19,0,0,0-.51,10.958q0,5.915.254,9.383a26.242,26.242,0,0,0,.714,5.012,2.892,2.892,0,0,0,1.224,1.906,2.662,2.662,0,0,0,1.682.186" transform="translate(-86.717 -37.443)" fill="#a51775"></path><path id="Trazado_1723" data-name="Trazado 1723" d="M399.605,187.424q-6.118,1.147-9.432-.057a7.634,7.634,0,0,1-4.64-4.371,20.7,20.7,0,0,1-1.325-7.956V140.372a2.171,2.171,0,0,1,.459-1.515,7.332,7.332,0,0,1,2.958-1.072q2.5-.575,8.412-1.694v37.422a10.789,10.789,0,0,0,.255,2.552,2.212,2.212,0,0,0,.968,1.449,3.12,3.12,0,0,0,2.142.159,8.026,8.026,0,0,0,2.038-.688,6.294,6.294,0,0,0,1.836-1.363V136.773a2.163,2.163,0,0,1,.459-1.514,6.761,6.761,0,0,1,2.8-1.03q2.344-.536,8.157-1.607v48.129a38.737,38.737,0,0,1-6.475,3.844,33.6,33.6,0,0,1-8.616,2.829" transform="translate(-100.047 -34.534)" fill="#a51775"></path><path id="Trazado_1724" data-name="Trazado 1724" d="M434.114,180.668V133.254a36.741,36.741,0,0,1,6.271-4.34,24.9,24.9,0,0,1,7.9-2.773q4.18-.731,5.506.268t1.325,3.646a28.524,28.524,0,0,1-.2,2.891,18.057,18.057,0,0,1-.918,3.931,6.06,6.06,0,0,0-1.989-.32,11.677,11.677,0,0,0-1.784.158,7.9,7.9,0,0,0-2.141.783,9.12,9.12,0,0,0-2.244,1.617q-.05,18.72-.1,37.44a2.147,2.147,0,0,1-.459,1.51,7.088,7.088,0,0,1-2.907,1.024q-2.446.536-8.259,1.583" transform="translate(-113.042 -32.766)" fill="#a51775"></path><path id="Trazado_1725" data-name="Trazado 1725" d="M501.757,170.209a17.736,17.736,0,0,1-6.373-.089,9.155,9.155,0,0,1-5-2.933,16.193,16.193,0,0,1-3.263-6.817,47.99,47.99,0,0,1-1.172-11.74,66.863,66.863,0,0,1,1.427-15.22,26.114,26.114,0,0,1,3.925-9.348,16.117,16.117,0,0,1,5.761-5.034,22.818,22.818,0,0,1,6.832-2.166q6.117-.921,9.584,2.465t3.467,12.254q0,3.672-.305,7.64c-.2,2.646-.378,6.239-1.122,7.042s-4.249,1.32-6.832,1.9-5.1,1.114-7.545,1.589-5.269.961-8.464,1.467c.082-3.643.123-5.464.2-9.107q2.955-.365,5.1-.7t4.182-.845a11.836,11.836,0,0,0,3.16-1.19,10.986,10.986,0,0,0,.408-2.559c.068-1.062.1-2,.1-2.819q0-4.895-.766-6.106a2.466,2.466,0,0,0-2.7-.919,3.363,3.363,0,0,0-2.243,1.464,9.7,9.7,0,0,0-1.427,3.635,39.3,39.3,0,0,0-.714,5.82q-.2,3.45-.2,8.139,0,3.57.255,6.129a13.985,13.985,0,0,0,.918,4.091,3.929,3.929,0,0,0,2.039,2.135,6.384,6.384,0,0,0,3.518.283,22.123,22.123,0,0,0,5.455-1.572,36.763,36.763,0,0,0,5.353-2.862,15.615,15.615,0,0,1,.714,3.62q.2,2.163.2,3.9a4.929,4.929,0,0,1-1.988,3.749,16.862,16.862,0,0,1-5.251,2.9,37.568,37.568,0,0,1-7.24,1.8" transform="translate(-126.54 -30.379)" fill="#a51775"></path><path id="Trazado_1726" data-name="Trazado 1726" d="M538.484,183.4c-3.739.494-6.238.347-7.494-.464a3.8,3.8,0,0,1-1.887-3.358,17.7,17.7,0,0,1,.357-3.364,9.722,9.722,0,0,1,1.071-3.055,7.12,7.12,0,0,0,2.8.837,15.655,15.655,0,0,0,4.13-.047,4.747,4.747,0,0,0,3.212-2.157q1.376-1.913,1.886-6.974-5.553-24.089-11.115-48.176a3.7,3.7,0,0,1,0-2.141q.306-.653,2.8-1.1c1.665-.293,4.469-.707,8.412-1.214,1.183,6.9,1.774,10.357,2.957,17.264q.611,3.288,1.071,6.8t.765,6.583q.305,3.073.714,6.9.306-3.913.612-7.009t.714-6.767q.407-3.667.815-7.085c.775-5.886,1.163-8.829,1.937-14.714a4.346,4.346,0,0,1,.817-2.341,5.993,5.993,0,0,1,3.11-1.131c1.665-.3,4.4-.662,8.208-1.074q-5.716,27.314-11.42,54.629a56.365,56.365,0,0,1-3.213,10.84,13.78,13.78,0,0,1-4.435,5.905,15.189,15.189,0,0,1-6.832,2.412" transform="translate(-137.777 -28.544)" fill="#a51775"></path><path id="Trazado_1727" data-name="Trazado 1727" d="M593.99,158.911a18.028,18.028,0,0,1-6.373-.473,9.9,9.9,0,0,1-5-3.223,17.285,17.285,0,0,1-3.263-7,48.813,48.813,0,0,1-1.172-11.806,65.805,65.805,0,0,1,1.427-15.141,24.549,24.549,0,0,1,3.925-9.125,14.758,14.758,0,0,1,5.761-4.7,21.567,21.567,0,0,1,6.833-1.748c4.078-.359,7.274.68,9.584,3.084s3.467,6.573,3.467,12.487q0,3.672-.305,7.619c-.2,2.632-.4,6.242-1.122,6.966s-4.249,1.037-6.832,1.453-5.1.788-7.545,1.114-5.269.641-8.464.961c.082-3.638.123-5.457.2-9.095q2.955-.193,5.1-.393t4.182-.589a11.23,11.23,0,0,0,3.16-.992,10.676,10.676,0,0,0,.408-2.534c.068-1.058.1-2,.1-2.812q0-4.895-.765-6.155a2.607,2.607,0,0,0-2.7-1.087,3.107,3.107,0,0,0-2.243,1.325,9.1,9.1,0,0,0-1.427,3.549,38.42,38.42,0,0,0-.714,5.777q-.2,3.438-.2,8.126,0,3.57.255,6.145a14.538,14.538,0,0,0,.918,4.146,4.282,4.282,0,0,0,2.039,2.259,6.538,6.538,0,0,0,3.518.5,21.317,21.317,0,0,0,5.455-1.223,34.205,34.205,0,0,0,5.353-2.507,16.24,16.24,0,0,1,.714,3.669q.2,2.177.2,3.911a4.561,4.561,0,0,1-1.988,3.615,15.609,15.609,0,0,1-5.251,2.557,36.635,36.635,0,0,1-7.24,1.337" transform="translate(-150.558 -27.505)" fill="#a51775"></path><path id="Trazado_1728" data-name="Trazado 1728" d="M637.368,155.873a24.979,24.979,0,0,1-8.412-.785,4.372,4.372,0,0,1-3.518-4.511,12.982,12.982,0,0,1,.408-2.933,15.13,15.13,0,0,1,1.428-3.613,19.194,19.194,0,0,0,8.871,1.711,5.943,5.943,0,0,0,3.925-1.376,4.221,4.221,0,0,0,1.275-3.171,10.432,10.432,0,0,0-.356-2.532,7.479,7.479,0,0,0-1.887-3.068c-3.549-3.573-5.323-5.35-8.871-8.883a16.93,16.93,0,0,1-3.773-5.468,13.095,13.095,0,0,1,.459-11.553,11.91,11.91,0,0,1,5.252-4.867,24.419,24.419,0,0,1,9.992-2.212c3.807-.177,6.594.078,8.362.729a5.3,5.3,0,0,1,4.18,5.219,8.444,8.444,0,0,1-2.243,5.575,15.743,15.743,0,0,0-4.231-1.482,19.24,19.24,0,0,0-4.538-.321,6.584,6.584,0,0,0-3.62.984,2.739,2.739,0,0,0-1.172,2.3,4.66,4.66,0,0,0,.51,1.911,12.706,12.706,0,0,0,2.447,3.043c3.018,2.918,4.528,4.384,7.546,7.332a20.2,20.2,0,0,1,4.078,6.031,18.433,18.433,0,0,1,1.02,6.545,13.812,13.812,0,0,1-4.64,10.91c-3.094,2.73-7.258,4.206-12.491,4.482" transform="translate(-162.835 -26.706)" fill="#a51775"></path><path id="Trazado_1729" data-name="Trazado 1729" d="M672.42,122.125q-1.071-22-2.141-44a2.544,2.544,0,0,1,1.07-2.319,11.222,11.222,0,0,1,4.537-.953c2.31-.172,5.813-.286,10.5-.286q-1.275,21.058-2.549,42.117a5.771,5.771,0,0,1-1.121,3.676,5.3,5.3,0,0,1-3.416,1.4c-1.6.187-3.892.3-6.883.364m5.506,25.3c-2.788.035-4.691-.554-5.71-1.789a8.162,8.162,0,0,1-1.53-5.32,7.991,7.991,0,0,1,1.887-5.242,6.681,6.681,0,0,1,5.353-2.333c2.787-.035,4.691.637,5.71,1.991a8.765,8.765,0,0,1,1.53,5.4,7.48,7.48,0,0,1-1.887,5.1,6.865,6.865,0,0,1-5.353,2.188" transform="translate(-174.538 -19.416)" fill="#a51775"></path><path id="Trazado_1730" data-name="Trazado 1730" d="M71.153,145.749a8.039,8.039,0,0,1-6.841-3.588c-4.372-6.6-4.924-15.026-4.953-22.7-.046-12.012,2.6-25.008,11.558-33.7A22.353,22.353,0,0,1,84.99,79.384l1.494-.07c5.048-.527,11.935.694,16.118,3.762a13.733,13.733,0,0,1,5.977,11.637c0,4.9-2.188,9.213-6.369,12.885-4.93,4.329-11.151,5.866-17.376,7.335-.263.118-.507,1-.708,2.627-.109.891-.21,1.791-.314,2.687s-.236,2.095-.393,3.6-.381,3.464-.669,5.886a44.314,44.314,0,0,1-1.494,7.256,14.036,14.036,0,0,1-3.617,6.148,9.163,9.163,0,0,1-6.486,2.618m.944-5.683c1.621.183,3.174-1.686,3.853-4.9q.55-2.609.825-5.1t.668-6.941q.394-4.454.787-7.535-.395-.144-1.848-.648a18.075,18.075,0,0,1-1.966-.767,15.9,15.9,0,0,1-1.376-.828A2.955,2.955,0,0,1,71.86,112a6.642,6.642,0,0,1-.314-2.352q0-1.571.707-1.589a10.024,10.024,0,0,1,3.46,1.125,10.338,10.338,0,0,0,3.223,1.112q.473-1.667,1.259-5.315a39.538,39.538,0,0,1,1.887-6.443A4.762,4.762,0,0,1,86.406,95.2c1.938-.094,2.961.4,3.066,1.495q-.315,1.118-2.437,6.179t-2.045,7.411c5.137-.76,9.226-2.495,12.266-5.133a11.98,11.98,0,0,0,4.56-9.282,9.023,9.023,0,0,0-3.932-7.98c-2.621-1.79-6.211-2.545-10.772-2.318S78.8,87.112,75.949,89.561a22.155,22.155,0,0,0-5.976,8.406,73.8,73.8,0,0,0-4.089,21.453c-.227,5.36-.069,19.937,6.212,20.645" transform="translate(-15.457 -20.622)" fill="#1d1d1b"></path><path id="Trazado_1731" data-name="Trazado 1731" d="M115.49,134.312a18.671,18.671,0,0,1,3.813-11.1q3.814-5.287,9.239-5.772a7.451,7.451,0,0,1,5.347,1.3,5.476,5.476,0,0,1,2.123,4.662,9.319,9.319,0,0,1-3.538,7.349c-2.359,2.009-5.924,3.735-10.694,5.118.734,2.2,2.62,3.17,5.662,2.9q6.289-.562,11.873-6.507a1.492,1.492,0,0,1,.983-.419,1.654,1.654,0,0,1,1.257.414,1.572,1.572,0,0,1,.59,1.273,3.006,3.006,0,0,1-.55,1.632,20.938,20.938,0,0,1-6.212,5.722,19.262,19.262,0,0,1-8.846,3.154,10.848,10.848,0,0,1-7.823-2.068q-3.224-2.465-3.224-7.662m13.17-11.769q-2.556.233-4.915,3.38a10.742,10.742,0,0,0-2.359,6.524c6.552-2.782,9.829-5.475,9.829-7.94q0-2.2-2.555-1.964" transform="translate(-30.073 -30.57)" fill="#1d1d1b"></path><path id="Trazado_1732" data-name="Trazado 1732" d="M152.805,130.816a47.028,47.028,0,0,1,5.307-10.835q3.892-6.2,6.33-6.517c2.306-.292,3.46.447,3.46,2.228a12.611,12.611,0,0,1-.825,4.078,14.33,14.33,0,0,0-.826,2.819q0,1.179,1.69.96c1.127-.147,2.975-1.149,5.543-3.021a1.812,1.812,0,0,1,.629-.165q.473-.064,1.219.7a2.148,2.148,0,0,1,.747,1.429,1.507,1.507,0,0,1-.315,1.027q-4.717,4.9-9.2,5.48c-3.566.46-5.347-.846-5.347-3.887q0-.156,1.258-5.266a18.123,18.123,0,0,0-1.258,2.043,117.375,117.375,0,0,0-7.233,16.66,4.009,4.009,0,0,1-3.381,2.423q-3.224.353-3.223-4.843V135.5a56.223,56.223,0,0,1,2.437-16.85q1.179-3.667,3.774-3.958a2.035,2.035,0,0,1,1.652.439,1.9,1.9,0,0,1,.629,1.5c-1.226,5.678-1.84,8.516-3.066,14.189" transform="translate(-38.376 -29.529)" fill="#1d1d1b"></path><path id="Trazado_1733" data-name="Trazado 1733" d="M195.5,129.07q0,2.673-.039,3.663t-.236,3.3a15.675,15.675,0,0,1-1.534,5.183c-1.31,2.815-3.958,4.678-7.94,5.554l-.393.055c-3.984.559-5.991-3.913-5.976-13.334a146.712,146.712,0,0,1,2.83-26.094A105.7,105.7,0,0,1,185.944,92.8a40.836,40.836,0,0,1,5.779-11.448q3.538-4.765,7.784-5.418a4.237,4.237,0,0,1,3.931,1.077q1.416,1.469,1.416,4.69a23.241,23.241,0,0,1-1.416,7.38c-2.906,8-7.89,15.117-12.973,21.862a8.308,8.308,0,0,0,2.752-.011,23.789,23.789,0,0,0,3.224-.719,9.4,9.4,0,0,0,1.3-.511c.5-.233.865-.408,1.1-.523s.629-.346,1.18-.693.9-.586,1.061-.715.563-.428,1.219-.9,1.086-.787,1.3-.951a1.271,1.271,0,0,1,.55-.283q.943-.15.944,1.737a5.117,5.117,0,0,1-1.18,3.332c-1.572,1.978-5.452,3.568-11.637,4.688a30.634,30.634,0,0,1,2.241,6.744,32.218,32.218,0,0,1,.983,6.929m-8.885,12.542q3.931-.557,3.931-9.528a42.284,42.284,0,0,0-1.336-10.342,26.842,26.842,0,0,0-3.145-8.043q0,.395-.433,8t-.433,10.833q0,9.277,1.416,9.078m11.873-59.543q-1.731.265-3.421,2.839a27.708,27.708,0,0,0-2.988,6.5q-1.3,3.926-2.24,7.325t-1.691,6.849q-.747,3.449-.826,3.617,1.965-2.559,4.285-5.926a80.426,80.426,0,0,0,5.268-9.239q2.949-5.873,2.949-9.022t-1.336-2.939" transform="translate(-46.71 -19.752)" fill="#1d1d1b"></path><path id="Trazado_1734" data-name="Trazado 1734" d="M206.7,123.286a20.037,20.037,0,0,1,3.813-11.407q3.813-5.594,9.238-6.486a7.114,7.114,0,0,1,5.347.913,5.079,5.079,0,0,1,2.123,4.513,10.062,10.062,0,0,1-3.538,7.6c-2.359,2.18-5.924,4.166-10.694,5.924.734,2.137,2.62,2.963,5.662,2.462q6.289-1.035,11.873-7.354a1.606,1.606,0,0,1,.983-.486,1.571,1.571,0,0,1,1.257.331,1.463,1.463,0,0,1,.59,1.234,3.18,3.18,0,0,1-.55,1.669,23.268,23.268,0,0,1-6.212,6.145,20.922,20.922,0,0,1-8.846,3.8,10.387,10.387,0,0,1-7.823-1.457q-3.224-2.206-3.224-7.4m13.17-12.8q-2.556.423-4.915,3.753a11.528,11.528,0,0,0-2.359,6.708c6.552-3.3,9.829-6.22,9.829-8.684q0-2.2-2.555-1.777" transform="translate(-53.824 -27.407)" fill="#1d1d1b"></path><path id="Trazado_1735" data-name="Trazado 1735" d="M237.317,117.93a19.991,19.991,0,0,1,3.774-11.31,14.432,14.432,0,0,1,9.514-6.611,6.643,6.643,0,0,1,5.307.879,4.631,4.631,0,0,1,2.005,3.915,8.687,8.687,0,0,1-1.494,4.758q-1.494,2.321-2.594,2.521a1.734,1.734,0,0,1-1.651-.367,1.711,1.711,0,0,1-.551-1.2,4.32,4.32,0,0,1,.511-1.706,4.876,4.876,0,0,0,.511-2.1,1.452,1.452,0,0,0-.707-1.4,2.459,2.459,0,0,0-1.651-.212q-2.518.455-4.836,3.62a13.662,13.662,0,0,0-2.319,8.273,5.211,5.211,0,0,0,1.651,4.268,5.083,5.083,0,0,0,4.325.878q5.581-1.006,12.03-9.285a1.786,1.786,0,0,1,1.022-.663,1.134,1.134,0,0,1,1.061.47,1.919,1.919,0,0,1,.511,1.319,2.92,2.92,0,0,1-.314,1.356,27.357,27.357,0,0,1-6.25,7.3,19.551,19.551,0,0,1-9.279,4.285,8.679,8.679,0,0,1-8.609-2.8,9.084,9.084,0,0,1-1.966-6.185" transform="translate(-61.797 -25.997)" fill="#1d1d1b"></path><path id="Trazado_1736" data-name="Trazado 1736" d="M268.068,101.337v-.865a4.046,4.046,0,0,1-1.769,1.036,1.274,1.274,0,0,1-1.258-.434,2.257,2.257,0,0,1-.511-1.557,2.016,2.016,0,0,1,.944-1.669q.943-.686,2.987-2.011a118.34,118.34,0,0,1,5.5-20.928,32.821,32.821,0,0,1,5.268-8.9q3.143-3.708,6.133-4.287t4.285.662a4.435,4.435,0,0,1,1.3,3.364v.55A28.78,28.78,0,0,1,286.586,78.7a62.375,62.375,0,0,1-9.161,11.827q6.525-3.445,8.335-3.8a1.366,1.366,0,0,1,1.218.433,2.162,2.162,0,0,1,.59,1.654q0,1.1-1.337,1.6a77.72,77.72,0,0,0-12.266,6.361q-.159,2.548-.158,3.962,0,7.47,3.224,6.857,3.774-.719,8.728-7.182a2.33,2.33,0,0,1,1.375-.817,1.993,1.993,0,0,1,1.573.362,1.728,1.728,0,0,1,.747,1.506,3.69,3.69,0,0,1-.944,2.188q-6.055,7.941-12.188,9.108-4.56.868-6.408-2.21t-1.848-9.207m16.827-33c-1.391.18-2.936,1.668-4.4,4.151a43.541,43.541,0,0,0-5.583,16.475q.156-.185,1.927-2.489t2.2-2.857q.43-.555,1.887-2.6a21.481,21.481,0,0,0,1.926-3.083q.473-1.035,1.3-2.767a13.238,13.238,0,0,0,1.1-3.2,14.181,14.181,0,0,0,.275-2.569c0-.733-.238-1.109-.629-1.058" transform="translate(-68.883 -16.023)" fill="#1d1d1b"></path><path id="Trazado_1737" data-name="Trazado 1737" d="M295.892,105.362a34.8,34.8,0,0,1,1.257-8.383,39.539,39.539,0,0,1,2.517-7.449,8.705,8.705,0,0,1,2.162-3.136,5.529,5.529,0,0,1,2.044-.834,3.14,3.14,0,0,1,1.966.163c.55.258.825.6.825,1.017a6.8,6.8,0,0,1-.9,2.38,42.9,42.9,0,0,0-2.319,6.589,29.013,29.013,0,0,0-1.416,7.59q0,3.7,2.752,3.156,3.3-.65,7.942-6.915a2.431,2.431,0,0,1,1.532-1.09,2.077,2.077,0,0,1,1.652.341,1.645,1.645,0,0,1,.748,1.424,4.115,4.115,0,0,1-.865,2.177q-5.82,7.994-12.109,9.232a6.526,6.526,0,0,1-5.661-1.054,6.358,6.358,0,0,1-2.123-5.209m11.559-25.695q-4.247.836-4.247-2.861a4.667,4.667,0,0,1,1.376-3.376,6.512,6.512,0,0,1,3.5-1.828q3.931-.775,3.932,2.761a5.072,5.072,0,0,1-1.258,3.473,5.738,5.738,0,0,1-3.3,1.831" transform="translate(-77.049 -18.609)" fill="#1d1d1b"></path><path id="Trazado_1738" data-name="Trazado 1738" d="M323.989,112.188a7.008,7.008,0,0,1-6.447-1.552,8.523,8.523,0,0,1-2.516-6.578,20.644,20.644,0,0,1,4.206-12.273q4.206-5.827,9.868-6.954a6.227,6.227,0,0,1,5.543,1.255,6.869,6.869,0,0,1,2.241,5.529,17.158,17.158,0,0,1-.314,2.579q5.111-1.961,10.143-8.622a1.4,1.4,0,0,1,.825-.478c.34-.067.7.112,1.062.536a2.084,2.084,0,0,1,.55,1.385,1.721,1.721,0,0,1-.314,1.123c-2.935,4.537-11.255,9.02-13.052,11.243-2.138,2.645-5.406,11.573-11.794,12.8m1.18-5.267a6.372,6.372,0,0,0,3.813-3.039,11.046,11.046,0,0,0,2.005-4.959q-2.91-.678-2.91-2.645a6.961,6.961,0,0,1,2.045-4.339,2.047,2.047,0,0,0-.511-1.392,1.35,1.35,0,0,0-1.22-.229q-2.988.595-5.11,4.515a16.09,16.09,0,0,0-2.123,7.695q0,5.19,4.01,4.393" transform="translate(-82.032 -22.046)" fill="#1d1d1b"></path><path id="Trazado_1739" data-name="Trazado 1739" d="M372.177,96.488q2.988-1.211,7.234-6.043a1.5,1.5,0,0,1,.9-.489q.59-.113,1.258.819a2.893,2.893,0,0,1,.669,1.523,2.285,2.285,0,0,1-.158.935,22.143,22.143,0,0,1-6.29,6.167,19.145,19.145,0,0,1-6.291,2.957q-4.561.893-4.56-4.059a29.733,29.733,0,0,1,1.572-7.778q1.572-5.183,1.572-5.537c0-.236-.053-.343-.157-.323l-.079.016q-1.338.813-5.622,7.358A57.42,57.42,0,0,0,357,101.126a12.988,12.988,0,0,1-1.612,3.347,3.586,3.586,0,0,1-2.163,1.1c-1.91.354-2.923-1.48-2.91-5.4a54.609,54.609,0,0,1,3.46-17.907q1.021-3.033,3.459-3.518a1.833,1.833,0,0,1,1.573.317,1.479,1.479,0,0,1,.629,1.173,3.6,3.6,0,0,1-.079.921,83.148,83.148,0,0,0-2.909,12.213,63.545,63.545,0,0,1,8.02-12.4q3.931-4.508,7-5.108a3.638,3.638,0,0,1,2.752.447,2.182,2.182,0,0,1,1.18,1.855q0,1.73-2.005,8.213T371.234,94a14.483,14.483,0,0,0-.158,1.958q0,.825.511.686c.339-.092.537-.143.589-.154" transform="translate(-91.222 -19.733)" fill="#1d1d1b"></path><path id="Trazado_1740" data-name="Trazado 1740" d="M415.671,67.088c.092-10.624,2.487-21.934,8.374-30.815,4.555-6.872,12.11-12.6,20.168-14.069,4.638-.844,11.767-.491,15.961,2.372,3.927,2.68,5.976,6.223,5.976,10.626a14.614,14.614,0,0,1-2.91,9.079,17.379,17.379,0,0,1-5.229,4.647,39.7,39.7,0,0,1-7.116,3.007c2.246,7.723,4.717,15.18,9.278,21.861,3.9,5.712,7.5,8.565,10.693,8.531a7.289,7.289,0,0,0,1.258-.1q3.38-.475,6.6-4.364a1.9,1.9,0,0,1,1.219-.633,2.142,2.142,0,0,1,1.612.614,2.1,2.1,0,0,1,.865,1.657,1.689,1.689,0,0,1-.235.817,22.573,22.573,0,0,1-4.757,5.621,13.41,13.41,0,0,1-7.116,3.305c-3.617.515-7.261-1.126-10.929-4.754a47.039,47.039,0,0,1-9.2-13.966,65.131,65.131,0,0,1-4.875-17.053q-2.517.574-3.853.8-.315,2.255-.747,6.023t-.708,5.9q-.275,2.129-.707,5.348a42.067,42.067,0,0,1-.944,5.114q-.511,1.9-1.219,4.336a15.822,15.822,0,0,1-1.612,3.893,29.457,29.457,0,0,1-2.083,2.916,10.086,10.086,0,0,1-6.134,3.359c-3.617.643-6.5-.889-8.57-4.587-2.8-5-2.857-11.006-3.145-16.563.031-1.169.047-1.754.078-2.924m26.5-18.046c5.4-1.009,9.3-2.235,11.715-3.716q4.481-2.751,4.482-8.876a7.423,7.423,0,0,0-3.3-6.563c-2.2-1.49-5.722-1.839-10.536-1.052-6.991,1.143-12.727,5.781-16.157,11.854-4.354,7.708-5.671,16.143-5.858,24.6a49.94,49.94,0,0,0,1.612,14.649q1.533,5.226,4.364,4.725l.078-.014q1.652-.292,2.752-4.337c.366-1.374.905-3.467,1.494-6.2,1.342-6.225,1.818-12.792,2.516-19.189-2.831-.035-4.246-.834-4.246-2.407s.524-2.451,1.572-2.634a26.22,26.22,0,0,1,3.46-.206q2.673-11,7.155-11.748c1.939-.323,2.965.338,2.91,1.8a11.619,11.619,0,0,1-1.808,3.915,16.59,16.59,0,0,0-2.2,5.4" transform="translate(-108.219 -5.678)" fill="#1d1d1b"></path><path id="Trazado_1741" data-name="Trazado 1741" d="M489.477,70a34.009,34.009,0,0,1,1.257-8.316,37.51,37.51,0,0,1,2.517-7.31,8,8,0,0,1,2.162-3.009,5.186,5.186,0,0,1,2.044-.709,3.194,3.194,0,0,1,1.966.289c.55.294.825.652.825,1.072a6.389,6.389,0,0,1-.9,2.32,40.256,40.256,0,0,0-2.319,6.441,28.1,28.1,0,0,0-1.416,7.5q0,3.7,2.752,3.326,3.3-.439,7.942-6.367a2.159,2.159,0,0,1,3.184-.506,1.8,1.8,0,0,1,.748,1.482,3.81,3.81,0,0,1-.865,2.109q-5.82,7.538-12.109,8.38a6.8,6.8,0,0,1-5.661-1.385A6.7,6.7,0,0,1,489.477,70M501.035,44.99c-2.83.368-4.246-.669-4.246-3.134a4.38,4.38,0,0,1,1.376-3.29,6.008,6.008,0,0,1,3.5-1.6c2.62-.338,3.932.68,3.932,3.039a4.744,4.744,0,0,1-1.258,3.382,5.308,5.308,0,0,1-3.3,1.6" transform="translate(-127.458 -9.61)" fill="#1d1d1b"></path><path id="Trazado_1742" data-name="Trazado 1742" d="M532.674,55.387q-2.2,9.533-4.4,19.067c5.4-4.949,9.172-7.478,11.322-7.662a2.186,2.186,0,0,1,1.533.618,2.364,2.364,0,0,1,.826,1.936q0,1.259-1.73,2.268c-6.082,3.815-10.3,6.68-12.659,8.494-1.221,5.943-2.7,12.75-6.289,17.573-2.757,3.705-6.186,5.81-9.75,6.247-4.352.533-6.526-.959-6.526-4.523a6.206,6.206,0,0,1,.472-2.5q.236-.661.433-1.2a6.614,6.614,0,0,1,.629-1.221c.287-.457.51-.812.668-1.068s.419-.643.786-1.162.616-.864.747-1.038.407-.51.825-1.007,1.01-1.24,1.769-2.224a36.158,36.158,0,0,1,4.679-4.492q1.257-1.17,3.341-2.939t3.106-2.664c.314-1.544.472-2.316.786-3.859a9.506,9.506,0,0,1-3.145,2.9,10.157,10.157,0,0,1-4.089,1.53,6.237,6.237,0,0,1-5.307-1.524,6.77,6.77,0,0,1-2.006-5.137,20.424,20.424,0,0,1,5.032-13.317q5.031-6.066,11.4-6.749l.314-.033a2.89,2.89,0,0,1,2.044.378,1.5,1.5,0,0,1,.708,1.226,4.76,4.76,0,0,1,1.809-.5,2.743,2.743,0,0,1,1.926.481,1.876,1.876,0,0,1,.825,1.612c-.031.192-.047.288-.078.479M511.131,99.73q4.009-.493,7-6.137a39.88,39.88,0,0,0,4.01-10.788q-.788.793-2.477,2.4t-2.555,2.454q-.864.845-2.241,2.227a26.458,26.458,0,0,0-2.084,2.294q-.707.911-1.808,2.54a6.158,6.158,0,0,0-1.1,3.517q0,1.651,1.259,1.5m6.6-26.575q4.718-.541,6.841-8.383c.849-3.3,1.274-4.946,2.123-8.243a11.942,11.942,0,0,0-8.216,4.9q-3.5,4.408-3.5,8.23c0,2.544.916,3.7,2.751,3.493" transform="translate(-131.5 -13.457)" fill="#1d1d1b"></path><path id="Trazado_1743" data-name="Trazado 1743" d="M546.989,60.208q0-1.652.157-3.4a151.4,151.4,0,0,1,5.268-28.21,38.3,38.3,0,0,1,6.33-12.326q3.969-4.968,8.766-5.259a5.574,5.574,0,0,1,4.482,1.48,6.037,6.037,0,0,1,1.651,4.477v.55c-.42,3.48-2.021,7.461-4.836,11.816-3.931,6.082-9.161,11.232-14.271,16.388-.566,3.19-.849,4.785-1.415,7.977a38.677,38.677,0,0,1,8.766-11.233c3.275-2.765,5.622-4.173,7.037-4.253a5.091,5.091,0,0,1,3.3.725,2.346,2.346,0,0,1,1.18,1.867,6.811,6.811,0,0,1-.393,2.182q-.393,1.16-2.83,6.95t-2.438,8.316c0,.525.3.768.9.734s1.927-.714,3.971-2.024a50.278,50.278,0,0,0,5.661-4.193,1.933,1.933,0,0,1,.983-.276q.589-.023,1.18.9a4.345,4.345,0,0,1,.589,2.376,3.274,3.274,0,0,1-1.572,2.615c-5.3,3.774-9.96,5.81-14,6.062a3.519,3.519,0,0,1-2.634-1.009,4.894,4.894,0,0,1-1.218-3.77,23.258,23.258,0,0,1,1.887-7.6q1.887-4.918,1.888-5.231c0-.209-.079-.31-.237-.3a2.885,2.885,0,0,0-1.258.709,35.347,35.347,0,0,0-6.133,6.679,28.647,28.647,0,0,0-4.167,7.164,14.152,14.152,0,0,1-1.573,3.589,2.994,2.994,0,0,1-2.2.933,2.013,2.013,0,0,1-2.2-1.261,10.562,10.562,0,0,1-.629-4.15M565.7,17.5q-3.618.225-7.47,10.965A67.31,67.31,0,0,0,555.245,39.7a83.223,83.223,0,0,0,8.412-11.26q3.7-5.941,3.7-9.391A1.366,1.366,0,0,0,565.7,17.5" transform="translate(-142.434 -2.865)" fill="#1d1d1b"></path><path id="Trazado_1744" data-name="Trazado 1744" d="M587.948,52.092v-.865a3.449,3.449,0,0,1-1.769.784,1.462,1.462,0,0,1-1.259-.611,2.537,2.537,0,0,1-.511-1.627,1.713,1.713,0,0,1,.944-1.538q.943-.554,2.987-1.584a104.661,104.661,0,0,1,5.5-20.091,26.153,26.153,0,0,1,5.268-8.042q3.143-3.174,6.133-3.2c1.991-.021,3.421.472,4.285,1.466a5.318,5.318,0,0,1,1.3,3.614v.551a24.138,24.138,0,0,1-4.364,11.576,49.745,49.745,0,0,1-9.16,10.218c4.35-1.576,7.128-2.336,8.334-2.347a1.64,1.64,0,0,1,1.219.658,2.556,2.556,0,0,1,.589,1.764c0,.735-.446,1.182-1.336,1.348-2.674.444-6.762,1.833-12.266,4.258q-.159,2.523-.158,3.937c0,4.98,1.074,7.432,3.224,7.377q3.774-.1,8.727-5.66a1.878,1.878,0,0,1,1.376-.562,2.317,2.317,0,0,1,1.573.659,2.121,2.121,0,0,1,.747,1.649,3.019,3.019,0,0,1-.944,2.008q-6.055,6.792-12.187,6.957c-3.041.082-5.177-.977-6.408-3.211s-1.848-5.39-1.848-9.479m16.826-30.249c-1.374-.07-2.936,1.14-4.4,3.371a37.528,37.528,0,0,0-5.583,15.548q.156-.161,1.926-2.177t2.2-2.49q.431-.48,1.887-2.28a17.035,17.035,0,0,0,1.926-2.745q.473-.952,1.3-2.535a11.181,11.181,0,0,0,1.1-3,13.377,13.377,0,0,0,.275-2.519c0-.733-.234-1.152-.629-1.172" transform="translate(-152.178 -3.987)" fill="#1d1d1b"></path></g></g></g></svg>