<svg xmlns="http://www.w3.org/2000/svg" width="25.095" height="25.095" viewBox="0 0 25.095 25.095"><path id="icon_cart" d="M17.275,21.957A3.137,3.137,0,1,1,20.412,25.1,3.137,3.137,0,0,1,17.275,21.957Zm-15.684,0A3.137,3.137,0,1,1,4.728,25.1,3.136,3.136,0,0,1,1.591,21.957ZM0,17.252V14.116H19.23l2.239-7.843H3.159V3.137H.023V0h4.7A1.568,1.568,0,0,1,6.3,1.568V3.137H23.55a1.6,1.6,0,0,1,1.507,2L21.921,16.114a1.569,1.569,0,0,1-1.509,1.138Zm1.568-4.7V10.979H7.843v1.568ZM3.138,9.41V7.841H9.411V9.41Z" fill="#5dbbc8"></path></svg>