<svg xmlns="http://www.w3.org/2000/svg" width="38.251" height="36.266" viewBox="0 0 38.251 36.266"><path id="Trazado_9" data-name="Trazado 9" d="M133.633,29.743h0a13.864,13.864,0,0,1-12.2,4.558c-5.62-.663-9.743-3.62-11.7-9.032-1.4-3.884-.93-9.466,2.357-12.322a12.731,12.731,0,0,1,15.577-.806,8.65,8.65,0,0,1,4.035,8.169c-.288,3.562-3.192,7.153-7,7.487A6.956,6.956,0,0,1,117.8,24.71a4.93,4.93,0,0,1,2.723-7.328,4.176,4.176,0,0,1,4.492,1.576,2.558,2.558,0,0,1,.106,2.817,2.312,2.312,0,0,1-2.338,1.327,1.884,1.884,0,0,1-1.584-1.039,1.392,1.392,0,0,1,.233-1.463,2.039,2.039,0,0,0,.376-1.261,1.334,1.334,0,0,0-2.3-.556,3.871,3.871,0,0,0,.784,6.1,5.174,5.174,0,0,0,6.953-1.4,5.357,5.357,0,0,0-1.213-7.3,7.153,7.153,0,0,0-10.76,2.317c-2.161,4.063-.449,8.32,3.191,10.444a10.255,10.255,0,0,0,12.322-1.228,10.657,10.657,0,0,0,3.155-11.378,11.773,11.773,0,0,0-6.2-7.22c-.322-.175-.635-.367-.953-.55-.092-.1-.04-.16.084-.182a3.018,3.018,0,0,1,.87.221,13.99,13.99,0,0,1,8.23,7.546,12.786,12.786,0,0,1-2.34,13.584m8.273-14.6a6.024,6.024,0,0,1-.16-.685,16.976,16.976,0,0,0-5.439-9.425A18.791,18.791,0,0,0,123.055,0,35.717,35.717,0,0,0,119.34.28a18.793,18.793,0,0,0-6.857,2.65,17.457,17.457,0,0,0-8.461,12.846,16.978,16.978,0,0,0,4.165,13.857,19.2,19.2,0,0,0,13.584,6.624A21.031,21.031,0,0,0,133.377,33.4a18.085,18.085,0,0,0,8.234-11.375,20.42,20.42,0,0,0,.49-4.2,18.54,18.54,0,0,0-.195-2.669" transform="translate(-103.85 0)" fill="#d0002d" fill-rule="evenodd"></path></svg>