<svg xmlns="http://www.w3.org/2000/svg" width="23.506" height="20.918" viewBox="0 0 23.506 20.918"><path id="Trazado_1710" data-name="Trazado 1710" d="M0,5.752A9.231,9.231,0,0,1,.359,4.175,5.836,5.836,0,0,1,3.962.38,5.378,5.378,0,0,1,9.694,1.49a7.241,7.241,0,0,1,1.414,1.778c.127.218.134.217.267-.012a7.036,7.036,0,0,1,1.978-2.231,5.215,5.215,0,0,1,2.92-1A5.67,5.67,0,0,1,19.7.971a5.985,5.985,0,0,1,2.4,3.157,7.246,7.246,0,0,1-.938,6.585A18.515,18.515,0,0,1,18.178,14.1c-2.057,1.913-4.234,3.689-6.349,5.536a.747.747,0,0,1-1.178,0c-1.933-1.677-3.9-3.312-5.8-5.028a20.426,20.426,0,0,1-3.5-3.855A7.867,7.867,0,0,1,.028,7.35.753.753,0,0,0,0,7.245ZM6,1.377a4.385,4.385,0,0,0-2.391.688A5.183,5.183,0,0,0,1.4,7.2,6.382,6.382,0,0,0,2.71,10.317,21.851,21.851,0,0,0,5.954,13.76c1.668,1.5,3.4,2.933,5.093,4.409a.244.244,0,0,0,.388-.005c.582-.512,1.173-1.014,1.762-1.519,1.382-1.186,2.782-2.352,4.1-3.605A16.594,16.594,0,0,0,20.18,9.687a5.864,5.864,0,0,0,.828-4.347,4.655,4.655,0,0,0-2.616-3.526,4.045,4.045,0,0,0-4.314.385,6.133,6.133,0,0,0-1.942,2.582c-.1.213-.166.437-.259.652a.674.674,0,0,1-.838.414.777.777,0,0,1-.5-.564,7.21,7.21,0,0,0-1.384-2.4A4.248,4.248,0,0,0,6,1.377" transform="translate(0.5 0.507)" fill="#5dbbc8" stroke="#5dbbc8" stroke-width="1"></path></svg>