<svg xmlns="http://www.w3.org/2000/svg" width="21.554" height="23.03" viewBox="0 0 21.554 23.03"><g id="vYa4wd.tif" transform="translate(0.5 0.501)"><g id="Grupo_518" data-name="Grupo 518" transform="translate(0)"><path id="Trazado_1704" data-name="Trazado 1704" d="M614.873,730.691a.9.9,0,0,1-.612-.953,9.738,9.738,0,0,1,.873-4.06,7.447,7.447,0,0,1,4.1-3.72,12.623,12.623,0,0,1,3.672-.822,17.983,17.983,0,0,1,2.809-.039,12.246,12.246,0,0,1,4.941,1.234,7.393,7.393,0,0,1,3.953,5.35c.1.512.144,1.033.2,1.55,0,.451,0,.9,0,1.352,0,.089-.014.128-.109.11a.575.575,0,0,0-.107,0Zm9.667-1.639h8.205c.072,0,.143,0,.215,0,.138,0,.168-.065.153-.191a8.8,8.8,0,0,0-.338-1.658,5.692,5.692,0,0,0-2.887-3.416,9.664,9.664,0,0,0-3.556-.984,17.192,17.192,0,0,0-3.343-.018,10.618,10.618,0,0,0-3.347.787,5.817,5.817,0,0,0-2.773,2.377,6.68,6.68,0,0,0-.87,2.74c-.038.363-.034.363.335.363Z" transform="translate(-614.261 -708.669)" fill="#5dbbc8" stroke="#5dbbc8" stroke-width="1"></path><path id="Trazado_1705" data-name="Trazado 1705" d="M739.855,438.185a5.814,5.814,0,0,1-2.6,4.978,4.969,4.969,0,0,1-5.856-.272,5.75,5.75,0,0,1-2.176-3.98,5.43,5.43,0,0,1,1.738-4.856,4.94,4.94,0,0,1,2.706-1.257,5.309,5.309,0,0,1,4.134,1.026,5.251,5.251,0,0,1,2.016,3.569,3.1,3.1,0,0,1,.038.319C739.86,437.87,739.855,438.028,739.855,438.185Zm-9.029-.027a4.343,4.343,0,0,0,1.319,3.2,3.357,3.357,0,0,0,4.648.086,4.17,4.17,0,0,0,1.271-4.323,3.678,3.678,0,0,0-7.239,1.037Z" transform="translate(-724.239 -432.732)" fill="#5dbbc8" stroke="#5dbbc8" stroke-width="1"></path></g></g></svg>