<svg width="42" height="42" xmlns="http://www.w3.org/2000/svg" version="1.1">
  <path id="svg_1" d="m40.8205,22.43948l-12.959,14c-0.349,0.364 -0.817,0.566 -1.302,0.561s-0.95,-0.215 -1.293,-0.586c-0.343,-0.371 -0.538,-0.872 -0.542,-1.397s0.182,-1.03 0.52,-1.407l9.799,-10.586l-32.556,0c-0.491,0 -0.962,-0.211 -1.309,-0.586s-0.542,-0.884 -0.542,-1.414c0,-0.53 0.195,-1.039 0.542,-1.414s0.818,-0.586 1.309,-0.586l32.556,0l-9.799,-10.586c-0.177,-0.184 -0.318,-0.405 -0.415,-0.649s-0.148,-0.506 -0.15,-0.772c-0.002,-0.266 0.045,-0.529 0.138,-0.775s0.231,-0.469 0.404,-0.657c0.174,-0.188 0.381,-0.336 0.608,-0.437s0.471,-0.151 0.717,-0.149c0.246,0.002 0.489,0.057 0.715,0.162s0.43,0.257 0.601,0.448l12.959,14c0.347,0.375 0.542,0.884 0.542,1.414s-0.195,1.039 -0.542,1.414l-0.001,0.002z"/>
</svg>