<!-- Generated by IcoMoon.io -->
<svg version="1.1" xmlns="http://www.w3.org/2000/svg" width="32" height="32" viewBox="0 0 32 32">
<title>fi-rr-shopping-cart</title>
<path d="M30.284 5.436c-0.375-0.45-0.845-0.812-1.375-1.060s-1.109-0.376-1.695-0.376h-21.557l-0.056-0.468c-0.115-0.973-0.582-1.87-1.314-2.521s-1.677-1.011-2.657-1.011h-0.296c-0.354 0-0.693 0.14-0.943 0.391s-0.391 0.589-0.391 0.943c0 0.354 0.14 0.693 0.391 0.943s0.589 0.391 0.943 0.391h0.296c0.327 0 0.642 0.12 0.886 0.337s0.4 0.516 0.438 0.84l1.835 15.6c0.19 1.622 0.97 3.118 2.191 4.204s2.797 1.685 4.431 1.685h13.924c0.354 0 0.693-0.14 0.943-0.39s0.391-0.589 0.391-0.943-0.14-0.693-0.391-0.943c-0.25-0.25-0.589-0.39-0.943-0.39h-13.924c-0.825-0.002-1.63-0.26-2.303-0.737s-1.182-1.151-1.457-1.929h15.893c1.563 0 3.076-0.549 4.276-1.551s2.008-2.394 2.286-3.933l1.047-5.805c0.104-0.576 0.081-1.168-0.069-1.734s-0.422-1.092-0.798-1.541zM28.533 8.237l-1.048 5.805c-0.166 0.924-0.653 1.76-1.373 2.362s-1.63 0.93-2.569 0.929h-16.317l-1.255-10.667h21.243c0.196-0.001 0.39 0.041 0.567 0.123s0.335 0.202 0.461 0.352c0.126 0.15 0.217 0.326 0.268 0.515s0.058 0.387 0.024 0.58z"></path>
<path d="M9.334 32.001c1.473 0 2.667-1.194 2.667-2.667s-1.194-2.667-2.667-2.667-2.667 1.194-2.667 2.667c0 1.473 1.194 2.667 2.667 2.667z"></path>
<path d="M22.667 32.001c1.473 0 2.667-1.194 2.667-2.667s-1.194-2.667-2.667-2.667c-1.473 0-2.667 1.194-2.667 2.667s1.194 2.667 2.667 2.667z"></path>
</svg>
