<svg width="16" height="16" fill="none" xmlns="http://www.w3.org/2000/svg"><path d="M6.45.615c-.895.097-1.566.668-1.787 1.518-.055.212-.059.299-.069 1.34l-.011 1.114h-.925c-1.262.001-1.541.034-1.947.235a2.015 2.015 0 0 0-1.05 1.325l-.061.24v3.6c0 3.415.003 3.611.05 3.813.098.425.282.757.57 1.031.281.268.579.426.98.519.202.047.399.05 3.813.05h3.6l.235-.06c.75-.191 1.284-.72 1.487-1.473.058-.215.061-.284.072-1.338l.011-1.111 1.111-.011c1.054-.011 1.123-.014 1.338-.072.753-.203 1.282-.737 1.473-1.487l.06-.235v-3.6c0-3.414-.003-3.611-.05-3.813-.185-.797-.745-1.362-1.537-1.55-.186-.044-.445-.047-3.68-.052C8.219.595 6.562.603 6.45.615m7.068 1.505c.056.013.141.07.218.147.111.111.129.144.148.283.029.202.03 6.694.001 6.895a.43.43 0 0 1-.128.272.529.529 0 0 1-.205.152c-.064.02-.453.036-1.117.044l-1.019.013-.009-1.783c-.01-1.715-.013-1.791-.067-1.996a1.982 1.982 0 0 0-.583-.997 2.021 2.021 0 0 0-.944-.499c-.176-.041-.405-.047-1.97-.057l-1.77-.011.015-1.005c.008-.553.027-1.051.041-1.108a.64.64 0 0 1 .255-.315c.029-.016.167-.037.307-.048.33-.027 6.706-.014 6.827.013m-4 4c.056.013.141.07.218.147.111.111.129.144.148.283.029.202.03 6.694.001 6.895a.543.543 0 0 1-.347.428c-.163.049-6.913.049-7.076 0a.543.543 0 0 1-.347-.428c-.029-.2-.028-6.693.001-6.894a.401.401 0 0 1 .117-.261c.132-.146.167-.16.458-.183.33-.027 6.706-.014 6.827.013" fill-rule="evenodd" fill="#000"/></svg>