<!-- Generated by IcoMoon.io -->
<svg version="1.1" xmlns="http://www.w3.org/2000/svg" width="44" height="32" viewBox="0 0 44 32">
<title>quote</title>
<path d="M0 12c0.065-3.4 1.211-6.233 3.438-8.5s5.009-3.433 8.348-3.5h3.929v6.4h-3.929c-1.571 0.067-2.881 0.6-3.929 1.6-0.982 1.067-1.506 2.4-1.571 4v0.8h12.571v19.2h-18.857v-20zM25.143 12c0.065-3.4 1.211-6.233 3.438-8.5s5.009-3.433 8.348-3.5h3.929v6.4h-3.929c-1.571 0.067-2.881 0.6-3.929 1.6-0.982 1.067-1.506 2.4-1.571 4v0.8h12.571v19.2h-18.857v-20z"></path>
</svg>
