<!-- Generated by IcoMoon.io -->
<svg version="1.1" xmlns="http://www.w3.org/2000/svg" width="32" height="32" viewBox="0 0 32 32">
<title>fi-rr-search</title>
<path d="M31.608 29.724l-7.959-7.959c2.169-2.652 3.235-6.037 2.978-9.454s-1.817-6.604-4.358-8.903-5.868-3.533-9.293-3.447c-3.425 0.086-6.687 1.485-9.109 3.907s-3.822 5.684-3.907 9.109c-0.086 3.425 1.149 6.752 3.447 9.293s5.486 4.101 8.903 4.358c3.417 0.257 6.801-0.81 9.454-2.978l7.959 7.959c0.252 0.243 0.588 0.377 0.938 0.374s0.684-0.143 0.931-0.39c0.247-0.247 0.388-0.582 0.391-0.931s-0.131-0.686-0.374-0.938zM13.332 24c-2.11 0-4.172-0.626-5.926-1.798s-3.121-2.838-3.929-4.787c-0.807-1.949-1.019-4.094-0.607-6.163s1.428-3.97 2.919-5.462c1.492-1.492 3.392-2.508 5.462-2.919s4.214-0.2 6.163 0.607c1.949 0.807 3.615 2.175 4.787 3.929s1.798 3.816 1.798 5.926c-0.003 2.828-1.128 5.539-3.128 7.539s-4.711 3.124-7.539 3.128z"></path>
</svg>
