<svg width="24" height="24" fill="none" xmlns="http://www.w3.org/2000/svg"><path d="M6.143 1.044a1.922 1.922 0 0 0-.97.484c-.226.213-2.517 3.23-2.766 3.644-.168.279-.311.69-.366 1.049-.03.193-.04 2.414-.031 7.239l.012 6.96.09.336c.176.66.534 1.213 1.03 1.594a2.86 2.86 0 0 0 1.123.539l.355.091h7.36c7.033 0 7.374-.003 7.68-.074.797-.186 1.381-.58 1.822-1.229.197-.29.298-.521.41-.937l.086-.32.012-6.96c.009-4.831-.001-7.045-.03-7.239a3.138 3.138 0 0 0-.367-1.049c-.249-.414-2.54-3.431-2.766-3.644a1.883 1.883 0 0 0-1.007-.486c-.348-.05-11.333-.048-11.677.002M18.25 4 19 5H5l.75-1 .749-1h11.002l.749 1m1.74 9.61c-.01 5.288-.023 6.641-.064 6.764-.067.197-.349.48-.55.551-.233.082-14.519.082-14.752 0-.201-.071-.483-.354-.55-.551-.041-.123-.054-1.476-.064-6.764L3.998 7h16.004l-.012 6.61M7.614 9.057a.814.814 0 0 0-.505.396c-.079.147-.089.226-.088.667.003 1.817 1.111 3.552 2.79 4.369.716.349 1.351.491 2.189.491.681 0 1.044-.058 1.627-.26 1.975-.685 3.35-2.571 3.352-4.6.001-.441-.01-.52-.088-.667-.202-.377-.753-.551-1.262-.398-.45.136-.584.352-.634 1.029-.02.265-.074.602-.126.782-.268.923-1.024 1.689-1.982 2.006-.267.089-.379.102-.867.105-.481.003-.602-.01-.86-.091a3.073 3.073 0 0 1-1.465-.975c-.418-.488-.628-1.042-.692-1.829-.043-.532-.118-.736-.325-.883-.264-.189-.721-.249-1.064-.142" fill-rule="evenodd" fill="#000"/></svg>