<!-- Generated by IcoMoon.io -->
<svg version="1.1" xmlns="http://www.w3.org/2000/svg" width="38" height="32" viewBox="0 0 38 32">
<title>store</title>
<path d="M19.471 2.118l16 14.118c0.392 0.431 0.412 0.882 0.059 1.353-0.431 0.392-0.882 0.412-1.353 0.059l-2.176-1.941v11.588c-0.039 1.333-0.49 2.451-1.353 3.353-0.902 0.863-2.020 1.314-3.353 1.353h-16.941c-1.333-0.039-2.451-0.49-3.353-1.353-0.863-0.902-1.314-2.020-1.353-3.353v-11.588l-2.176 1.941c-0.471 0.353-0.922 0.333-1.353-0.059-0.353-0.471-0.333-0.922 0.059-1.353l16-14.118c0.431-0.314 0.863-0.314 1.294 0zM7.529 27.294c0.039 0.784 0.314 1.451 0.824 2 0.549 0.51 1.216 0.784 2 0.824h3.765v-9.412c0-0.549 0.176-1 0.529-1.353s0.804-0.529 1.353-0.529h5.647c0.549 0 1 0.177 1.353 0.529s0.529 0.804 0.529 1.353v9.412h3.765c0.784-0.039 1.451-0.314 2-0.824 0.51-0.549 0.784-1.216 0.824-2v-13.235l-11.294-10-11.294 10v13.235zM16 30.118h5.647v-9.412h-5.647v9.412z"></path>
</svg>
