<!-- Generated by IcoMoon.io -->
<svg version="1.1" xmlns="http://www.w3.org/2000/svg" width="40" height="32" viewBox="0 0 40 32">
<title>shipping</title>
<path d="M4 2c-0.583 0-1.063 0.188-1.438 0.563s-0.563 0.854-0.563 1.438v18c0 0.583 0.188 1.062 0.563 1.438s0.854 0.562 1.438 0.562h0.375c0.417-1.167 1.125-2.125 2.125-2.875 1-0.708 2.167-1.083 3.5-1.125 1.333 0.042 2.5 0.417 3.5 1.125 1 0.75 1.729 1.708 2.188 2.875h8.313v-20c0-0.583-0.188-1.063-0.562-1.438s-0.854-0.563-1.438-0.563h-18zM4 26c-1.125-0.042-2.063-0.438-2.813-1.188s-1.146-1.687-1.188-2.812v-18c0.042-1.125 0.438-2.063 1.188-2.813s1.688-1.146 2.813-1.188h18c1.125 0.042 2.062 0.438 2.812 1.188s1.146 1.688 1.188 2.813v2h4.062c0.917 0 1.688 0.354 2.313 1.063l4.875 5.75c0.5 0.542 0.75 1.188 0.75 1.938v9.25h1c0.625 0.042 0.958 0.375 1 1-0.042 0.625-0.375 0.958-1 1h-3c-0.042 1.708-0.625 3.125-1.75 4.25s-2.542 1.708-4.25 1.75c-1.708-0.042-3.125-0.625-4.25-1.75s-1.708-2.542-1.75-4.25h-8c-0.042 1.708-0.625 3.125-1.75 4.25s-2.542 1.708-4.25 1.75c-1.708-0.042-3.125-0.625-4.25-1.75s-1.708-2.542-1.75-4.25zM26 14h9.688l-4.875-5.625c-0.167-0.25-0.417-0.375-0.75-0.375h-4.062v6zM26 16v5.5c1.083-0.958 2.417-1.458 4-1.5 1.333 0.042 2.5 0.417 3.5 1.125 1 0.75 1.729 1.708 2.188 2.875h0.312v-8h-10zM14 26c-0.042-1.5-0.708-2.646-2-3.438-1.333-0.75-2.667-0.75-4 0-1.292 0.792-1.958 1.938-2 3.438 0.042 1.5 0.708 2.646 2 3.438 1.333 0.75 2.667 0.75 4 0 1.292-0.792 1.958-1.938 2-3.438zM30 30c1.5-0.042 2.646-0.708 3.438-2 0.75-1.333 0.75-2.667 0-4-0.792-1.292-1.938-1.958-3.438-2-1.5 0.042-2.646 0.708-3.438 2-0.75 1.333-0.75 2.667 0 4 0.792 1.292 1.938 1.958 3.438 2z"></path>
</svg>
