<!-- Generated by IcoMoon.io -->
<svg version="1.1" xmlns="http://www.w3.org/2000/svg" width="32" height="32" viewBox="0 0 32 32">
<title>fi-rr-user</title>
<path d="M15.2 16c1.582 0 3.129-0.469 4.445-1.348s2.341-2.128 2.946-3.59 0.764-3.070 0.455-4.622c-0.309-1.552-1.071-2.977-2.189-4.096s-2.544-1.881-4.096-2.189c-1.552-0.309-3.16-0.15-4.622 0.455s-2.711 1.631-3.59 2.946c-0.879 1.316-1.348 2.862-1.348 4.445 0.002 2.121 0.846 4.155 2.345 5.654s3.533 2.343 5.655 2.345zM15.2 2.667c1.055 0 2.086 0.313 2.963 0.899s1.561 1.419 1.964 2.394c0.404 0.975 0.509 2.047 0.304 3.081s-0.714 1.985-1.46 2.731c-0.746 0.746-1.696 1.254-2.731 1.46s-2.107 0.1-3.081-0.303c-0.975-0.404-1.808-1.087-2.394-1.964s-0.899-1.908-0.899-2.963c0-1.414 0.562-2.771 1.562-3.771s2.357-1.562 3.771-1.562z"></path>
<path d="M15.2 18.667c-3.182 0.004-6.232 1.269-8.481 3.519s-3.515 5.3-3.519 8.481c0 0.354 0.14 0.693 0.391 0.943s0.589 0.391 0.943 0.391 0.693-0.14 0.943-0.391c0.25-0.25 0.391-0.589 0.391-0.943 0-2.475 0.983-4.849 2.734-6.6s4.124-2.734 6.6-2.734c2.475 0 4.849 0.983 6.6 2.734s2.734 4.124 2.734 6.6c0 0.354 0.14 0.693 0.391 0.943s0.589 0.391 0.943 0.391 0.693-0.14 0.943-0.391c0.25-0.25 0.391-0.589 0.391-0.943-0.004-3.182-1.269-6.232-3.519-8.481s-5.3-3.515-8.481-3.519z"></path>
</svg>
