<svg xmlns="http://www.w3.org/2000/svg" width="52" height="52" viewBox="0 0 52 52" fill="none"><path d="M47.7061 5.01855H4.29399C2.63944 5.01855 1.30005 6.35795 1.30005 8.01249V14.2289V43.987C1.30005 45.6416 2.63944 46.981 4.29399 46.981H47.7061C49.3607 46.981 50.7 45.6416 50.7 43.987V14.2289V8.01249C50.7 6.36583 49.3528 5.01855 47.7061 5.01855ZM2.79702 8.01249C2.79702 7.18522 3.46672 6.51552 4.29399 6.51552H47.7061C48.5334 6.51552 49.2031 7.18522 49.2031 8.01249V13.4804H2.79702V8.01249ZM47.7061 45.484H4.29399C3.46672 45.484 2.79702 44.8143 2.79702 43.987V14.9773H49.2031V43.987C49.2031 44.8143 48.5334 45.484 47.7061 45.484Z" fill="white"></path><path d="M7.32733 27.0711H12.5431C13.8037 27.0711 14.8279 26.0469 14.8279 24.7862V19.5705C14.8279 18.3099 13.8037 17.2856 12.5431 17.2856H7.32733C6.06672 17.2856 5.04248 18.3099 5.04248 19.5705V24.7862C5.04248 26.0547 6.06672 27.0711 7.32733 27.0711ZM6.53945 19.5784C6.53945 19.145 6.894 18.7905 7.32733 18.7905H12.5431C12.9764 18.7905 13.331 19.145 13.331 19.5784V24.7941C13.331 25.2275 12.9764 25.582 12.5431 25.582H7.32733C6.894 25.582 6.53945 25.2275 6.53945 24.7941V19.5784Z" fill="white"></path><path d="M18.6649 37.2426L14.8201 35.9584V31.696C14.8201 30.4354 13.7958 29.4111 12.5352 29.4111H7.32733C6.06672 29.4111 5.04248 30.4354 5.04248 31.696V36.9117C5.04248 38.1723 6.06672 39.1966 7.32733 39.1966H11.1958L12.5746 43.3329C12.677 43.6402 12.9607 43.8451 13.2837 43.8451C13.6067 43.8451 13.8904 43.6402 13.9928 43.3329L15.1588 39.8269L18.657 38.6687C18.9643 38.5663 19.1691 38.2826 19.1691 37.9596C19.177 37.6287 18.9722 37.3451 18.6649 37.2426ZM7.32733 37.6996C6.894 37.6996 6.53945 37.3451 6.53945 36.9117V31.696C6.53945 31.2626 6.894 30.9081 7.32733 30.9081H12.5431C12.9764 30.9081 13.331 31.2626 13.331 31.696V35.462L10.9437 34.6663C10.6758 34.5796 10.3764 34.6426 10.1795 34.8475C9.98248 35.0445 9.91157 35.3439 9.99824 35.6117L10.6916 37.6996H7.32733ZM14.3395 38.519C14.1188 38.5899 13.9376 38.7711 13.8667 38.9917L13.2837 40.7329L11.8891 36.5572L16.057 37.9439L14.3395 38.519Z" fill="white"></path><path d="M45.823 25.1097L43.8375 21.6746C43.6563 21.3594 43.2781 21.2255 42.9393 21.3436L39.9612 22.3836C39.2363 21.8006 38.4327 21.3358 37.566 20.997L36.983 17.9006C36.92 17.5461 36.6048 17.2939 36.2503 17.2939H32.2872C31.9248 17.2939 31.6175 17.5461 31.5545 17.9006L30.9715 20.997C30.1127 21.3358 29.3012 21.8006 28.5763 22.3836L25.606 21.3358C25.2672 21.2176 24.889 21.3515 24.7078 21.6667L22.7224 25.1018C22.5412 25.417 22.6121 25.8109 22.88 26.0473L25.2672 28.1036C25.1963 28.5527 25.1648 29.0176 25.1648 29.4903C25.1648 29.9552 25.2042 30.42 25.2672 30.877L22.88 32.9255C22.6042 33.1618 22.5412 33.5558 22.7224 33.8709L24.7078 37.3061C24.889 37.6212 25.2672 37.7552 25.606 37.637L28.5842 36.5891C29.309 37.1721 30.1127 37.637 30.9715 37.9679L31.5545 41.0721C31.6175 41.4267 31.9327 41.6788 32.2872 41.6788H36.2503C36.6127 41.6788 36.92 41.4188 36.983 41.0721L37.566 37.9758C38.4327 37.6449 39.2363 37.18 39.9533 36.5891L42.9315 37.637C43.2703 37.7552 43.6484 37.6133 43.8297 37.3061L45.8151 33.8709C45.9963 33.5558 45.9254 33.1618 45.6575 32.9255L43.2703 30.877C43.3412 30.42 43.3727 29.9552 43.3727 29.4982C43.3727 29.0333 43.3412 28.5685 43.2703 28.1115L45.6654 26.0552C45.9333 25.8188 46.0042 25.417 45.823 25.1097ZM41.9703 27.2449C41.7654 27.4261 41.6709 27.7018 41.726 27.9697C41.8284 28.4582 41.8836 28.9703 41.8836 29.4903C41.8836 30.0024 41.8363 30.5146 41.7339 31.0188C41.6787 31.2867 41.7733 31.5546 41.9781 31.7358L44.2236 33.6582L42.8606 36.0218L40.0636 35.037C39.8036 34.9424 39.52 35.0055 39.3151 35.1867C38.543 35.8721 37.6606 36.3842 36.6915 36.7073C36.4315 36.7939 36.2424 37.0146 36.1872 37.2824L35.6357 40.1818H32.9097L32.3581 37.2667C32.3109 36.9988 32.1139 36.7782 31.8539 36.6915C30.8848 36.3685 30.0024 35.8643 29.2303 35.1788C29.0254 34.9976 28.7418 34.9424 28.4818 35.0291L25.6848 36.0061L24.3218 33.6424L26.5672 31.72C26.7721 31.5388 26.8666 31.263 26.8115 30.9952C26.709 30.5067 26.6539 29.9946 26.6539 29.4746C26.6539 28.9546 26.709 28.4424 26.8115 27.9539C26.8666 27.6861 26.7721 27.4103 26.5672 27.2291L24.3218 25.2988L25.6848 22.943L28.4739 23.92C28.7339 24.0146 29.0175 23.9515 29.2224 23.7703C29.9866 23.0927 30.8927 22.5649 31.8539 22.2418C32.1139 22.1552 32.303 21.9346 32.3503 21.6746L32.9018 18.7673H35.6278L36.1715 21.6746C36.2187 21.9424 36.4157 22.163 36.6678 22.2497C37.6448 22.5727 38.5351 23.0849 39.2993 23.7703C39.5042 23.9515 39.7878 24.0067 40.0478 23.92L42.8448 22.943L44.2078 25.2988L41.9703 27.2449Z" fill="white"></path><path d="M34.2727 24.2979C31.4127 24.2979 29.0806 26.63 29.0806 29.49C29.0806 32.35 31.4127 34.6821 34.2727 34.6821C37.1327 34.6821 39.4648 32.35 39.4648 29.49C39.4648 26.6221 37.1327 24.2979 34.2727 24.2979ZM34.2727 33.1772C32.2321 33.1772 30.5775 31.5227 30.5775 29.4821C30.5775 27.4415 32.2321 25.7869 34.2727 25.7869C36.3133 25.7869 37.9678 27.4415 37.9678 29.4821C37.9678 31.5227 36.3054 33.1772 34.2727 33.1772Z" fill="white"></path><path d="M7.28793 7.75244C6.05097 7.75244 5.04248 8.76093 5.04248 9.9979C5.04248 11.2349 6.05097 12.2434 7.28793 12.2434C8.5249 12.2434 9.53339 11.2349 9.53339 9.9979C9.53339 8.76093 8.5249 7.75244 7.28793 7.75244ZM7.28793 10.7464C6.87824 10.7464 6.53945 10.4076 6.53945 9.9979C6.53945 9.5882 6.87824 9.24941 7.28793 9.24941C7.69763 9.24941 8.03642 9.5882 8.03642 9.9979C8.03642 10.4076 7.69763 10.7464 7.28793 10.7464Z" fill="white"></path><path d="M13.0946 7.75244C11.8576 7.75244 10.8491 8.76093 10.8491 9.9979C10.8491 11.2349 11.8576 12.2434 13.0946 12.2434C14.3315 12.2434 15.34 11.2349 15.34 9.9979C15.34 8.76093 14.3394 7.75244 13.0946 7.75244ZM13.0946 10.7464C12.6849 10.7464 12.3461 10.4076 12.3461 9.9979C12.3461 9.5882 12.6849 9.24941 13.0946 9.24941C13.5043 9.24941 13.8431 9.5882 13.8431 9.9979C13.8431 10.4076 13.5122 10.7464 13.0946 10.7464Z" fill="white"></path><path d="M18.909 7.75244C17.6721 7.75244 16.6636 8.76093 16.6636 9.9979C16.6636 11.2349 17.6721 12.2434 18.909 12.2434C20.146 12.2434 21.1545 11.2349 21.1545 9.9979C21.1545 8.76093 20.146 7.75244 18.909 7.75244ZM18.909 10.7464C18.4993 10.7464 18.1605 10.4076 18.1605 9.9979C18.1605 9.5882 18.4993 9.24941 18.909 9.24941C19.3187 9.24941 19.6575 9.5882 19.6575 9.9979C19.6575 10.4076 19.3187 10.7464 18.909 10.7464Z" fill="white"></path></svg>