<svg xmlns="http://www.w3.org/2000/svg" width="52" height="52" viewBox="0 0 52 52" fill="none"><path d="M41.0774 22.242C40.2459 22.242 39.47 22.4822 38.8141 22.8954C38.2878 21.1514 36.6627 19.877 34.7439 19.877C33.8071 19.877 32.9406 20.1813 32.2373 20.6953C31.5486 19.2792 30.0921 18.3005 28.4104 18.3005C27.6538 18.3005 26.9431 18.4996 26.327 18.8466V18.3528C29.5779 16.7085 31.6444 13.3812 31.6444 9.69865C31.6444 4.35068 27.2936 0 21.9458 0C16.5979 0 12.2473 4.35068 12.2473 9.69853C12.2473 13.4587 14.4607 16.8969 17.8268 18.4809V31.8896L15.6826 29.9127C13.402 27.6689 9.71378 27.683 7.45086 29.9477C6.94738 30.4515 6.6711 31.1206 6.67286 31.8321C6.67462 32.5434 6.95431 33.2114 7.46043 33.7128L21.4717 47.5911C24.069 50.3934 27.7495 52 31.5773 52C39.1593 52 45.3276 45.8558 45.3276 38.3034V31.2085V30.4202V26.4785C45.3275 24.1425 43.4208 22.242 41.0774 22.242ZM14.4139 9.69853C14.4139 5.54546 17.7927 2.16665 21.9458 2.16665C26.0989 2.16665 29.4778 5.54546 29.4778 9.69853C29.4778 12.1691 28.2804 14.4339 26.327 15.8282V11.5004C26.327 9.16436 24.4203 7.26386 22.0768 7.26386C19.7334 7.26386 17.8267 9.16436 17.8267 11.5004V16.0026C15.7373 14.6291 14.4139 12.2604 14.4139 9.69853ZM43.1608 30.4203V31.2086V38.3035C43.1608 44.6611 37.9645 49.8334 31.5772 49.8334C28.3385 49.8334 25.2251 48.4696 23.0354 46.0914C23.0278 46.0832 23.0194 46.0762 23.0117 46.0682C23.0078 46.0643 23.0045 46.0599 23.0005 46.0559L8.98507 32.1735C8.85876 32.0483 8.83962 31.9024 8.8394 31.8266C8.83918 31.7508 8.85755 31.6049 8.98342 31.479C10.4104 30.0507 12.738 30.0452 14.1723 31.4661C14.1815 31.4754 14.1909 31.4842 14.2005 31.4931L18.1759 35.1584C18.4923 35.45 18.9512 35.5268 19.3451 35.3541C19.7391 35.1815 19.9936 34.792 19.9936 34.3619V11.5004C19.9936 10.3591 20.9282 9.43051 22.0771 9.43051C23.226 9.43051 24.1605 10.359 24.1605 11.5004V22.537V24.902V25.6903C24.1605 26.2886 24.6456 26.7736 25.2438 26.7736C25.8421 26.7736 26.3272 26.2885 26.3272 25.6903V24.902V22.537C26.3272 21.3957 27.2617 20.4671 28.4106 20.4671C29.5595 20.4671 30.4941 21.3956 30.4941 22.537V24.1137V27.2671C30.4941 27.8654 30.9792 28.3504 31.5774 28.3504C32.1756 28.3504 32.6608 27.8653 32.6608 27.2671V24.1137C32.6608 22.9723 33.5953 22.0438 34.7442 22.0438C35.8931 22.0438 36.8277 22.9723 36.8277 24.1137V28.8436C36.8277 29.442 37.3128 29.927 37.911 29.927C38.5092 29.927 38.9943 29.4419 38.9943 28.8436V26.4786C38.9943 25.3373 39.9289 24.4087 41.0777 24.4087C42.2265 24.4087 43.1612 25.3372 43.1612 26.4786V30.4203H43.1608Z" fill="white"></path></svg>