<svg xmlns="http://www.w3.org/2000/svg" width="52" height="52" viewBox="0 0 52 52" fill="none"><path d="M48.5334 4.3335H3.46663C1.55208 4.3335 0 5.88557 0 7.80013V25.1335C0 27.048 1.55208 28.6001 3.46663 28.6001H48.5333C50.4478 28.6001 51.9999 27.048 51.9999 25.1335V7.80013C52 5.88557 50.4479 4.3335 48.5334 4.3335ZM50.2666 25.1335C50.2666 26.0908 49.4906 26.8669 48.5333 26.8669H3.46663C2.5093 26.8669 1.73327 26.0908 1.73327 25.1335V7.80013C1.73327 6.8428 2.5093 6.06676 3.46663 6.06676H48.5333C49.4906 6.06676 50.2666 6.8428 50.2666 7.80013V25.1335Z" fill="white"></path><path fill-rule="evenodd" clip-rule="evenodd" d="M6.67936 14.1208C6.34095 13.7825 5.79231 13.7825 5.45391 14.1208L3.72064 15.854C3.38234 16.1924 3.38234 16.7411 3.72064 17.0795L5.45391 18.8129C5.67156 19.0381 5.99371 19.1285 6.29677 19.0492C6.59984 18.9699 6.83638 18.7332 6.9157 18.4303C6.99502 18.1273 6.90462 17.8051 6.67936 17.5874L5.55872 16.4668L6.67936 15.3462C7.01777 15.0077 7.01777 14.4592 6.67936 14.1208Z" fill="white"></path><path fill-rule="evenodd" clip-rule="evenodd" d="M46.5461 14.1208C46.2061 13.7923 45.6654 13.797 45.3312 14.1313C44.9969 14.4657 44.9922 15.0062 45.3206 15.3462L46.4413 16.4669L45.3206 17.5875C45.0954 17.8052 45.005 18.1273 45.0843 18.4304C45.1636 18.7334 45.4003 18.97 45.7032 19.0493C46.0062 19.1286 46.3284 19.0382 46.5461 18.813L48.2795 17.0796C48.6178 16.7412 48.6178 16.1925 48.2795 15.8541L46.5461 14.1208Z" fill="white"></path><path d="M19.9334 24.2668C20.412 24.2668 20.8 23.8788 20.8 23.4001C20.8 22.9215 20.412 22.5335 19.9334 22.5335C19.4547 22.5335 19.0667 22.9215 19.0667 23.4001C19.0667 23.8788 19.4547 24.2668 19.9334 24.2668Z" fill="white"></path><path d="M26 24.2668C26.4786 24.2668 26.8666 23.8788 26.8666 23.4001C26.8666 22.9215 26.4786 22.5335 26 22.5335C25.5214 22.5335 25.1334 22.9215 25.1334 23.4001C25.1334 23.8788 25.5214 24.2668 26 24.2668Z" fill="white"></path><path d="M32.0666 24.2668C32.5453 24.2668 32.9333 23.8788 32.9333 23.4001C32.9333 22.9215 32.5453 22.5335 32.0666 22.5335C31.588 22.5335 31.2 22.9215 31.2 23.4001C31.2 23.8788 31.588 24.2668 32.0666 24.2668Z" fill="white"></path><path d="M2.6 40.7335H7.8C9.23589 40.7335 10.4 39.5694 10.4 38.1335V32.9335C10.4 31.4976 9.23589 30.3335 7.8 30.3335H2.6C1.16411 30.3335 0 31.4976 0 32.9335V38.1335C0 39.5694 1.16411 40.7335 2.6 40.7335ZM1.73337 32.9335C1.73337 32.4548 2.12144 32.0669 2.6 32.0669H7.8C8.27866 32.0669 8.66663 32.4549 8.66663 32.9335V38.1335C8.66663 38.6122 8.27866 39.0001 7.8 39.0001H2.6C2.12134 39.0001 1.73337 38.6121 1.73337 38.1335V32.9335Z" fill="white"></path><path d="M24.2666 38.1335V32.9335C24.2666 31.4976 23.1025 30.3335 21.6666 30.3335H16.4666C15.0306 30.3335 13.8666 31.4976 13.8666 32.9335V38.1335C13.8666 39.5694 15.0307 40.7335 16.4666 40.7335H21.6666C23.1026 40.7335 24.2666 39.5694 24.2666 38.1335ZM22.5334 38.1335C22.5334 38.6122 22.1453 39.0001 21.6667 39.0001H16.4667C15.9881 39.0001 15.6001 38.6121 15.6001 38.1335V32.9335C15.6001 32.4548 15.9882 32.0669 16.4667 32.0669H21.6667C22.1454 32.0669 22.5334 32.4549 22.5334 32.9335V38.1335Z" fill="white"></path><path d="M38.1334 38.1335V32.9335C38.1334 31.4976 36.9693 30.3335 35.5334 30.3335H30.3334C28.8975 30.3335 27.7334 31.4976 27.7334 32.9335V38.1335C27.7334 39.5694 28.8975 40.7335 30.3334 40.7335H35.5334C36.9693 40.7335 38.1334 39.5694 38.1334 38.1335ZM36.4 38.1335C36.4 38.6122 36.0119 39.0001 35.5334 39.0001H30.3334C29.8547 39.0001 29.4667 38.6121 29.4667 38.1335V32.9335C29.4667 32.4548 29.8547 32.0669 30.3334 32.0669H35.5334C36.012 32.0669 36.4 32.4549 36.4 32.9335V38.1335Z" fill="white"></path><path d="M49.4 30.3335H44.2C42.7641 30.3335 41.6 31.4976 41.6 32.9335V38.1335C41.6 39.5694 42.7641 40.7335 44.2 40.7335H49.4C50.8359 40.7335 52 39.5694 52 38.1335V32.9335C52 31.4975 50.836 30.3335 49.4 30.3335ZM50.2666 38.1335C50.2666 38.6122 49.8787 39.0001 49.4 39.0001H44.2C43.7213 39.0001 43.3334 38.6121 43.3334 38.1335V32.9335C43.3334 32.4548 43.7213 32.0669 44.2 32.0669H49.4C49.8787 32.0669 50.2666 32.4549 50.2666 32.9335V38.1335Z" fill="white"></path><path fill-rule="evenodd" clip-rule="evenodd" d="M9.53337 43.3335C9.53337 42.8548 9.1453 42.4669 8.66673 42.4669H1.73337C1.2547 42.4669 0.866734 42.8548 0.866734 43.3335C0.866734 43.8122 1.2548 44.2001 1.73337 44.2001H8.66673C9.1453 44.2001 9.53337 43.8122 9.53337 43.3335Z" fill="white"></path><path fill-rule="evenodd" clip-rule="evenodd" d="M3.46663 45.9335C2.98797 45.9335 2.6 46.3215 2.6 46.8001C2.6 47.2788 2.98807 47.6668 3.46663 47.6668H6.93327C7.41193 47.6668 7.7999 47.2788 7.7999 46.8001C7.7999 46.3215 7.41193 45.9335 6.93327 45.9335H3.46663Z" fill="white"></path><path fill-rule="evenodd" clip-rule="evenodd" d="M23.4 43.3335C23.4 42.8548 23.0119 42.4669 22.5334 42.4669H15.6C15.1213 42.4669 14.7334 42.8548 14.7334 43.3335C14.7334 43.8122 15.1213 44.2001 15.6 44.2001H22.5334C23.0119 44.2001 23.4 43.8122 23.4 43.3335Z" fill="white"></path><path fill-rule="evenodd" clip-rule="evenodd" d="M17.3334 45.9335C16.8547 45.9335 16.4667 46.3215 16.4667 46.8001C16.4667 47.2788 16.8548 47.6668 17.3334 47.6668H20.8C21.2787 47.6668 21.6666 47.2788 21.6666 46.8001C21.6666 46.3215 21.2786 45.9335 20.8 45.9335H17.3334Z" fill="white"></path><path fill-rule="evenodd" clip-rule="evenodd" d="M37.2666 43.3335C37.2666 42.8548 36.8787 42.4669 36.4 42.4669H29.4666C28.988 42.4669 28.6 42.8548 28.6 43.3335C28.6 43.8122 28.9881 44.2001 29.4666 44.2001H36.4C36.8787 44.2001 37.2666 43.8122 37.2666 43.3335Z" fill="white"></path><path fill-rule="evenodd" clip-rule="evenodd" d="M31.2 45.9335C30.7213 45.9335 30.3334 46.3215 30.3334 46.8001C30.3334 47.2788 30.7213 47.6668 31.2 47.6668H34.6666C35.1453 47.6668 35.5333 47.2788 35.5333 46.8001C35.5333 46.3215 35.1452 45.9335 34.6666 45.9335H31.2Z" fill="white"></path><path fill-rule="evenodd" clip-rule="evenodd" d="M51.1334 43.3335C51.1334 42.8548 50.7453 42.4669 50.2667 42.4669H43.3334C42.8547 42.4669 42.4667 42.8548 42.4667 43.3335C42.4667 43.8122 42.8547 44.2001 43.3334 44.2001H50.2667C50.7453 44.2001 51.1334 43.8122 51.1334 43.3335Z" fill="white"></path><path fill-rule="evenodd" clip-rule="evenodd" d="M45.0666 45.9335C44.588 45.9335 44.2 46.3215 44.2 46.8001C44.2 47.2788 44.5881 47.6668 45.0666 47.6668H48.5333C49.0119 47.6668 49.3999 47.2788 49.3999 46.8001C49.3999 46.3215 49.0119 45.9335 48.5333 45.9335H45.0666Z" fill="white"></path></svg>