<svg xmlns="http://www.w3.org/2000/svg" width="52" height="52" viewBox="0 0 52 52" fill="none"><path d="M44.4167 18.9583H32.5001V11.9167C32.4984 10.4806 31.9271 9.10385 30.9117 8.0884C29.8962 7.07296 28.5195 6.50172 27.0834 6.5H7.58342C6.14735 6.50172 4.7706 7.07296 3.75515 8.0884C2.7397 9.10385 2.16847 10.4806 2.16675 11.9167V24.9167C2.16847 26.3527 2.7397 27.7295 3.75515 28.7449C4.7706 29.7604 6.14735 30.3316 7.58342 30.3333V32.5975C7.58261 33.0249 7.70898 33.4429 7.94647 33.7982C8.18395 34.1536 8.52179 34.4303 8.917 34.593C9.31394 34.7583 9.75109 34.8018 10.1728 34.7178C10.5945 34.6339 10.9817 34.4264 11.2852 34.1217C11.3247 34.0837 11.361 34.0424 11.3935 33.9983L14.0888 30.3333H19.5001V37.375C19.5018 38.8111 20.073 40.1878 21.0885 41.2033C22.1039 42.2187 23.4807 42.7899 24.9167 42.7917H36.9266L40.7182 46.5833C41.0213 46.8863 41.4073 47.0925 41.8275 47.1761C42.2477 47.2597 42.6833 47.2168 43.0792 47.0528C43.475 46.8889 43.8134 46.6112 44.0515 46.255C44.2895 45.8988 44.4167 45.48 44.4167 45.0515V42.7917C45.8528 42.7899 47.2296 42.2187 48.245 41.2033C49.2605 40.1878 49.8317 38.8111 49.8334 37.375V24.375C49.8317 22.9389 49.2605 21.5622 48.245 20.5467C47.2296 19.5313 45.8528 18.9601 44.4167 18.9583ZM13.5417 28.1667C13.3729 28.1675 13.2066 28.2079 13.0562 28.2844C12.9057 28.361 12.7752 28.4716 12.6751 28.6076L9.75008 32.5726V29.25C9.75008 28.9627 9.63594 28.6871 9.43278 28.484C9.22962 28.2808 8.95407 28.1667 8.66675 28.1667H7.58342C6.72146 28.1667 5.89481 27.8243 5.28532 27.2148C4.67582 26.6053 4.33341 25.7786 4.33341 24.9167V11.9167C4.33341 11.0547 4.67582 10.2281 5.28532 9.61857C5.89481 9.00908 6.72146 8.66667 7.58342 8.66667H27.0834C27.9454 8.66667 28.772 9.00908 29.3815 9.61857C29.991 10.2281 30.3334 11.0547 30.3334 11.9167V18.9583H24.9167C23.7642 18.9617 22.6433 19.3359 21.7198 20.0254L18.3192 12.5504C18.2331 12.3613 18.0943 12.2009 17.9195 12.0885C17.7447 11.976 17.5413 11.9162 17.3334 11.9162C17.1256 11.9162 16.9221 11.976 16.7473 12.0885C16.5725 12.2009 16.4338 12.3613 16.3476 12.5504L10.9309 24.4671C10.8722 24.5968 10.8396 24.7368 10.8351 24.8792C10.8305 25.0215 10.8541 25.1633 10.9044 25.2966C10.9547 25.4298 11.0308 25.5518 11.1283 25.6556C11.2258 25.7593 11.3428 25.8429 11.4726 25.9014C11.6118 25.9659 11.7633 25.9996 11.9167 26C12.1247 25.9999 12.3282 25.9401 12.503 25.8275C12.6778 25.7149 12.8165 25.5544 12.9026 25.3652L14.5839 21.6667H20.0851L20.162 21.8346C19.7338 22.6133 19.5063 23.4864 19.5001 24.375V28.1667H13.5417ZM19.1003 19.5H15.5687L17.3334 15.6173L19.1003 19.5ZM47.6667 37.375C47.6667 38.237 47.3243 39.0636 46.7148 39.6731C46.1054 40.2826 45.2787 40.625 44.4167 40.625H43.3334C43.0461 40.625 42.7705 40.7391 42.5674 40.9423C42.3642 41.1455 42.2501 41.421 42.2501 41.7083V45.0515L38.141 40.9424C37.9379 40.7392 37.6624 40.6251 37.3751 40.625H24.9167C24.0548 40.625 23.2281 40.2826 22.6187 39.6731C22.0092 39.0636 21.6667 38.237 21.6667 37.375V24.375C21.6667 23.513 22.0092 22.6864 22.6187 22.0769C23.2281 21.4674 24.0548 21.125 24.9167 21.125H44.4167C45.2787 21.125 46.1054 21.4674 46.7148 22.0769C47.3243 22.6864 47.6667 23.513 47.6667 24.375V37.375Z" fill="white"></path><path d="M40.0834 27.0833H35.7501V24.9167C35.7501 24.6294 35.6359 24.3538 35.4328 24.1506C35.2296 23.9475 34.9541 23.8333 34.6668 23.8333C34.3794 23.8333 34.1039 23.9475 33.9007 24.1506C33.6976 24.3538 33.5834 24.6294 33.5834 24.9167V27.0833H29.2501C28.9628 27.0833 28.6872 27.1975 28.4841 27.4006C28.2809 27.6038 28.1668 27.8794 28.1668 28.1667C28.1668 28.454 28.2809 28.7295 28.4841 28.9327C28.6872 29.1359 28.9628 29.25 29.2501 29.25H37.2884C37.0232 31.0905 36.0872 32.768 34.6603 33.9603C33.8268 33.2642 33.1532 32.3966 32.6853 31.4167C32.6264 31.2848 32.5418 31.1661 32.4363 31.0674C32.3309 30.9688 32.2068 30.8922 32.0713 30.8422C31.9359 30.7922 31.7918 30.7697 31.6475 30.7762C31.5032 30.7827 31.3617 30.818 31.2313 30.88C31.1009 30.9419 30.9841 31.0293 30.888 31.1371C30.7918 31.2448 30.7182 31.3707 30.6714 31.5073C30.6245 31.6439 30.6055 31.7885 30.6154 31.9325C30.6253 32.0766 30.6638 32.2172 30.7288 32.3462C31.2322 33.3899 31.9204 34.3339 32.7601 35.1325C31.7973 35.5425 30.7613 35.7526 29.7148 35.75C29.5745 35.7507 29.4357 35.7794 29.3067 35.8346C29.1777 35.8897 29.061 35.9702 28.9636 36.0711C28.8661 36.1721 28.7899 36.2916 28.7394 36.4225C28.6889 36.5534 28.6651 36.6931 28.6694 36.8333C28.6782 37.1246 28.8004 37.401 29.0101 37.6034C29.2198 37.8058 29.5003 37.9182 29.7918 37.9167C31.5135 37.916 33.2038 37.4561 34.6884 36.5842C36.1868 37.4524 37.8869 37.9119 39.6187 37.9167C39.759 37.916 39.8978 37.8873 40.0268 37.8321C40.1558 37.777 40.2725 37.6965 40.3699 37.5955C40.4674 37.4946 40.5436 37.3751 40.5941 37.2442C40.6446 37.1133 40.6684 36.9736 40.6641 36.8333C40.6553 36.542 40.5331 36.2657 40.3234 36.0633C40.1137 35.8609 39.8332 35.7485 39.5418 35.75C38.5283 35.746 37.526 35.5375 36.5951 35.1368C38.2088 33.5676 39.2277 31.4869 39.4778 29.25H40.0834C40.3707 29.25 40.6463 29.1359 40.8495 28.9327C41.0526 28.7295 41.1668 28.454 41.1668 28.1667C41.1668 27.8794 41.0526 27.6038 40.8495 27.4006C40.6463 27.1975 40.3707 27.0833 40.0834 27.0833Z" fill="white"></path></svg>