<svg xmlns="http://www.w3.org/2000/svg" width="52" height="52" viewBox="0 0 52 52" fill="none"><path d="M46.9224 46.237H5.07771C3.66148 46.237 2.5083 45.0839 2.5083 43.6676V8.33211C2.5083 6.91587 3.66148 5.7627 5.07771 5.7627H46.9224C48.3386 5.7627 49.4918 6.91587 49.4918 8.33211V43.6676C49.4918 45.0839 48.3386 46.237 46.9224 46.237ZM5.07771 7.23093C4.46901 7.23093 3.97654 7.7234 3.97654 8.33211V43.6676C3.97654 44.2763 4.46901 44.7688 5.07771 44.7688H46.9224C47.5311 44.7688 48.0236 44.2763 48.0236 43.6676V8.33211C48.0236 7.7234 47.5311 7.23093 46.9224 7.23093H5.07771Z" fill="white"></path><path d="M48.7577 13.7002H3.24242C2.83559 13.7002 2.5083 13.3729 2.5083 12.9661C2.5083 12.5592 2.83559 12.2319 3.24242 12.2319H48.7577C49.1645 12.2319 49.4918 12.5592 49.4918 12.9661C49.4918 13.3729 49.1645 13.7002 48.7577 13.7002Z" fill="white"></path><path d="M44.6252 10.4673H26.364C25.9572 10.4673 25.6299 10.14 25.6299 9.73314C25.6299 9.32632 25.9572 8.99902 26.364 8.99902H44.6252C45.032 8.99902 45.3593 9.32632 45.3593 9.73314C45.3593 10.14 45.0289 10.4673 44.6252 10.4673Z" fill="white"></path><path d="M7.99588 10.6964C8.52972 10.6964 8.96247 10.2636 8.96247 9.72977C8.96247 9.19594 8.52972 8.76318 7.99588 8.76318C7.46205 8.76318 7.0293 9.19594 7.0293 9.72977C7.0293 10.2636 7.46205 10.6964 7.99588 10.6964Z" fill="white"></path><path d="M12.0428 10.6964C12.5766 10.6964 13.0093 10.2636 13.0093 9.72977C13.0093 9.19594 12.5766 8.76318 12.0428 8.76318C11.5089 8.76318 11.0762 9.19594 11.0762 9.72977C11.0762 10.2636 11.5089 10.6964 12.0428 10.6964Z" fill="white"></path><path d="M16.0896 10.6964C16.6235 10.6964 17.0562 10.2636 17.0562 9.72977C17.0562 9.19594 16.6235 8.76318 16.0896 8.76318C15.5558 8.76318 15.123 9.19594 15.123 9.72977C15.123 10.2636 15.5558 10.6964 16.0896 10.6964Z" fill="white"></path><path d="M18.5486 25.278C18.2947 25.278 18.0469 25.1464 17.9123 24.9109L16.1658 21.8827C15.9639 21.5309 16.0832 21.0813 16.4349 20.8794C16.7867 20.6775 17.2363 20.7968 17.4382 21.1486L19.1848 24.1768C19.3867 24.5286 19.2674 24.9782 18.9156 25.1801C18.7994 25.2443 18.6709 25.278 18.5486 25.278Z" fill="white"></path><path d="M13.2782 30.842C13.1528 30.842 13.0274 30.8114 12.9112 30.7441L9.88293 28.9975C9.53116 28.7957 9.41187 28.346 9.61375 27.9943C9.81563 27.6425 10.2653 27.5232 10.617 27.7251L13.6453 29.4717C13.997 29.6735 14.1163 30.1232 13.9145 30.475C13.7799 30.7105 13.5321 30.842 13.2782 30.842Z" fill="white"></path><path d="M43.8971 38.1863H40.4101C40.0032 38.1863 39.6759 37.859 39.6759 37.4522V36.871C39.6759 29.331 33.5399 23.195 25.9999 23.195C18.4599 23.195 12.3239 29.331 12.3239 36.871V37.4522C12.3239 37.859 11.9967 38.1863 11.5898 38.1863H8.10277C7.69595 38.1863 7.36865 37.859 7.36865 37.4522V36.871C7.36865 34.3567 7.86112 31.9157 8.83383 29.6186C9.77289 27.4009 11.1157 25.4066 12.8256 23.6967C14.5355 21.9868 16.5268 20.644 18.7475 19.7049C21.0477 18.7322 23.4856 18.2397 25.9999 18.2397C28.5143 18.2397 30.9552 18.7322 33.2524 19.7049C35.4701 20.644 37.4644 21.9868 39.1743 23.6967C40.8842 25.4066 42.227 27.3979 43.1661 29.6186C44.1388 31.9188 44.6312 34.3567 44.6312 36.871V37.4522C44.6312 37.859 44.3009 38.1863 43.8971 38.1863ZM41.1411 36.7181H43.1599C43.1416 34.4546 42.6858 32.2614 41.811 30.1906C40.9454 28.1473 39.7096 26.312 38.1343 24.7367C36.559 23.1614 34.7237 21.9226 32.6804 21.06C30.5637 20.1637 28.3155 19.711 25.9999 19.711C23.6844 19.711 21.4362 20.1637 19.3195 21.06C17.2762 21.9256 15.4409 23.1614 13.8656 24.7367C12.2903 26.312 11.0515 28.1473 10.1889 30.1906C9.31406 32.2614 8.86136 34.4576 8.83995 36.7181H10.8588C10.9414 28.4379 17.7014 21.7268 25.9999 21.7268C34.2985 21.7268 41.0616 28.4379 41.1411 36.7181Z" fill="white"></path><path d="M26.0001 40.2296C24.4676 40.2296 23.2227 38.9847 23.2227 37.4522C23.2227 35.9197 24.4676 34.6748 26.0001 34.6748C27.5325 34.6748 28.7775 35.9197 28.7775 37.4522C28.7775 38.9847 27.5325 40.2296 26.0001 40.2296ZM26.0001 36.143C25.2782 36.143 24.6909 36.7303 24.6909 37.4522C24.6909 38.1741 25.2782 38.7614 26.0001 38.7614C26.7219 38.7614 27.3092 38.1741 27.3092 37.4522C27.3092 36.7303 26.7219 36.143 26.0001 36.143Z" fill="white"></path><path d="M27.4558 36.755C27.2662 36.755 27.0765 36.6816 26.9328 36.5348C26.6483 36.2472 26.6514 35.7823 26.9419 35.4978L31.7749 30.7414C32.0624 30.4569 32.5273 30.4599 32.8118 30.7505C33.0963 31.0381 33.0932 31.503 32.8026 31.7875L27.9697 36.5439C27.829 36.6846 27.6424 36.755 27.4558 36.755Z" fill="white"></path><path d="M26 23.195C25.5932 23.195 25.2659 22.8677 25.2659 22.4609V18.9739C25.2659 18.567 25.5932 18.2397 26 18.2397C26.4068 18.2397 26.7341 18.567 26.7341 18.9739V22.4609C26.7341 22.8677 26.4038 23.195 26 23.195Z" fill="white"></path><path d="M38.7217 30.842C38.4678 30.842 38.22 30.7105 38.0854 30.475C37.8835 30.1232 38.0028 29.6735 38.3546 29.4717L41.3828 27.7251C41.7346 27.5232 42.1843 27.6425 42.3861 27.9943C42.588 28.346 42.4687 28.7957 42.117 28.9975L39.0887 30.7441C38.9725 30.8114 38.8471 30.842 38.7217 30.842Z" fill="white"></path><path d="M33.4512 25.278C33.3257 25.278 33.2003 25.2474 33.0841 25.1801C32.7323 24.9782 32.613 24.5286 32.8149 24.1768L34.5615 21.1486C34.7634 20.7968 35.213 20.6775 35.5648 20.8794C35.9166 21.0813 36.0359 21.5309 35.834 21.8827L34.0874 24.9109C33.9528 25.1464 33.705 25.278 33.4512 25.278Z" fill="white"></path></svg>