<svg xmlns="http://www.w3.org/2000/svg" width="52" height="52" viewBox="0 0 52 52" fill="none"><path d="M43.5094 33.4344H36.1969L42.5588 29.7537C42.8768 29.5703 43.1555 29.326 43.3791 29.0347C43.6027 28.7435 43.7667 28.4111 43.8618 28.0565C43.9568 27.7018 43.9811 27.332 43.9332 26.968C43.8853 26.6039 43.7661 26.2529 43.5825 25.935L39.9425 19.63C39.759 19.312 39.5147 19.0332 39.2235 18.8096C38.9323 18.5861 38.5998 18.4221 38.2452 18.327C37.8906 18.2319 37.5207 18.2077 37.1567 18.2556C36.7927 18.3035 36.4417 18.4226 36.1237 18.6062L29.7537 22.2787L33.4263 15.9087C33.6109 15.5911 33.731 15.24 33.7795 14.8758C33.8279 14.5116 33.8039 14.1413 33.7088 13.7864C33.6136 13.4315 33.4492 13.0989 33.225 12.8078C33.0009 12.5166 32.7213 12.2727 32.4025 12.09L26.065 8.45C25.7471 8.2664 25.3961 8.14723 25.032 8.09932C24.668 8.0514 24.2982 8.07567 23.9435 8.17074C23.5889 8.26581 23.2565 8.42982 22.9653 8.65339C22.674 8.87697 22.4297 9.15573 22.2463 9.47375L18.5656 15.8356V8.52312C18.5699 8.15229 18.5006 7.78428 18.3617 7.44043C18.2227 7.09658 18.0169 6.78372 17.7562 6.51997C17.4955 6.25623 17.185 6.04684 16.8428 5.90394C16.5005 5.76104 16.1334 5.68748 15.7625 5.6875H8.49062C7.74785 5.68964 7.03611 5.98566 6.51088 6.51088C5.98566 7.03611 5.68964 7.74785 5.6875 8.49062V39.8694C5.68965 41.5775 6.36917 43.2151 7.57702 44.423C8.78488 45.6308 10.4225 46.3103 12.1306 46.3125H43.5094C44.2521 46.3104 44.9639 46.0143 45.4891 45.4891C46.0143 44.9639 46.3104 44.2521 46.3125 43.5094V36.2375C46.3104 35.4947 46.0143 34.783 45.4891 34.2578C44.9639 33.7325 44.2521 33.4365 43.5094 33.4344ZM10.1969 33.5319L15.1775 24.9031L20.1663 27.7794L10.1969 33.5319ZM7.3125 35.3356V25.3662H13.065L7.3125 35.3356ZM22.2219 28.4863L22.2869 28.4456L25.1875 33.4344H13.65L22.2219 28.4863ZM26.6337 35.0594V44.6875H19.2319V35.0594H26.6337ZM28.2587 35.0594H35.6606V44.6875H28.2587V35.0594ZM27.04 33.4344L23.6925 27.625L30.1031 23.9281L34.9375 32.2725L32.9388 33.4344H27.04ZM36.9037 20.0119C37.0381 19.9309 37.1873 19.8778 37.3425 19.8556C37.4978 19.8335 37.6559 19.8428 37.8075 19.8829C37.9591 19.9231 38.101 19.9933 38.2249 20.0895C38.3488 20.1856 38.4522 20.3057 38.5287 20.4425L42.1688 26.7475C42.2486 26.8821 42.3008 27.0313 42.3224 27.1863C42.3439 27.3413 42.3344 27.499 42.2943 27.6503C42.2542 27.8016 42.1844 27.9434 42.0889 28.0674C41.9934 28.1914 41.8741 28.2951 41.7381 28.3725L36.3513 31.4844L31.5087 23.1237L36.9037 20.0119ZM21.8237 26.8125L16.0225 23.4731L19.7275 17.0625L28.0638 21.9375L26.9019 23.9444L21.8237 26.8125ZM23.6519 10.2619C23.7285 10.125 23.8318 10.005 23.9557 9.90885C24.0796 9.81272 24.2216 9.74249 24.3731 9.70231C24.5247 9.66214 24.6829 9.65286 24.8381 9.67501C24.9934 9.69716 25.1426 9.75029 25.2769 9.83125L31.5819 13.4713C31.7179 13.5464 31.8371 13.6486 31.9322 13.7715C32.0272 13.8945 32.096 14.0356 32.1344 14.1862C32.1735 14.3346 32.1829 14.4892 32.162 14.6413C32.1411 14.7933 32.0903 14.9396 32.0125 15.0719L28.9006 20.4669L20.54 15.6731L23.6519 10.2619ZM14.0075 23.7412H7.3125V16.3394H16.9406V18.6875L14.0075 23.7412ZM8.49062 7.3125H15.8031C16.1156 7.3125 16.4152 7.43662 16.6362 7.65756C16.8571 7.87851 16.9812 8.17817 16.9812 8.49062V14.7144H7.3125V8.49062C7.3125 8.17817 7.43662 7.87851 7.65756 7.65756C7.87851 7.43662 8.17817 7.3125 8.49062 7.3125ZM7.3125 39.8694C7.31465 38.5929 7.82322 37.3695 8.72657 36.4677C9.62991 35.5659 10.8542 35.0594 12.1306 35.0594H17.6069V44.6875H12.1306C10.8534 44.6854 9.62918 44.177 8.72607 43.2739C7.82296 42.3708 7.31465 41.1466 7.3125 39.8694ZM44.6875 43.5094C44.6875 43.8218 44.5634 44.1215 44.3424 44.3424C44.1215 44.5634 43.8218 44.6875 43.5094 44.6875H37.2856V35.0594H43.5094C43.8218 35.0594 44.1215 35.1835 44.3424 35.4044C44.5634 35.6254 44.6875 35.925 44.6875 36.2375V43.5094Z" fill="white"></path><path d="M12.1306 36.6519C11.4878 36.6519 10.8595 36.8425 10.325 37.1996C9.79056 37.5567 9.374 38.0643 9.12802 38.6582C8.88203 39.252 8.81767 39.9055 8.94307 40.5359C9.06848 41.1664 9.37801 41.7454 9.83253 42.2C10.287 42.6545 10.8661 42.964 11.4966 43.0894C12.127 43.2148 12.7805 43.1505 13.3743 42.9045C13.9682 42.6585 14.4758 42.2419 14.8329 41.7075C15.19 41.173 15.3806 40.5447 15.3806 39.9019C15.3806 39.0399 15.0382 38.2133 14.4287 37.6038C13.8192 36.9943 12.9926 36.6519 12.1306 36.6519ZM12.1306 41.47C11.8092 41.47 11.4951 41.3747 11.2278 41.1961C10.9606 41.0176 10.7523 40.7638 10.6293 40.4669C10.5063 40.1699 10.4741 39.8432 10.5368 39.528C10.5996 39.2128 10.7543 38.9232 10.9816 38.6959C11.2088 38.4687 11.4984 38.3139 11.8136 38.2512C12.1288 38.1885 12.4556 38.2207 12.7525 38.3437C13.0494 38.4667 13.3032 38.675 13.4818 38.9422C13.6603 39.2094 13.7556 39.5236 13.7556 39.845C13.7471 40.2703 13.5722 40.6753 13.2683 40.9731C12.9645 41.2708 12.556 41.4376 12.1306 41.4375V41.47Z" fill="white"></path></svg>