<svg xmlns="http://www.w3.org/2000/svg" width="30" height="30" viewBox="0 0 30 30" fill="none"><g clip-path="url(#clip0_971_1354)"><path d="M28.5549 15.7327C28.3437 15.2677 28.3437 14.7327 28.5549 14.2677L29.6737 11.8064C30.0899 10.8902 30.1087 9.83141 29.7237 8.90266C29.3374 7.97266 28.5774 7.23641 27.6349 6.88391L25.1049 5.93391C24.6249 5.75391 24.2474 5.37766 24.0687 4.89766L23.1187 2.36766C22.7662 1.42516 22.0299 0.665161 21.0999 0.278911C20.1737 -0.106089 19.1124 -0.0873394 18.1962 0.328911L15.7349 1.44766C15.2687 1.66016 14.7337 1.66016 14.2699 1.44766L11.8074 0.328911C10.8924 -0.0885894 9.83118 -0.107339 8.90368 0.278911C7.97368 0.663911 7.23743 1.42516 6.88493 2.36766L5.93493 4.89766C5.75618 5.37766 5.37868 5.75391 4.89868 5.93391L2.36868 6.88391C1.42618 7.23641 0.664928 7.97266 0.279928 8.90266C-0.105072 9.83141 -0.086322 10.8902 0.329928 11.8064L1.44868 14.2677C1.65993 14.7327 1.65993 15.2677 1.44868 15.7327L0.329928 18.1939C-0.086322 19.1102 -0.105072 20.1689 0.279928 21.0977C0.666178 22.0277 1.42618 22.7639 2.36868 23.1164L4.89868 24.0664C5.37868 24.2464 5.75618 24.6227 5.93493 25.1027L6.88493 27.6327C7.23743 28.5752 7.97368 29.3352 8.90368 29.7214C9.34743 29.9052 9.82243 29.9977 10.2974 29.9977C10.8137 29.9977 11.3299 29.8889 11.8074 29.6714L14.2687 28.5527C14.7349 28.3402 15.2699 28.3402 15.7337 28.5527L18.1949 29.6714C19.1099 30.0889 20.1712 30.1064 21.0987 29.7214C22.0287 29.3352 22.7649 28.5752 23.1174 27.6327L24.0674 25.1027C24.2474 24.6227 24.6237 24.2452 25.1037 24.0664L27.6337 23.1164C28.5762 22.7639 29.3362 22.0277 29.7224 21.0977C30.1074 20.1689 30.0887 19.1102 29.6724 18.1939L28.5549 15.7327Z" fill="#FF019B"></path><path d="M16.7692 12.1274C15.673 11.0311 13.888 11.0311 12.7917 12.1274C11.6955 13.2236 11.6955 15.0086 12.7917 16.1049L14.5592 17.8724C15.1067 18.4199 15.828 18.6949 16.548 18.6949C17.268 18.6949 17.988 18.4199 18.5367 17.8724C19.633 16.7761 19.633 14.9911 18.5367 13.8949L16.7692 12.1274ZM17.2117 16.5461C16.8455 16.9124 16.2517 16.9124 15.8855 16.5461L14.118 14.7786C13.753 14.4136 13.753 13.8174 14.118 13.4524C14.3005 13.2686 14.5405 13.1786 14.7805 13.1786C15.0205 13.1786 15.2605 13.2686 15.443 13.4524L17.2105 15.2199C17.5767 15.5861 17.5767 16.1811 17.2117 16.5461Z" fill="white"></path><path d="M11.0242 15.2211C10.658 14.8549 10.0642 14.8549 9.69797 15.2211C9.33172 15.5874 9.33172 16.1811 9.69797 16.5474L11.2442 18.0936L9.91797 19.4211L8.37047 17.8736C8.00422 17.5074 7.41047 17.5074 7.04422 17.8736C6.67797 18.2399 6.67797 18.8336 7.04422 19.1999L11.4642 23.6199C11.6467 23.8024 11.8867 23.8949 12.1267 23.8949C12.3667 23.8949 12.6067 23.8036 12.7892 23.6199C13.1555 23.2536 13.1555 22.6599 12.7892 22.2936L11.243 20.7474L12.5692 19.4199L14.1155 20.9661C14.298 21.1486 14.538 21.2411 14.778 21.2411C15.018 21.2411 15.258 21.1499 15.4405 20.9661C15.8067 20.5999 15.8067 20.0061 15.4405 19.6399L11.0242 15.2211Z" fill="white"></path><path d="M22.9567 12.1274L19.1992 8.36988L19.8617 7.70738C20.228 7.34113 20.228 6.74738 19.8617 6.38113C19.4955 6.01488 18.9017 6.01488 18.5355 6.38113L17.2117 7.70613L17.2092 7.70738L15.883 9.03488C15.5167 9.40113 15.5167 9.99488 15.883 10.3611C16.0655 10.5436 16.3067 10.6361 16.5455 10.6361C16.7855 10.6361 17.0255 10.5449 17.208 10.3611L17.8705 9.69738L21.628 13.4549C21.8105 13.6374 22.0505 13.7299 22.2905 13.7299C22.5305 13.7299 22.7705 13.6386 22.953 13.4549C23.323 13.0874 23.323 12.4936 22.9567 12.1274Z" fill="white"></path></g><defs><clipPath id="clip0_971_1354"><rect width="30" height="30" fill="white"></rect></clipPath></defs></svg>