<svg xmlns="http://www.w3.org/2000/svg" width="148" height="182" viewBox="0 0 148 182" fill="none"><path fill-rule="evenodd" clip-rule="evenodd" d="M74 2C34.2382 2 2 34.3261 2 74.2083V107.792C2 147.674 34.2382 180 74 180C113.762 180 146 147.674 146 107.792V74.2083C146 34.3261 113.762 2 74 2ZM0 74.2083C0 33.2269 33.1282 0 74 0C114.872 0 148 33.2269 148 74.2083V107.792C148 148.773 114.872 182 74 182C33.1282 182 0 148.773 0 107.792V74.2083Z" fill="#ED1C27"></path><path d="M93.6858 81.6788C93.6858 78.4567 91.702 75.6442 88.7608 74.5429C88.7856 74.1938 88.7985 73.8435 88.7985 73.4944C88.7985 65.5029 82.3143 58.9996 74.3429 58.9996C66.3715 58.9996 59.8873 65.5029 59.8873 73.4944C59.8873 73.8435 59.9002 74.1938 59.9249 74.5429C56.9837 75.6442 55 78.4567 55 81.6788C55 85.1012 57.262 88.0032 60.3666 88.9612L70.3894 120.025C70.9461 121.751 72.5354 122.911 74.344 122.911C76.1525 122.911 77.7419 121.751 78.2985 120.025L88.3213 88.9612C91.4237 88.0032 93.6858 85.1023 93.6858 81.6788ZM76.2525 119.363C75.9827 120.196 75.2155 120.757 74.3429 120.757C73.4703 120.757 72.703 120.196 72.4333 119.363L62.7307 89.292C64.967 89.2521 67.07 88.2101 68.4702 86.5107C69.8983 88.2435 72.0561 89.2995 74.3429 89.2995C76.6296 89.2995 78.7874 88.2446 80.2156 86.5107C81.6158 88.2101 83.7188 89.2521 85.9551 89.292L76.2525 119.363ZM86.0872 87.1432C84.0154 87.1432 82.0897 85.9331 81.1817 84.0613C81.0011 83.6906 80.6261 83.4546 80.2156 83.4546C79.8051 83.4546 79.429 83.6906 79.2495 84.0613C78.3426 85.9331 76.4169 87.1432 74.345 87.1432C72.2732 87.1432 70.3464 85.9331 69.4405 84.0613C69.2611 83.6906 68.885 83.4546 68.4745 83.4546C68.064 83.4546 67.6889 83.6896 67.5084 84.0613C66.5993 85.9342 64.6736 87.1432 62.6028 87.1432C59.5982 87.1432 57.1535 84.6917 57.1535 81.6788C57.1535 79.1367 58.875 76.9492 61.338 76.3608C61.8753 76.2326 62.2289 75.7164 62.1547 75.1668C62.0795 74.6162 62.0419 74.0526 62.0419 73.4933C62.0419 66.6894 67.5632 61.1538 74.3483 61.1538C81.1333 61.1538 86.6546 66.6894 86.6546 73.4933C86.6546 74.0526 86.617 74.6162 86.5418 75.1668C86.4676 75.7164 86.8212 76.2326 87.3585 76.3608C89.815 76.9503 91.5366 79.1367 91.5366 81.6788C91.5366 84.6917 89.0918 87.1432 86.0872 87.1432Z" fill="#ED1C27"></path><path d="M80.2145 71.6345C80.4896 71.6345 80.7647 71.5289 80.9743 71.3187C81.3944 70.8985 81.3944 70.2163 80.9743 69.795L79.6697 68.4868C79.2495 68.0655 78.5704 68.0655 78.1502 68.4868C77.73 68.9071 77.73 69.5892 78.1502 70.0105L79.4548 71.3187C79.6643 71.5289 79.9394 71.6345 80.2145 71.6345Z" fill="#ED1C27"></path><path d="M72.4924 74.7423C72.0722 74.322 71.3931 74.322 70.9729 74.7423C70.5527 75.1636 70.5527 75.8457 70.9729 76.2671L72.2786 77.5753C72.4881 77.7854 72.7632 77.8899 73.0383 77.8899C73.3134 77.8899 73.5885 77.7843 73.7981 77.5742C74.2182 77.1528 74.2182 76.4707 73.7981 76.0494L72.4924 74.7423Z" fill="#ED1C27"></path><path d="M70.3787 68.1398C69.9585 67.7185 69.2794 67.7196 68.8592 68.1398L67.5535 69.448C67.1334 69.8694 67.1334 70.5504 67.5535 70.9728C67.7631 71.183 68.0382 71.2886 68.3133 71.2886C68.5884 71.2886 68.8635 71.183 69.073 70.9739L70.3787 69.6657C70.7978 69.2433 70.7978 68.5622 70.3787 68.1398Z" fill="#ED1C27"></path><path d="M65.7536 76.9912L64.449 78.2994C64.0288 78.7207 64.0288 79.4018 64.449 79.8231C64.6585 80.0333 64.9336 80.1389 65.2087 80.1389C65.4838 80.1389 65.7589 80.0333 65.9685 79.8231L67.2731 78.5149C67.6932 78.0936 67.6932 77.4125 67.2731 76.9912C66.8529 76.5699 66.1727 76.5709 65.7536 76.9912Z" fill="#ED1C27"></path><path d="M80.7217 76.0505L79.4172 77.3597C78.997 77.7811 78.997 78.4632 79.4172 78.8845C79.6267 79.0947 79.9018 79.1992 80.1769 79.1992C80.452 79.1992 80.7271 79.0936 80.9367 78.8835L82.2412 77.5742C82.6614 77.1528 82.6614 76.4707 82.2412 76.0494C81.8211 75.6302 81.1408 75.6302 80.7217 76.0505Z" fill="#ED1C27"></path><path d="M19.4953 127.546C19.0716 126.534 18.9198 125.552 19.0397 124.601C19.1735 123.655 19.5515 122.797 20.1736 122.026C20.7998 121.266 21.6369 120.665 22.6848 120.224C23.7328 119.782 24.7418 119.606 25.7119 119.694C26.696 119.788 27.5716 120.118 28.3388 120.685C29.1101 121.261 29.7076 122.055 30.1312 123.067C30.559 124.088 30.7059 125.072 30.5721 126.018C30.4424 126.973 30.0644 127.831 29.4382 128.592C28.8218 129.348 27.9896 129.947 26.9417 130.388C25.8937 130.83 24.8798 131.008 23.8999 130.924C22.9199 130.84 22.0443 130.51 21.273 129.934C20.5156 129.363 19.923 128.567 19.4953 127.546ZM20.5824 127.088C20.899 127.844 21.3432 128.437 21.9147 128.866C22.5001 129.301 23.1721 129.544 23.9305 129.594C24.7028 129.65 25.5297 129.493 26.4111 129.122C27.2925 128.75 27.9788 128.271 28.4699 127.683C28.9651 127.104 29.2578 126.456 29.3481 125.736C29.4524 125.022 29.3461 124.287 29.0295 123.531C28.7128 122.774 28.2617 122.179 27.6763 121.744C27.1047 121.314 26.4377 121.069 25.6752 121.009C24.9168 120.959 24.0968 121.119 23.2154 121.491C22.334 121.862 21.6407 122.339 21.1358 122.921C20.6447 123.509 20.347 124.16 20.2428 124.874C20.1525 125.594 20.2657 126.332 20.5824 127.088Z" fill="#ED1C27"></path><path d="M24.2498 136.542L33.1643 129.82L35.3284 132.706C35.8519 133.405 36.165 134.061 36.2677 134.677C36.3704 135.293 36.3021 135.857 36.0627 136.371C35.8232 136.885 35.4615 137.324 34.9776 137.689C34.4173 138.111 33.7972 138.339 33.1174 138.372C32.444 138.413 31.7745 138.185 31.109 137.687L28.7408 142.531L27.7928 141.267L30.1135 136.679L28.7346 134.84L25.0542 137.615L24.2498 136.542ZM29.5751 134.206L30.8774 135.943C31.3945 136.632 31.9367 137.01 32.504 137.075C33.0713 137.14 33.6139 136.978 34.1318 136.587C34.6582 136.19 34.9561 135.719 35.0255 135.174C35.1098 134.63 34.8871 134.005 34.3572 133.299L33.0645 131.575L29.5751 134.206Z" fill="#ED1C27"></path><path d="M31.4919 145.399L39.3371 137.449L40.2885 138.393L32.4432 146.343L31.4919 145.399Z" fill="#ED1C27"></path><path d="M39.0558 152.149C38.202 151.551 37.5892 150.83 37.2174 149.986C36.8517 149.132 36.7357 148.227 36.8696 147.268C37.0096 146.301 37.404 145.35 38.0527 144.414C38.7014 143.478 39.453 142.776 40.3073 142.309C41.1704 141.848 42.0724 141.648 43.0133 141.709C43.963 141.776 44.8909 142.126 45.7969 142.76C46.8249 143.479 47.5058 144.326 47.8397 145.3C48.1824 146.28 48.1507 147.277 47.7448 148.292L46.4773 147.405C46.7373 146.769 46.7486 146.127 46.5112 145.481C46.2825 144.84 45.811 144.27 45.0966 143.77C44.4258 143.301 43.736 143.045 43.0273 143.004C42.3246 142.954 41.6398 143.112 40.973 143.476C40.315 143.847 39.7161 144.422 39.1765 145.2C38.6369 145.979 38.3081 146.742 38.1902 147.491C38.0722 148.24 38.1467 148.935 38.4136 149.576C38.6866 150.208 39.1411 150.747 39.7771 151.192C40.7528 151.875 41.6859 152.106 42.5766 151.884C43.4733 151.655 44.3021 151.065 45.0629 150.117L42.4233 148.27L43.0236 147.405L46.787 150.037L43.3857 154.944L42.3795 154.24L43.3339 152.667C42.633 152.969 41.9429 153.097 41.2637 153.05C40.5845 153.004 39.8485 152.703 39.0558 152.149Z" fill="#ED1C27"></path><path d="M47.3956 156.922L52.192 146.825L53.4004 147.402L48.604 157.5L47.3956 156.922Z" fill="#ED1C27"></path><path d="M52.1143 159.206L55.3175 148.493L56.5995 148.878L59.7252 159.176L62.2923 150.59L63.5744 150.975L60.3712 161.689L59.0892 161.303L55.9635 151.006L53.3964 159.592L52.1143 159.206Z" fill="#ED1C27"></path><path d="M64.5371 162.573L69.4146 151.732L70.8285 151.841L74.1325 163.314L72.7186 163.204L71.9022 160.257L67.168 159.892L65.9351 162.681L64.5371 162.573ZM67.6408 158.839L71.5807 159.143L69.9957 153.476L67.6408 158.839Z" fill="#ED1C27"></path><path d="M78.1215 163.142L76.8299 152.032L78.1593 151.877L79.3273 161.923L84.4867 161.32L84.6103 162.383L78.1215 163.142Z" fill="#ED1C27"></path><path d="M96.0534 159.18L92.3368 149.812L89.2471 151.058L88.8406 150.033L96.2619 147.041L96.6683 148.066L93.5786 149.311L97.2952 158.679L96.0534 159.18Z" fill="#ED1C27"></path><path d="M101.979 156.802L99.5405 145.136L100.742 144.381L110.134 151.678L108.932 152.433L106.546 150.539L102.522 153.067L103.167 156.056L101.979 156.802ZM102.284 151.934L105.633 149.83L101.031 146.198L102.284 151.934Z" fill="#ED1C27"></path><path d="M116.056 146.728C115.469 147.299 114.855 147.689 114.213 147.898C113.571 148.107 112.948 148.136 112.341 147.983C111.735 147.831 111.188 147.503 110.699 146.999L111.706 146.019C112.009 146.333 112.362 146.553 112.766 146.679C113.163 146.798 113.576 146.804 114.005 146.698C114.435 146.576 114.856 146.315 115.268 145.914C115.809 145.387 116.102 144.849 116.148 144.3C116.194 143.751 116.028 143.281 115.651 142.892C115.34 142.571 115.023 142.381 114.701 142.324C114.372 142.259 114.029 142.28 113.675 142.388C113.328 142.488 112.957 142.641 112.564 142.846C112.178 143.043 111.765 143.244 111.327 143.449C110.502 143.836 109.79 144.017 109.189 143.993C108.581 143.961 108.029 143.69 107.533 143.178C107.111 142.757 106.844 142.282 106.732 141.753C106.612 141.217 106.65 140.675 106.846 140.128C107.042 139.566 107.399 139.032 107.918 138.528C108.428 138.031 108.963 137.696 109.521 137.524C110.087 137.344 110.636 137.322 111.167 137.458C111.706 137.586 112.187 137.861 112.609 138.281L111.603 139.261C111.388 139.039 111.12 138.877 110.799 138.774C110.47 138.664 110.121 138.655 109.751 138.747C109.389 138.832 109.033 139.046 108.682 139.387C108.241 139.802 107.99 140.262 107.93 140.765C107.877 141.262 108.047 141.713 108.439 142.118C108.772 142.462 109.123 142.632 109.491 142.63C109.867 142.621 110.289 142.507 110.758 142.288C111.22 142.061 111.753 141.802 112.358 141.509C112.872 141.276 113.371 141.102 113.853 140.989C114.336 140.876 114.801 140.883 115.25 141.01C115.707 141.13 116.153 141.415 116.59 141.866C116.96 142.248 117.212 142.708 117.347 143.244C117.474 143.774 117.439 144.342 117.243 144.949C117.053 145.549 116.658 146.142 116.056 146.728Z" fill="#ED1C27"></path><path d="M122.63 138.862L114.369 133.116L112.471 135.859L111.568 135.231L116.127 128.641L117.03 129.269L115.132 132.013L123.393 137.76L122.63 138.862Z" fill="#ED1C27"></path><path d="M127.246 131.537L116.977 127.172L119.686 120.81L120.699 121.24L118.515 126.368L122.094 127.89L124.09 123.202L125.088 123.626L123.092 128.314L126.759 129.873L128.943 124.745L129.955 125.175L127.246 131.537Z" fill="#ED1C27"></path><path d="M20.099 75.1748L9 74.0718L9.37557 70.2717C9.50443 68.9679 9.84279 67.9204 10.3907 67.1292C10.929 66.3264 11.6356 65.7651 12.5105 65.4453C13.3758 65.1139 14.3688 65.0038 15.4892 65.1152C16.6097 65.2265 17.567 65.5304 18.3613 66.0268C19.1459 66.5115 19.7289 67.201 20.1102 68.0952C20.482 68.9778 20.6035 70.071 20.4746 71.3748L20.099 75.1748ZM18.556 72.9663L18.721 71.2968C18.8132 70.364 18.7381 69.6126 18.4955 69.0426C18.2424 68.4715 17.8472 68.0416 17.31 67.7527C16.7623 67.4628 16.0867 67.2779 15.2834 67.1981C14.4906 67.1193 13.7973 67.1681 13.2034 67.3446C12.6096 67.521 12.1326 67.8643 11.7727 68.3745C11.4127 68.8846 11.1866 69.6061 11.0944 70.5389L10.9294 72.2084L18.556 72.9663Z" fill="#ED1C27"></path><path d="M21.464 64.2702L10.7638 61.1142L12.8185 54.1091L14.393 54.5734L12.9138 59.6165L15.8487 60.4822L17.193 55.8989L18.7216 56.3498L17.3773 60.933L20.465 61.8437L21.9442 56.8007L23.5187 57.265L21.464 64.2702Z" fill="#ED1C27"></path><path d="M24.2083 55.5739L14.1811 50.6762L15.0742 48.8376L23.6689 53.0356L25.8319 48.5826L27.2643 49.2823L24.2083 55.5739Z" fill="#ED1C27"></path><path d="M28.3139 47.7552L18.9609 41.6621L20.072 39.9471L29.425 46.0402L28.3139 47.7552Z" fill="#ED1C27"></path><path d="M34.0364 40.4329C33.2913 41.2795 32.4725 41.8477 31.5799 42.1375C30.6794 42.4202 29.7625 42.4398 28.8292 42.1963C27.8879 41.9458 26.9912 41.4435 26.1391 40.6893C25.2869 39.9351 24.6784 39.1053 24.3135 38.1999C23.9486 37.2945 23.8501 36.3762 24.0179 35.445C24.1857 34.5138 24.6422 33.6249 25.3872 32.7784C26.2729 31.7721 27.2477 31.1715 28.3118 30.9767C29.3749 30.7668 30.4267 30.9802 31.4672 31.6169L29.9806 33.306C29.4353 33.0081 28.8841 32.9181 28.327 33.0359C27.769 33.1388 27.2439 33.4697 26.7519 34.0288C26.0701 34.8034 25.7988 35.643 25.9378 36.5474C26.0769 37.4519 26.6043 38.3094 27.5202 39.12C28.4361 39.9305 29.3502 40.3488 30.2624 40.3747C31.1666 40.3936 31.9597 40.0157 32.6415 39.241C33.1335 38.682 33.4076 38.129 33.4639 37.5822C33.5193 37.0202 33.3776 36.4971 33.0389 36.0126L34.5255 34.3235C35.2451 35.2445 35.5631 36.2434 35.4796 37.3202C35.4031 38.3891 34.922 39.4266 34.0364 40.4329Z" fill="#ED1C27"></path><path d="M38.5151 35.703L31.3235 27.1541L32.8824 25.8354L40.074 34.3843L38.5151 35.703Z" fill="#ED1C27"></path><path d="M46.2341 30.2804C45.2816 30.8623 44.3199 31.1629 43.3491 31.1822C42.3873 31.196 41.4784 30.9592 40.6226 30.4718C39.7703 29.9697 39.0485 29.2319 38.4571 28.2586C37.8658 27.2852 37.5459 26.3082 37.4974 25.3276C37.4525 24.3322 37.6567 23.4092 38.11 22.5585C38.5725 21.7023 39.2799 20.9832 40.2324 20.4013C41.1759 19.825 42.133 19.5271 43.1039 19.5078C44.0747 19.4884 44.9863 19.7298 45.8386 20.2319C46.6854 20.7249 47.4045 21.4581 47.9958 22.4314C48.5871 23.4048 48.9098 24.3863 48.9638 25.3761C49.0123 26.3568 48.8053 27.2752 48.3429 28.1315C47.8805 28.9877 47.1775 29.704 46.2341 30.2804ZM45.2808 28.7112C46.188 28.157 46.7268 27.4162 46.8972 26.4889C47.0768 25.556 46.8488 24.5665 46.2133 23.5204C45.5777 22.4742 44.8054 21.8172 43.8964 21.5494C42.9964 21.2759 42.0929 21.4163 41.1857 21.9705C40.2786 22.5247 39.7352 23.2682 39.5557 24.2011C39.3762 25.134 39.6041 26.1235 40.2397 27.1696C40.8752 28.2158 41.6475 28.8728 42.5565 29.1406C43.4656 29.4085 44.3737 29.2654 45.2808 28.7112Z" fill="#ED1C27"></path><path d="M56.3231 25.566C55.5513 25.8377 54.802 25.9322 54.075 25.8494C53.3445 25.7566 52.6848 25.4639 52.0958 24.9713C51.5168 24.4752 51.0602 23.7497 50.726 22.7949L48.4459 16.2822L50.3703 15.6048L52.6556 22.1326C52.9441 22.9567 53.3542 23.501 53.8858 23.7654C54.4275 24.0263 55.0491 24.0332 55.7506 23.7863C56.4422 23.5428 56.9181 23.1495 57.1782 22.6063C57.4384 22.0632 57.4242 21.3795 57.1357 20.5554L54.8504 14.0276L56.7747 13.3501L59.0547 19.8629C59.389 20.8177 59.4748 21.6737 59.3121 22.4309C59.1494 23.1881 58.8018 23.8354 58.2695 24.3728C57.7436 24.8966 57.0948 25.2943 56.3231 25.566Z" fill="#ED1C27"></path><path d="M66.091 23.135C65.2819 23.2551 64.5471 23.2242 63.8867 23.0422C63.2248 22.8498 62.6771 22.5219 62.2436 22.0586C61.8085 21.5848 61.5306 20.9746 61.4096 20.228L63.5374 19.9122C63.6347 20.4254 63.8831 20.8353 64.2828 21.1421C64.6913 21.4368 65.2056 21.5382 65.8256 21.4461C66.3615 21.3666 66.7684 21.177 67.0463 20.8773C67.3226 20.5671 67.4289 20.196 67.3652 19.7639C67.2983 19.3108 67.1043 18.9789 66.7833 18.7681C66.4727 18.5558 66.0746 18.4049 65.589 18.3155C65.1033 18.2261 64.5845 18.1308 64.0327 18.0296C63.138 17.8609 62.4305 17.5783 61.9103 17.1817C61.4005 16.7836 61.0889 16.2 60.9753 15.4307C60.8684 14.779 60.9383 14.1979 61.1851 13.6875C61.4408 13.165 61.8285 12.7359 62.3481 12.4004C62.8661 12.0543 63.4876 11.8274 64.2127 11.7198C64.9482 11.6106 65.6139 11.6464 66.2097 11.8272C66.816 12.0064 67.3118 12.3097 67.697 12.7371C68.0927 13.1629 68.3493 13.7009 68.4668 14.351L66.3074 14.6716C66.2394 14.2833 66.0365 13.9634 65.6987 13.7121C65.3699 13.4486 64.948 13.3551 64.4331 13.4315C63.9903 13.4865 63.6336 13.6525 63.363 13.9295C63.1015 14.1945 63.0026 14.543 63.0664 14.975C63.1208 15.3438 63.2799 15.6217 63.5438 15.8086C63.8061 15.9851 64.1477 16.1174 64.5688 16.2056C64.9899 16.2939 65.4703 16.3841 66.0101 16.4763C66.5845 16.5848 67.1163 16.732 67.6054 16.9178C68.0946 17.1037 68.5069 17.387 68.8423 17.768C69.1762 18.1384 69.3913 18.6502 69.4877 19.3035C69.5733 19.883 69.5055 20.4423 69.2844 20.9812C69.0633 21.5201 68.6863 21.9852 68.1535 22.3766C67.6191 22.7574 66.9316 23.0102 66.091 23.135Z" fill="#ED1C27"></path><path d="M75.6351 22.4052L76.2246 11.2363L78.2613 11.3444L77.6717 22.5133L75.6351 22.4052Z" fill="#ED1C27"></path><path d="M84.8254 23.7147C83.7219 23.4902 82.8221 23.0625 82.126 22.4318C81.432 21.7906 80.9571 21.0038 80.7014 20.0714C80.4478 19.1285 80.434 18.0986 80.66 16.9816C80.886 15.8646 81.2991 14.9216 81.8991 14.1524C82.4991 13.3832 83.2433 12.8391 84.1316 12.5198C85.02 12.2006 86.0159 12.1533 87.1193 12.3778C88.431 12.6447 89.4367 13.1917 90.1365 14.0188C90.8487 14.8376 91.1896 15.858 91.1591 17.08L88.9574 16.632C88.9425 16.0094 88.745 15.4856 88.3649 15.0604C87.9974 14.627 87.4493 14.3361 86.7206 14.1878C85.7108 13.9824 84.8499 14.1659 84.1379 14.7384C83.426 15.3109 82.9485 16.1974 82.7056 17.3979C82.4627 18.5984 82.5578 19.6014 82.991 20.4068C83.4262 21.2019 84.1488 21.7021 85.1585 21.9076C85.8873 22.0559 86.5019 22.0179 87.0025 21.7937C87.5156 21.5612 87.8969 21.1768 88.1463 20.6406L90.348 21.0886C89.9117 22.1737 89.2075 22.9488 88.2354 23.414C87.2737 23.8814 86.1371 23.9816 84.8254 23.7147Z" fill="#ED1C27"></path><path d="M91.036 25.1791L95.2939 14.8417L102.024 17.6293L101.397 19.1503L96.5524 17.1435L95.3845 19.9789L99.7878 21.8027L99.1795 23.2795L94.7763 21.4557L93.5475 24.4388L98.3926 26.4456L97.7661 27.9666L91.036 25.1791Z" fill="#ED1C27"></path><path d="M106.623 33.875C105.731 33.186 105.111 32.4045 104.764 31.5308C104.422 30.6486 104.342 29.7324 104.522 28.7824C104.708 27.824 105.148 26.8933 105.842 25.9904C106.536 25.0875 107.321 24.4233 108.197 23.9979C109.074 23.5725 109.981 23.4128 110.919 23.5187C111.857 23.6246 112.771 24.022 113.663 24.7111C114.724 25.5302 115.386 26.4656 115.651 27.5172C115.931 28.5669 115.788 29.6336 115.224 30.7171L113.444 29.3422C113.705 28.7767 113.757 28.2192 113.603 27.6697C113.464 27.1182 113.099 26.6149 112.51 26.1599C111.694 25.5293 110.841 25.3137 109.95 25.5131C109.059 25.7125 108.241 26.2974 107.496 27.2678C106.75 28.2382 106.395 29.1806 106.43 30.0951C106.471 31.0011 106.9 31.7694 107.716 32.3999C108.305 32.855 108.874 33.0924 109.422 33.1123C109.985 33.1303 110.496 32.9537 110.955 32.5825L112.735 33.9574C111.866 34.7387 110.894 35.1235 109.817 35.1116C108.748 35.1063 107.684 34.6941 106.623 33.875Z" fill="#ED1C27"></path><path d="M111.625 37.875L119.998 30.4862L122.703 33.5689C123.293 34.2406 123.661 34.8944 123.809 35.5303C123.972 36.1671 123.952 36.7659 123.751 37.3266C123.558 37.8803 123.226 38.3647 122.755 38.7799C122.245 39.2302 121.659 39.506 120.998 39.607C120.344 39.7161 119.672 39.5712 118.982 39.1724L117.004 44.0043L115.457 42.2411L117.39 37.7685L116.274 36.497L112.972 39.4103L111.625 37.875ZM117.398 35.5048L118.672 36.9562C119.121 37.468 119.574 37.7347 120.032 37.7565C120.49 37.7782 120.922 37.6097 121.329 37.2508C121.727 36.8989 121.941 36.4975 121.97 36.0465C122.006 35.6035 121.792 35.1181 121.329 34.5904L120.066 33.151L117.398 35.5048Z" fill="#ED1C27"></path><path d="M117.918 45.4062L127.472 39.6341L131.23 45.8884L129.824 46.7378L127.118 42.2352L124.498 43.8184L126.957 47.9104L125.592 48.735L123.133 44.643L120.377 46.3087L123.082 50.8112L121.676 51.6606L117.918 45.4062Z" fill="#ED1C27"></path><path d="M122.258 52.5511L134.133 52.505L134.93 54.6627L125.886 62.3809L125.133 60.343L127.244 58.6054L125.735 54.5147L122.999 54.559L122.258 52.5511ZM127.422 54.4845L128.545 57.5264L132.329 54.3841L127.422 54.4845Z" fill="#ED1C27"></path><path d="M126.226 63.5184L137.293 62.1341L137.593 64.544L131.013 68.9578L138.467 71.5678L138.767 73.9777L127.699 75.3621L127.447 73.3327L135.083 72.3775L128.643 70.0432L128.444 68.4418L134.115 64.5927L126.478 65.5479L126.226 63.5184Z" fill="#ED1C27"></path></svg>