<svg xmlns="http://www.w3.org/2000/svg" width="52" height="52" viewBox="0 0 52 52" fill="none"><path d="M48.175 1.625H4.075C3.42582 1.62694 2.80377 1.88569 2.34473 2.34473C1.88569 2.80377 1.62694 3.42582 1.625 4.075V38.375C1.62694 39.0242 1.88569 39.6462 2.34473 40.1053C2.80377 40.5643 3.42582 40.8231 4.075 40.825H31.025V46.5417C31.025 47.6246 31.4552 48.6632 32.221 49.429C32.9868 50.1948 34.0254 50.625 35.1083 50.625H46.5417C47.6246 50.625 48.6632 50.1948 49.429 49.429C50.1948 48.6632 50.625 47.6246 50.625 46.5417V4.075C50.6231 3.42582 50.3643 2.80377 49.9053 2.34473C49.4462 1.88569 48.8242 1.62694 48.175 1.625ZM48.9917 46.5417C48.9897 47.1909 48.731 47.8129 48.2719 48.2719C47.8129 48.731 47.1909 48.9897 46.5417 48.9917H35.1083C34.4592 48.9897 33.8371 48.731 33.3781 48.2719C32.919 47.8129 32.6603 47.1909 32.6583 46.5417V45.725H48.9917V46.5417ZM48.9917 44.0917H32.6583V26.125H48.9917V44.0917ZM48.9917 24.4917H32.6583V23.675C32.6603 23.0258 32.919 22.4038 33.3781 21.9447C33.8371 21.4857 34.4592 21.2269 35.1083 21.225H46.5417C47.1909 21.2269 47.8129 21.4857 48.2719 21.9447C48.731 22.4038 48.9897 23.0258 48.9917 23.675V24.4917ZM48.9917 20.4328C48.2901 19.8899 47.4288 19.5941 46.5417 19.5917H35.1083C34.0254 19.5917 32.9868 20.0219 32.221 20.7876C31.4552 21.5534 31.025 22.592 31.025 23.675V39.1917H4.075C3.85841 39.1917 3.65068 39.1056 3.49753 38.9525C3.34438 38.7993 3.25833 38.5916 3.25833 38.375V9.79167H48.9917V20.4328ZM48.9917 8.15833H3.25833V4.075C3.25833 3.85841 3.34438 3.65068 3.49753 3.49753C3.65068 3.34438 3.85841 3.25833 4.075 3.25833H48.175C48.3916 3.25833 48.5993 3.34438 48.7525 3.49753C48.9056 3.65068 48.9917 3.85841 48.9917 4.075V8.15833Z" fill="white"></path><path d="M6.525 4.89167H5.70833C5.49174 4.89167 5.28402 4.97771 5.13086 5.13086C4.97771 5.28402 4.89167 5.49174 4.89167 5.70833C4.89167 5.92493 4.97771 6.13265 5.13086 6.2858C5.28402 6.43896 5.49174 6.525 5.70833 6.525H6.525C6.74159 6.525 6.94932 6.43896 7.10247 6.2858C7.25563 6.13265 7.34167 5.92493 7.34167 5.70833C7.34167 5.49174 7.25563 5.28402 7.10247 5.13086C6.94932 4.97771 6.74159 4.89167 6.525 4.89167Z" fill="white"></path><path d="M9.79167 4.89167H8.975C8.75841 4.89167 8.55068 4.97771 8.39753 5.13086C8.24438 5.28402 8.15833 5.49174 8.15833 5.70833C8.15833 5.92493 8.24438 6.13265 8.39753 6.2858C8.55068 6.43896 8.75841 6.525 8.975 6.525H9.79167C10.0083 6.525 10.216 6.43896 10.3691 6.2858C10.5223 6.13265 10.6083 5.92493 10.6083 5.70833C10.6083 5.49174 10.5223 5.28402 10.3691 5.13086C10.216 4.97771 10.0083 4.89167 9.79167 4.89167Z" fill="white"></path><path d="M13.0583 4.89167H12.2417C12.0251 4.89167 11.8174 4.97771 11.6642 5.13086C11.511 5.28402 11.425 5.49174 11.425 5.70833C11.425 5.92493 11.511 6.13265 11.6642 6.2858C11.8174 6.43896 12.0251 6.525 12.2417 6.525H13.0583C13.2749 6.525 13.4827 6.43896 13.6358 6.2858C13.789 6.13265 13.875 5.92493 13.875 5.70833C13.875 5.49174 13.789 5.28402 13.6358 5.13086C13.4827 4.97771 13.2749 4.89167 13.0583 4.89167Z" fill="white"></path><path d="M28.575 14.6917H5.70833C5.49174 14.6917 5.28402 14.7777 5.13086 14.9309C4.97771 15.084 4.89167 15.2917 4.89167 15.5083V33.475C4.89167 33.6916 4.97771 33.8993 5.13086 34.0525C5.28402 34.2056 5.49174 34.2917 5.70833 34.2917H28.575C28.7916 34.2917 28.9993 34.2056 29.1525 34.0525C29.3056 33.8993 29.3917 33.6916 29.3917 33.475V15.5083C29.3917 15.2917 29.3056 15.084 29.1525 14.9309C28.9993 14.7777 28.7916 14.6917 28.575 14.6917ZM7.17833 32.6583L13.875 21.9518L20.5717 32.6583H7.17833ZM22.4908 32.6583L20.7105 29.8L22.8583 26.7293L27.007 32.6583H22.4908ZM27.7583 30.8862L23.528 24.8428C23.4527 24.735 23.3526 24.647 23.236 24.5862C23.1194 24.5253 22.9898 24.4936 22.8583 24.4936C22.7268 24.4936 22.5973 24.5253 22.4807 24.5862C22.3641 24.647 22.2639 24.735 22.1887 24.8428L19.7713 28.2973L14.5692 19.9755C14.4899 19.8655 14.3856 19.776 14.2649 19.7142C14.1442 19.6525 14.0106 19.6203 13.875 19.6203C13.7394 19.6203 13.6058 19.6525 13.4851 19.7142C13.3644 19.776 13.2601 19.8655 13.1808 19.9755L6.525 30.6248V16.325H27.7583V30.8862Z" fill="white"></path><path d="M20.4083 22.8583C20.8929 22.8583 21.3666 22.7146 21.7695 22.4454C22.1724 22.1762 22.4864 21.7936 22.6718 21.3459C22.8573 20.8982 22.9058 20.4056 22.8113 19.9304C22.7167 19.4551 22.4834 19.0186 22.1407 18.6759C21.7981 18.3333 21.3616 18.0999 20.8863 18.0054C20.4111 17.9109 19.9184 17.9594 19.4708 18.1448C19.0231 18.3303 18.6404 18.6443 18.3712 19.0472C18.102 19.4501 17.9583 19.9238 17.9583 20.4083C17.9583 21.0581 18.2165 21.6813 18.6759 22.1407C19.1354 22.6002 19.7586 22.8583 20.4083 22.8583ZM20.4083 19.5917C20.5699 19.5917 20.7278 19.6396 20.8621 19.7293C20.9963 19.819 21.101 19.9466 21.1628 20.0958C21.2246 20.245 21.2408 20.4092 21.2093 20.5677C21.1778 20.7261 21.1 20.8716 20.9858 20.9858C20.8716 21.1 20.7261 21.1778 20.5677 21.2093C20.4092 21.2408 20.245 21.2246 20.0958 21.1628C19.9466 21.101 19.819 20.9963 19.7293 20.8621C19.6396 20.7278 19.5917 20.5699 19.5917 20.4083C19.5917 20.1917 19.6777 19.984 19.8309 19.8309C19.984 19.6777 20.1917 19.5917 20.4083 19.5917Z" fill="white"></path><path d="M46.5417 4.89167H17.9583C17.7417 4.89167 17.534 4.97771 17.3809 5.13086C17.2277 5.28402 17.1417 5.49174 17.1417 5.70833C17.1417 5.92493 17.2277 6.13265 17.3809 6.2858C17.534 6.43896 17.7417 6.525 17.9583 6.525H46.5417C46.7583 6.525 46.966 6.43896 47.1191 6.2858C47.2723 6.13265 47.3583 5.92493 47.3583 5.70833C47.3583 5.49174 47.2723 5.28402 47.1191 5.13086C46.966 4.97771 46.7583 4.89167 46.5417 4.89167Z" fill="white"></path><path d="M41.6417 46.5417H40.0083C39.7917 46.5417 39.584 46.6277 39.4309 46.7809C39.2777 46.934 39.1917 47.1417 39.1917 47.3583C39.1917 47.5749 39.2777 47.7826 39.4309 47.9358C39.584 48.089 39.7917 48.175 40.0083 48.175H41.6417C41.8583 48.175 42.066 48.089 42.2191 47.9358C42.3723 47.7826 42.4583 47.5749 42.4583 47.3583C42.4583 47.1417 42.3723 46.934 42.2191 46.7809C42.066 46.6277 41.8583 46.5417 41.6417 46.5417Z" fill="white"></path><path d="M41.6417 22.0417H40.0083C39.7917 22.0417 39.584 22.1277 39.4309 22.2809C39.2777 22.434 39.1917 22.6417 39.1917 22.8583C39.1917 23.0749 39.2777 23.2826 39.4309 23.4358C39.584 23.589 39.7917 23.675 40.0083 23.675H41.6417C41.8583 23.675 42.066 23.589 42.2191 23.4358C42.3723 23.2826 42.4583 23.0749 42.4583 22.8583C42.4583 22.6417 42.3723 22.434 42.2191 22.2809C42.066 22.1277 41.8583 22.0417 41.6417 22.0417Z" fill="white"></path><path d="M38.1357 31.2643C37.9826 31.1112 37.7749 31.0252 37.5583 31.0252C37.3418 31.0252 37.1341 31.1112 36.9809 31.2643L33.7143 34.5309C33.5612 34.6841 33.4752 34.8918 33.4752 35.1083C33.4752 35.3249 33.5612 35.5326 33.7143 35.6857L36.9809 38.9524C37.135 39.1012 37.3413 39.1835 37.5554 39.1816C37.7695 39.1797 37.9744 39.0939 38.1258 38.9424C38.2772 38.791 38.3631 38.5862 38.3649 38.3721C38.3668 38.1579 38.2845 37.9516 38.1357 37.7976L35.4464 35.1083L38.1357 32.4191C38.2888 32.2659 38.3748 32.0582 38.3748 31.8417C38.3748 31.6251 38.2888 31.4174 38.1357 31.2643Z" fill="white"></path><path d="M47.9357 34.5309L44.6691 31.2643C44.515 31.1155 44.3087 31.0332 44.0946 31.0351C43.8805 31.0369 43.6757 31.1228 43.5242 31.2742C43.3728 31.4256 43.2869 31.6305 43.2851 31.8446C43.2832 32.0587 43.3655 32.265 43.5143 32.4191L46.2036 35.1083L43.5143 37.7976C43.4363 37.873 43.3741 37.9631 43.3313 38.0627C43.2885 38.1623 43.2659 38.2695 43.265 38.3779C43.2641 38.4864 43.2847 38.5939 43.3258 38.6943C43.3668 38.7946 43.4275 38.8858 43.5042 38.9625C43.5808 39.0392 43.672 39.0998 43.7724 39.1409C43.8728 39.1819 43.9803 39.2026 44.0887 39.2017C44.1972 39.2007 44.3043 39.1782 44.404 39.1354C44.5036 39.0926 44.5937 39.0304 44.6691 38.9524L47.9357 35.6857C48.0888 35.5326 48.1748 35.3249 48.1748 35.1083C48.1748 34.8918 48.0888 34.6841 47.9357 34.5309Z" fill="white"></path><path d="M42.6821 28.6069C42.474 28.5474 42.2507 28.573 42.0614 28.678C41.8722 28.7831 41.7323 28.959 41.6727 29.1671L38.406 40.6004C38.3766 40.7036 38.3678 40.8115 38.3801 40.9181C38.3925 41.0247 38.4257 41.1278 38.4778 41.2215C38.53 41.3153 38.6002 41.3978 38.6842 41.4644C38.7683 41.5311 38.8647 41.5805 38.9679 41.6098C39.0406 41.6312 39.1159 41.6419 39.1917 41.6417C39.369 41.6416 39.5416 41.5838 39.6832 41.4769C39.8247 41.3701 39.9277 41.2201 39.9765 41.0496L43.2432 29.6163C43.3026 29.408 43.2769 29.1847 43.1717 28.9954C43.0664 28.8061 42.8903 28.6663 42.6821 28.6069Z" fill="white"></path></svg>